<svg width="288.07" height="189.471" xmlns="http://www.w3.org/2000/svg" xmlns:xlink="http://www.w3.org/1999/xlink" id="svg42952" xml:space="preserve" overflow="hidden"><defs id="defs42956"></defs><g id="g42958" transform="matrix(3.77953 0 0 3.77953 -335.474 -643.522)"><path d="M107.975 220.353C107.975 220.33 112.268 214.701 117.515 207.844 122.762 200.988 127.044 195.344 127.031 195.302 127.018 195.261 122.706 189.613 117.45 182.752 112.193 175.89 107.902 170.272 107.913 170.266 107.925 170.261 116.471 170.28 126.904 170.309L145.873 170.363 136.501 182.822C131.346 189.674 127.129 195.321 127.129 195.371 127.129 195.42 129.859 199.064 133.195 203.469 136.532 207.875 140.755 213.485 142.58 215.938L145.898 220.396 126.936 220.396C116.508 220.396 107.975 220.377 107.975 220.353ZM97.6302 207.194C92.7632 200.821 88.772 195.574 88.7609 195.533 88.7498 195.492 92.7208 190.2 97.5855 183.772L106.43 172.084 106.859 172.601C107.095 172.886 109.253 175.705 111.655 178.866L116.021 184.614 111.908 190.049 107.795 195.485 111.887 200.857C114.138 203.811 115.97 206.257 115.958 206.291 115.946 206.325 113.808 209.149 111.207 212.567L106.479 218.782ZM142.771 212.473 138.112 206.258 139.833 203.956C140.78 202.689 142.59 200.272 143.857 198.583L146.16 195.513 144.868 193.778C144.157 192.823 142.325 190.378 140.797 188.344 139.269 186.31 138.033 184.597 138.049 184.538 138.091 184.39 147.169 172.125 147.238 172.125 147.268 172.125 151.272 177.383 156.136 183.811L164.979 195.497 156.265 207.092C151.473 213.47 147.524 218.687 147.49 218.687 147.457 218.687 145.333 215.891 142.771 212.473Z" id="path42950" stroke-width="0.0929024" fill="#FFFFFF"/></g></svg>