<svg width="225.93" height="246.425" xmlns="http://www.w3.org/2000/svg" xmlns:xlink="http://www.w3.org/1999/xlink" id="svg43145" xml:space="preserve" overflow="hidden"><defs id="defs43149"></defs><g id="g43151" transform="matrix(3.77953 0 0 3.77953 -345.713 -634.388)"><path d="M119.571 232.898C119.013 232.759 117.244 231.913 115.639 231.017 114.035 230.122 111.802 228.876 110.678 228.249 109.553 227.621 106.228 225.739 103.287 224.065 100.347 222.391 97.3039 220.676 96.5256 220.253 94.484 219.146 92.8875 217.526 92.1302 215.793L91.4699 214.282 91.5604 199.968 91.6509 185.655 92.3511 184.365C93.1368 182.919 94.8982 181.421 97.469 180.013 98.4204 179.492 102.454 177.221 106.432 174.965 110.41 172.709 114.161 170.588 114.766 170.251 115.371 169.914 116.468 169.292 117.203 168.87 118.643 168.042 121.472 167.626 123.328 167.969 123.92 168.078 126.588 169.401 129.256 170.908 131.924 172.416 137.079 175.328 140.712 177.38 148.092 181.55 149.606 182.675 150.577 184.709L151.247 186.112 151.247 200.468 151.247 214.823 150.434 216.34C149.987 217.174 149.244 218.166 148.783 218.544 147.908 219.262 143.968 221.605 138.353 224.746 136.537 225.762 133.14 227.677 130.805 229.001 128.47 230.325 125.921 231.729 125.14 232.121 123.531 232.928 121.073 233.271 119.571 232.898ZM125.662 225.101C134.238 222.509 138.11 212.629 133.61 204.82 132.339 202.615 130.104 200.667 127.256 199.281L124.83 198.101 124.83 193.968 124.83 189.835 125.905 189.835C126.496 189.835 127.204 189.75 127.477 189.647L127.975 189.459 127.975 188.287 127.975 187.114 127.477 186.926C127.204 186.823 124.466 186.738 121.393 186.738L115.807 186.738 115.293 187.298C114.813 187.819 114.789 188.81 115.239 189.526 115.345 189.696 116.135 189.835 116.995 189.835L118.558 189.835 118.47 194.039 118.383 198.243 116.699 198.826C112.932 200.132 110.433 202.385 108.639 206.091L107.591 208.258 107.378 210.448C106.979 214.556 108.214 218.211 111.024 221.238 114.715 225.214 120.359 226.703 125.662 225.101ZM119.1 223.885C116.793 223.502 114.294 222.22 112.595 220.548 106.888 214.929 107.858 205.994 114.638 201.724 115.529 201.163 116.665 200.607 117.163 200.489L118.068 200.274 116.63 201.535C114.806 203.134 113.347 205.818 112.846 208.497L112.455 210.586 112.813 212.482C113.566 216.468 115.929 219.478 119.781 221.358L122.123 222.501 124.719 222.501 127.315 222.501 126.301 223.014C125.304 223.519 122.042 224.239 121.077 224.168 120.806 224.148 119.916 224.021 119.1 223.885ZM104.075 208.086 105.685 207.019 106.766 205.132C107.361 204.094 107.847 203.03 107.847 202.769 107.847 202.465 107.344 202.169 106.45 201.947 103.193 201.14 100.492 201.884 98.7299 204.074 97.6905 205.366 96.8401 207.423 96.8401 208.644L96.8401 209.417 99.6529 209.285 102.466 209.153ZM97.7835 207.784C97.7835 205.794 99.986 203.03 101.996 202.497 103.226 202.171 105.961 202.367 105.96 202.781 105.959 202.898 105.193 203.388 104.256 203.87 103.32 204.352 102.294 205.031 101.977 205.38L101.4 206.015 103.357 205.046C105.267 204.101 106.589 203.812 106.589 204.341 106.589 205.057 104.6 207.168 103.373 207.752L101.988 208.413 99.8857 208.413 97.7835 208.413ZM109.692 201.089C110.711 199.872 111.167 198.133 110.845 196.69 110.601 195.598 108.55 193.16 108.103 193.431 107.44 193.835 106.281 196.838 106.278 198.162L106.274 199.523 107.139 200.871C107.614 201.612 108.17 202.219 108.374 202.22 108.577 202.22 109.17 201.711 109.691 201.089ZM107.388 199.767 106.834 198.712 106.981 197.426C107.062 196.72 107.383 195.758 107.695 195.289L108.263 194.436 109.179 195.338 110.095 196.24 110.246 197.45 110.396 198.659 109.673 199.743 108.95 200.827 108.764 199.124 108.579 197.421 108.505 198.504C108.465 199.101 108.322 199.866 108.187 200.205L107.943 200.823ZM125.852 184.38C126.155 184.275 126.402 183.938 126.402 183.632 126.402 183.325 126.579 183.016 126.795 182.944L127.189 182.814 126.768 182.313C126.537 182.037 126.439 181.666 126.551 181.488 126.664 181.308 126.495 181.165 126.169 181.165 125.848 181.165 125.421 181.004 125.221 180.807L124.857 180.448 124.405 180.817C124.156 181.02 123.761 181.147 123.526 181.098 123.292 181.05 123.141 181.199 123.19 181.43 123.239 181.661 123.107 182.054 122.896 182.305L122.512 182.76 122.901 182.997C123.115 183.128 123.248 183.427 123.195 183.663 123.141 183.908 123.403 184.137 123.808 184.198 124.197 184.256 124.515 184.446 124.515 184.618 124.515 184.791 124.692 184.851 124.909 184.752 125.125 184.653 125.549 184.485 125.852 184.38ZM124.009 183.199C123.695 182.396 124.134 181.732 124.907 181.84L125.616 181.939 125.616 182.713 125.616 183.487 124.907 183.586C124.482 183.646 124.122 183.491 124.009 183.199ZM119.282 184.108C119.383 183.848 119.777 183.679 120.181 183.721L120.899 183.797 120.822 183.09C120.779 182.692 120.951 182.305 121.215 182.205 121.474 182.108 121.685 181.848 121.685 181.629 121.685 181.41 121.474 181.151 121.215 181.054 120.951 180.954 120.779 180.567 120.822 180.169L120.899 179.462 120.034 179.551 119.169 179.64 119.169 179.164C119.169 178.548 118.349 178.545 118.109 179.16L117.925 179.632 117.086 179.425 116.248 179.218 116.458 180.043 116.669 180.869 116.189 181.05C115.575 181.282 115.569 181.975 116.179 182.205 116.443 182.305 116.615 182.692 116.572 183.09L116.495 183.797 117.214 183.721C117.618 183.679 118.011 183.848 118.112 184.109 118.211 184.363 118.474 184.571 118.697 184.571 118.919 184.571 119.182 184.363 119.282 184.109ZM117.776 182.536C117.095 181.865 117.157 180.943 117.911 180.546L118.54 180.214 119.169 180.546C119.515 180.728 119.815 181.046 119.835 181.253 119.993 182.843 118.826 183.57 117.776 182.536ZM123.707 178.821C124.372 178.166 124.329 177.539 123.594 177.151L122.987 176.831 122.493 177.317C122.222 177.585 121.999 177.923 121.999 178.069 121.999 178.325 122.872 179.307 123.1 179.307 123.162 179.307 123.435 179.088 123.707 178.821ZM122.786 178.378C122.66 178.178 122.699 177.875 122.872 177.705L123.186 177.395 123.415 177.759C123.54 177.959 123.501 178.262 123.328 178.432L123.014 178.742ZM118.855 175.878 118.855 175.236 118.33 175.337C118.042 175.392 117.748 175.646 117.677 175.901L117.549 176.366 117.882 175.901 118.216 175.437 118.221 175.978C118.223 176.277 118.367 176.52 118.54 176.52 118.713 176.52 118.855 176.231 118.855 175.878Z" id="path43129" stroke-width="0.312054" fill="#FFFFFF"/></g></svg>