<svg width="267.604" height="279.916" xmlns="http://www.w3.org/2000/svg" xmlns:xlink="http://www.w3.org/1999/xlink" id="svg43005" xml:space="preserve" overflow="hidden"><defs id="defs43009"></defs><g id="g43011" transform="matrix(3.77953 0 0 3.77953 -322.839 -588.02)"><path d="M95.9824 229.523C95.528 229.354 95.2617 229.13 95.0448 228.733L94.8594 228.394 94.8582 227.936C94.8575 227.684 94.9092 227.346 94.9732 227.186 95.1279 226.799 100.849 220.821 101.22 220.659 101.371 220.593 101.693 220.539 101.935 220.539L102.375 220.539 103.106 219.772 103.836 219.005 103.372 218.361C101.544 215.827 100.997 212.192 101.971 209.039 103.095 205.397 106.067 202.713 109.762 202.002L110.509 201.858 111.796 201.902 113.083 201.947 113.872 202.163C115.651 202.651 117.138 203.545 118.447 204.91 119.609 206.122 120.303 207.264 120.835 208.841 121.496 210.801 121.572 212.937 121.052 214.986 120.798 215.988 120.016 217.677 119.436 218.475 116.773 222.136 112.235 223.59 108.161 222.088 107.059 221.682 106.344 221.27 105.102 220.323L104.989 220.237 104.239 221.018 103.489 221.798 103.539 222.035C103.566 222.165 103.531 222.478 103.461 222.729L103.333 223.186 100.32 226.321 97.3064 229.455 96.9167 229.554C96.4356 229.676 96.3886 229.674 95.9826 229.523ZM113.116 220.758C115.905 220.145 118.286 217.996 119.224 215.246 119.985 213.017 119.887 210.702 118.943 208.596 118.499 207.606 118.016 206.888 117.284 206.13 116.209 205.016 114.842 204.209 113.374 203.822L112.751 203.658 111.381 203.661 110.011 203.664 109.356 203.859C106.207 204.802 103.953 207.295 103.31 210.549L103.144 211.384 103.184 212.599 103.223 213.814 103.444 214.595C104.551 218.509 107.988 221.119 111.779 220.924 112.204 220.902 112.805 220.828 113.115 220.76ZM110.081 220.237C108.524 219.942 107.262 219.259 106.078 218.071 104.099 216.085 103.311 213.391 103.874 210.533 104.168 209.038 104.887 207.697 106.024 206.522 107.308 205.195 108.828 204.429 110.594 204.22L111.427 204.121 112.235 204.215C113.264 204.335 114.387 204.713 115.278 205.24 116.082 205.715 117.189 206.761 117.737 207.564 118.218 208.269 118.727 209.397 118.951 210.254L119.132 210.948 119.131 212.294 119.129 213.639 118.905 214.42C118.158 217.022 116.389 219.012 114.051 219.881 112.812 220.341 111.33 220.474 110.08 220.237ZM112.318 217.375C114.184 217.027 115.69 215.592 116.239 213.639 116.418 213.002 116.443 211.742 116.29 211.079 116.229 210.816 116.044 210.308 115.879 209.95L115.577 209.299 114.953 208.637 114.329 207.976 113.74 207.667C112.96 207.258 112.29 207.086 111.477 207.086 110.576 207.086 110.059 207.21 109.23 207.623L108.533 207.971 107.931 208.601 107.329 209.23 106.996 209.959C106.813 210.36 106.622 210.895 106.572 211.148 106.442 211.811 106.461 212.922 106.613 213.54 107.014 215.162 108.309 216.649 109.761 217.154 110.774 217.506 111.347 217.556 112.318 217.375ZM110.407 216.769C108.949 216.4 107.756 215.254 107.246 213.735L107.04 213.118 107.033 212.38C107.029 211.975 107.076 211.428 107.138 211.165 107.412 209.986 108.294 208.784 109.292 208.228 110.076 207.792 110.576 207.662 111.463 207.664L112.252 207.666 112.842 207.884C114.008 208.314 114.89 209.13 115.404 210.254 116.044 211.652 116.013 213.083 115.312 214.476L115.013 215.072 114.48 215.593C113.36 216.688 111.831 217.13 110.407 216.769ZM113.117 213.995 114.643 212.398 114.586 211.948C114.507 211.327 114.253 210.655 113.961 210.296L113.716 209.994 111.496 212.309 109.275 214.625 109.387 214.766C109.676 215.13 110.729 215.572 111.34 215.586L111.59 215.592 113.117 213.995ZM111.004 211.776C112.189 210.537 113.142 209.507 113.121 209.488 113.038 209.411 112.683 209.238 112.371 209.123L112.042 209.002 110.18 210.954 108.318 212.906 108.428 213.229C108.588 213.697 108.743 214.03 108.8 214.03 108.827 214.03 109.819 213.016 111.004 211.776ZM118.605 229.601C114.027 229.435 109.845 229.02 105.07 228.256 103.3 227.973 100.238 227.408 100.187 227.355 100.169 227.337 100.955 226.485 101.933 225.463 102.984 224.364 103.774 223.466 103.865 223.265 103.951 223.079 104.036 222.711 104.056 222.449L104.091 221.971 104.549 221.481 105.007 220.991 105.7 221.463C108.36 223.275 111.749 223.735 114.744 222.689 118.442 221.399 121.16 218.069 121.804 214.041L121.948 213.141 121.904 211.828 121.861 210.514 121.654 209.69C121.111 207.521 120.267 205.978 118.795 204.458 117.907 203.541 117.161 202.992 115.989 202.392 113.453 201.093 110.542 200.925 107.893 201.925 102.058 204.128 99.2744 211.156 101.948 216.937 102.19 217.462 102.542 218.126 102.729 218.413L103.069 218.934 102.607 219.423 102.146 219.912 101.718 219.949C101.482 219.969 101.117 220.076 100.907 220.185L100.525 220.385 97.7536 223.283C96.2292 224.877 94.9225 226.181 94.8499 226.181 94.6446 226.181 90.2528 225.024 88.5871 224.531 86.2695 223.846 85.4733 223.577 85.4733 223.482 85.4733 223.314 86.6529 220.66 87.3796 219.194 90.8665 212.157 95.496 205.623 101.246 199.62 106.785 193.839 112.679 189.361 117.318 187.409 119.476 186.502 120.947 186.326 122.597 186.779L122.893 186.861 122.901 188.489C122.913 191.096 123.209 193.426 123.883 196.237 124.27 197.85 125.022 200.296 125.314 200.89 125.541 201.352 126.218 201.985 126.675 202.163 127.225 202.377 138.692 204.742 139.179 204.742 139.415 204.742 139.824 204.658 140.088 204.555L140.569 204.367 141.238 203.665C141.606 203.279 142.092 202.739 142.318 202.466L142.728 201.969 143.739 203.16C148.176 208.391 151.891 214.08 154.663 219.888 155.325 221.276 156.221 223.336 156.221 223.47 156.221 223.634 153.051 224.599 149.31 225.573 141.147 227.699 133.131 229.028 125.788 229.474 124.232 229.568 119.845 229.646 118.605 229.601ZM131.974 218.054C132.571 217.772 133.158 217.118 133.39 216.476L133.568 215.982 133.533 215.288 133.497 214.594 133.311 214.216C133.031 213.649 132.51 213.107 131.986 212.838L131.517 212.597 130.812 212.597 130.106 212.597 129.637 212.838C129.113 213.107 128.592 213.649 128.312 214.216L128.126 214.594 128.09 215.288 128.055 215.982 128.233 216.476C128.547 217.344 129.386 218.093 130.259 218.283 130.763 218.392 131.453 218.3 131.974 218.054ZM130.138 217.647C129.614 217.443 129.253 217.16 128.995 216.752 127.997 215.178 129.016 213.165 130.812 213.165 131.698 213.165 132.383 213.598 132.782 214.41L133 214.854 133.001 215.418 133.001 215.982 132.834 216.374C132.631 216.848 132.24 217.271 131.781 217.516 131.355 217.743 130.547 217.807 130.138 217.647ZM131.665 216.306 132.389 215.545 132.387 215.33C132.384 215.084 132.098 214.377 132 214.377 131.964 214.377 131.439 214.893 130.834 215.525L129.733 216.673 130.044 216.87C130.215 216.978 130.486 217.067 130.647 217.067L130.94 217.067 131.664 216.306ZM130.595 215.167 131.664 214.048 131.492 213.952C131.398 213.899 131.272 213.856 131.213 213.856 131.154 213.856 130.688 214.291 130.178 214.822L129.25 215.789 129.333 216.038C129.379 216.174 129.441 216.286 129.472 216.286 129.502 216.286 130.008 215.783 130.595 215.167ZM118.748 199.506C119.294 199.214 119.704 198.787 119.996 198.208L120.224 197.755 120.224 196.931 120.224 196.106 119.996 195.654C119.706 195.079 119.298 194.652 118.748 194.349L118.315 194.111 117.526 194.111 116.737 194.111 116.304 194.349C115.754 194.652 115.345 195.079 115.056 195.654L114.828 196.106 114.828 196.931 114.828 197.755 115.056 198.208C115.334 198.76 115.753 199.211 116.22 199.461 116.773 199.756 116.943 199.792 117.65 199.764L118.315 199.738ZM116.93 199.153C116.173 198.941 115.527 198.217 115.366 197.402L115.272 196.931 115.366 196.46C115.538 195.591 116.244 194.853 117.075 194.673L117.526 194.575 117.976 194.673C118.807 194.853 119.513 195.591 119.686 196.46L119.779 196.931 119.686 197.402C119.517 198.253 118.814 199.003 118.016 199.181 117.511 199.294 117.423 199.292 116.93 199.153ZM118.391 197.806 119.127 197.033 119.082 196.682C119.057 196.489 118.954 196.209 118.851 196.059L118.665 195.786 117.559 196.939 116.453 198.093 116.553 198.22C116.696 198.399 117.109 198.573 117.403 198.577L117.654 198.581 118.39 197.807ZM118.356 195.536C118.356 195.508 118.229 195.444 118.074 195.394L117.793 195.304 116.875 196.269 115.958 197.235 116.08 197.534 116.203 197.834 117.28 196.711C117.872 196.093 118.356 195.565 118.356 195.536ZM138.866 204.157C137.939 204.016 126.908 201.664 126.736 201.571 126.031 201.19 125.795 200.786 125.211 198.971 124.464 196.645 123.841 193.71 123.573 191.246 123.444 190.065 123.44 186.628 123.567 185.691L123.66 184.997 123.118 184.432C120.818 182.04 119.627 177.295 120.474 173.899 121.167 171.116 123.355 168.839 126.037 168.109 127.32 167.76 129.039 167.798 130.209 168.202 130.47 168.291 130.689 168.358 130.696 168.348 130.704 168.339 130.736 168.054 130.768 167.714L130.826 167.096 130.629 167.045C130.521 167.016 130.327 166.877 130.197 166.736L129.962 166.479 129.921 166.096 129.879 165.713 130.017 165.435C130.183 165.099 130.598 164.818 130.928 164.817 131.355 164.816 148.782 168.469 148.974 168.599 149.23 168.772 149.41 169.081 149.466 169.44L149.513 169.741 149.37 170.055C149.197 170.437 148.785 170.719 148.4 170.719L148.113 170.719 147.963 171.218C147.88 171.492 147.795 171.766 147.773 171.825L147.733 171.934 148.023 171.934C148.919 171.934 150.586 172.476 151.511 173.068 153.243 174.175 154.516 175.983 155.016 178.042L155.224 178.9 155.224 179.968C155.224 181.491 154.988 182.538 154.299 184.06 153.563 185.689 152.08 187.618 150.777 188.643 150.129 189.153 149.004 189.811 148.489 189.981L148.189 190.08 148.043 190.663C147.792 191.66 147.094 193.536 146.502 194.804 145.217 197.552 143.296 200.477 141.117 203L140.486 203.73 140.07 203.923C139.63 204.127 139.208 204.209 138.866 204.157ZM149.277 186.917C149.892 186.458 150.895 185.376 151.419 184.606 153.406 181.686 153.565 178.848 151.876 176.472 151.411 175.818 150.73 175.24 149.952 174.839 149.125 174.413 148.435 174.249 147.47 174.25L146.65 174.251 146.496 174.46C146.264 174.772 146.001 175.549 145.9 176.215L145.81 176.807 145.896 177.43C146.006 178.218 146.286 178.944 146.785 179.727 148.013 181.659 148.594 183.669 148.613 186.059 148.619 186.739 148.656 187.296 148.696 187.296 148.736 187.296 148.997 187.126 149.277 186.917ZM124.414 181.894C124.607 181.22 125.243 179.9 125.788 179.044 126.472 177.971 127.575 176.821 128.701 176.008 129.955 175.103 130.554 174.294 130.851 173.102 130.983 172.572 131.022 171.274 130.912 171.092 130.818 170.938 129.845 170.484 129.279 170.332 128.646 170.161 127.359 170.161 126.66 170.334 124.615 170.836 122.965 172.658 122.542 174.883L122.403 175.618 122.451 176.705C122.52 178.237 122.793 179.432 123.377 180.754 123.656 181.387 124.168 182.263 124.258 182.263 124.286 182.263 124.356 182.097 124.414 181.894ZM98.8805 200.21C95.9766 197.991 92.9015 194.175 90.6408 189.986L90.3822 189.506 94.4361 187.143C96.6657 185.843 98.5246 184.78 98.5669 184.78 98.6092 184.78 99.2396 185.9 99.9679 187.27 100.696 188.64 101.431 189.987 101.602 190.265 102.038 190.975 102.689 191.595 103.368 191.947L103.949 192.248 104.499 192.301 105.049 192.354 105.514 192.201C106.328 191.934 106.923 191.255 107.192 190.289L107.331 189.789 107.293 188.998C107.27 188.511 107.191 188.021 107.086 187.72 106.959 187.354 105.32 184.188 103.944 181.65 103.93 181.624 104.224 181.427 104.598 181.212 104.972 180.997 106.797 179.935 108.653 178.852 110.51 177.768 112.069 176.881 112.118 176.881 112.166 176.881 112.61 177.731 113.104 178.769 114.416 181.526 115.177 183.622 115.752 186.067 115.914 186.751 116.033 187.323 116.017 187.337 116.002 187.352 115.672 187.529 115.284 187.731 111.038 189.943 106.052 193.88 101.248 198.813L99.4583 200.651ZM104.074 191.646C103.343 191.398 102.536 190.729 102.089 190 101.452 188.963 97.764 181.936 97.7635 181.759 97.7632 181.649 97.8153 181.454 97.8794 181.325L97.9959 181.091 99.6024 180.149 101.209 179.207 101.52 179.195 101.831 179.184 102.03 179.4C102.242 179.629 106.127 186.853 106.453 187.623 106.56 187.874 106.689 188.348 106.741 188.676L106.835 189.273 106.742 189.822C106.629 190.498 106.302 191.07 105.831 191.415L105.475 191.677 104.878 191.697C104.55 191.708 104.188 191.685 104.074 191.646ZM95.8946 176.69C94.7985 174.63 93.7453 172.648 93.5542 172.285L93.2067 171.626 94.6047 170.81C95.3736 170.361 96.0323 169.996 96.0685 169.999 96.1418 170.005 96.4115 170.499 98.8381 175.059 99.7654 176.801 100.595 178.35 100.682 178.501L100.84 178.776 99.4012 179.608C98.6097 180.066 97.9453 180.439 97.9248 180.437 97.9043 180.435 96.9907 178.75 95.8946 176.69ZM92.134 171.132C91.9237 171.026 91.9853 171.138 88.1862 164.021L85.5603 159.103 85.4697 158.683C85.2249 157.55 85.8685 156.26 86.9184 155.78L87.3418 155.586 87.8907 155.583 88.4396 155.58 88.9914 155.864C89.3177 156.032 89.6446 156.28 89.7914 156.471 89.9279 156.649 91.429 159.39 93.1272 162.563L96.2149 168.332 96.2209 168.698 96.2269 169.064 96.0608 169.233C95.7732 169.524 92.7446 171.239 92.5292 171.233 92.4164 171.229 92.2387 171.184 92.1342 171.132Z" id="path43003" stroke-width="0.0848952" fill="#FFFFFF"/></g></svg>