<svg width="263.946" height="259.477" xmlns="http://www.w3.org/2000/svg" xmlns:xlink="http://www.w3.org/1999/xlink" id="svg42504" xml:space="preserve" overflow="hidden"><defs id="defs42508"></defs><g id="g42510" transform="matrix(3.77953 0 0 3.77953 -328.15 -632.756)"><path d="M115.626 235.67C110.923 234.832 105.824 232.799 101.845 230.175 100.832 229.507 98.5742 227.548 96.8282 225.823L93.6535 222.685 91.9688 220C90.002 216.866 88.6393 213.726 87.5808 209.889L86.823 207.142 86.8295 201.772 86.836 196.403 87.5771 193.694C89.3987 187.036 92.0099 182.448 96.6337 177.78 107.272 167.041 123.769 164.348 137.472 171.113 144.419 174.543 150.626 180.892 153.65 187.663 155.968 192.854 156.847 197.465 156.626 203.277L156.478 207.142 155.747 209.889C154.747 213.646 153.373 216.838 151.456 219.859 146.099 228.303 137.528 233.966 127.502 235.687 124.488 236.205 118.576 236.196 115.626 235.67ZM134.933 232.322 136.526 231.629 137.003 230.455C137.266 229.81 137.558 228.551 137.653 227.659L137.825 226.037 137.368 224.488C137.116 223.637 136.174 221.738 135.274 220.269 134.374 218.8 133.242 216.771 132.757 215.761L131.876 213.924 131.873 211.381 131.87 208.837 132.642 207.397C133.751 205.325 135.362 203.592 139.863 199.624 144.182 195.816 146.083 193.591 146.861 191.433 147.137 190.669 147.429 190.046 147.511 190.049 147.592 190.052 148.283 190.911 149.046 191.957 150.994 194.627 152.577 197.986 153.408 201.209L154.118 203.964 154.136 206.542 154.154 209.12 154.46 208.413C154.627 208.025 154.828 205.672 154.905 203.185L155.045 198.663 154.57 196.12C152.29 183.929 143.702 174.201 131.876 170.412 128.919 169.464 125.035 168.851 121.983 168.85L119.562 168.849 118.251 169.922C116.268 171.547 115.155 172.269 112.654 173.555L110.37 174.73 111.359 175.14C119.05 178.328 122.964 180.646 123.892 182.561L124.338 183.481 124.15 184.463C124.048 185.003 123.707 185.673 123.395 185.951 122.528 186.723 122.699 186.935 124.19 186.938 127.559 186.943 131.601 188.098 132.456 189.299 133.379 190.597 132.473 193.151 130.608 194.502 129.157 195.553 125.987 197.012 123.687 197.687 122.503 198.035 121.488 198.358 121.431 198.405 121.374 198.451 121.601 198.866 121.934 199.327 123.434 201.402 122.11 202.965 117.575 204.474L115.219 205.257 115.793 205.457C116.109 205.567 117.465 206.167 118.807 206.791L121.247 207.925 123.7 210.36C125.049 211.698 126.911 213.811 127.838 215.055 128.765 216.298 130.598 218.41 131.912 219.748L134.301 222.18 135.238 224.128 136.176 226.076 136.176 227.542 136.176 229.007 135.336 229.87C133.821 231.426 131.872 231.378 130.03 229.741 128.549 228.424 127.782 226.545 127.42 223.354 126.551 215.691 123.741 210.617 119.063 208.263 118.336 207.896 116.541 207.265 115.075 206.859 111.961 205.997 109.843 205.007 109.21 204.117 107.793 202.126 109.762 200.254 114.791 198.81 117.982 197.894 117.916 197.936 116.771 197.533 113.974 196.548 112.204 195.183 112.204 194.011 112.204 192.682 113.26 191.571 116.337 189.664L118.089 188.577 117.085 188.757C113.987 189.312 107.785 189.779 105.601 189.622 100.849 189.279 98.5755 188.225 97.6953 185.956 96.4293 182.693 98.9919 179.552 105.679 176.171L108.58 174.704 106.93 173.883 105.281 173.062 104.221 173.693C97.8753 177.474 92.452 184.25 89.9869 191.479 87.8337 197.793 87.8335 206.022 89.9864 212.352 92.5417 219.864 97.7466 226.268 104.646 230.387 106.409 231.44 109.34 232.806 109.499 232.649 109.55 232.598 108.601 231.989 107.389 231.295 105.969 230.482 104.206 229.077 102.436 227.348L99.6872 224.663 98.5103 222.403C97.8629 221.159 97.0585 219.259 96.7227 218.18 96.1634 216.382 95.2703 211.749 95.2676 210.631L95.2665 210.163 96.7145 210.705C97.511 211.003 99.8687 211.441 101.954 211.678 111.815 212.799 114.851 213.479 118.614 215.413 122.375 217.345 123.907 219.418 125.244 224.381 126.141 227.709 126.803 229.077 128.234 230.554 129.595 231.959 131.98 233.333 132.748 233.154 133.074 233.078 134.057 232.704 134.934 232.323ZM145.039 222.473C146.54 220.159 147.742 217.665 148.671 214.934L149.524 212.428 149.522 210.209C149.52 207.265 149.14 206.06 147.74 204.565L146.573 203.319 145.024 202.876 143.474 202.432 142.265 202.631C138.653 203.223 135.862 206.189 135.543 209.776L135.4 211.381 136.02 212.997C136.361 213.886 137.181 215.199 137.843 215.915L139.046 217.215 140.246 217.371 141.446 217.526 142.79 216.885 144.135 216.245 144.951 214.978C145.4 214.281 145.915 213.059 146.097 212.262L146.426 210.812 146.104 209.634C145.912 208.932 145.426 208.16 144.903 207.727L144.025 207 142.794 207 141.563 207 140.801 207.59C139.757 208.399 139.189 209.58 139.189 210.943L139.189 212.087 139.763 212.652C140.352 213.232 141.614 213.417 141.898 212.965 141.985 212.826 141.756 212.639 141.39 212.548 139.983 212.201 139.88 210.369 141.189 208.989 142.185 207.939 142.895 207.908 144.048 208.862L144.931 209.594 144.931 210.893C144.931 213.3 143.306 215.545 141.295 215.916L140.481 216.066 139.56 215.501C139.053 215.19 138.345 214.39 137.987 213.723L137.336 212.511 137.329 210.371 137.322 208.231 138.087 207.093C139.037 205.681 141.057 204.682 143.064 204.633 145.121 204.583 146.247 205.146 147.166 206.686L147.944 207.989 147.929 210.816 147.914 213.642 147.125 215.883C146.69 217.115 145.696 219.375 144.915 220.905 143.369 223.934 143.36 223.957 143.785 223.957 143.945 223.957 144.509 223.289 145.038 222.473ZM115.939 204.496C117.86 203.956 120.974 202.54 120.743 202.313 120.627 202.198 113.808 203.687 112.806 204.046L112.403 204.19 112.949 204.597C113.653 205.122 113.726 205.119 115.939 204.496ZM116.654 202.187C121.36 201.382 121.39 201.375 121.39 201.055 121.39 200.899 121.1 200.835 120.744 200.913 120.003 201.074 112.248 202.196 111.876 202.196 111.74 202.196 111.63 202.397 111.63 202.642L111.63 203.089 112.419 202.932C112.853 202.846 114.759 202.511 116.654 202.187ZM117.213 200.63C119.258 200.393 120.991 200.14 121.063 200.069 121.303 199.832 120.163 198.805 119.66 198.805 118.622 198.805 113.498 200.236 113.087 200.64L112.655 201.066 113.075 201.064C113.306 201.063 115.169 200.867 117.213 200.63ZM123.209 196.664C125.23 195.999 128.28 194.35 128.28 193.922 128.28 193.789 128.054 193.741 127.778 193.817 127.502 193.892 124.536 194.239 121.187 194.589 117.52 194.971 115.167 195.332 115.27 195.495 115.363 195.645 116.359 196.186 117.482 196.699L119.524 197.631 120.386 197.47C120.859 197.381 122.13 197.018 123.209 196.664ZM121.677 193.408C123.809 193.107 126.457 192.697 127.563 192.497L129.572 192.133 129.667 191.331 129.762 190.528 128.806 190.695C128.28 190.788 125.654 191.303 122.969 191.841 120.285 192.379 117.152 192.969 116.008 193.153L113.926 193.486 113.926 193.907 113.926 194.328 115.864 194.141C116.93 194.038 119.546 193.708 121.677 193.408ZM128.567 189.298 128.998 189.126 127.75 188.574 126.503 188.021 123.731 188.006 120.96 187.991 118.232 189.598C116.732 190.482 115.265 191.439 114.971 191.724L114.436 192.243 121.286 190.856C125.054 190.093 128.331 189.392 128.567 189.298ZM116.198 187.354C118.79 187.119 121.069 186.798 121.263 186.639 121.675 186.303 122.386 184.713 122.205 184.534 122.136 184.467 119.051 184.781 115.348 185.233 111.645 185.685 107.61 186.144 106.382 186.252 103.191 186.534 103.24 186.826 106.606 187.588 107.805 187.859 111.657 187.765 116.198 187.354ZM111.486 184.222C118.186 183.65 121.759 183.173 121.866 182.837 121.915 182.682 121.85 182.392 121.722 182.193L121.489 181.831 118.928 182.121C117.519 182.281 113.137 182.549 109.189 182.717 105.242 182.884 101.851 183.072 101.654 183.133 101.264 183.253 101.161 184.447 101.51 184.795 101.732 185.016 103.151 184.935 111.486 184.222ZM119.919 180.565C120.013 180.472 119.769 180.149 119.377 179.847L118.663 179.297 111.027 179.372 103.391 179.446 102.917 179.834C102.656 180.047 102.443 180.329 102.443 180.46 102.443 180.591 103.832 180.749 105.529 180.811 109.531 180.956 119.698 180.782 119.919 180.565ZM116.065 177.909C115.915 177.763 114.39 177.066 112.677 176.36L109.562 175.077 108.945 175.396C108.606 175.572 107.618 176.174 106.749 176.733L105.17 177.751 108.185 177.907C113.595 178.188 116.353 178.189 116.065 177.909ZM111.09 173.466C111.862 173.052 112.439 172.659 112.372 172.593 112.258 172.481 109.561 172.941 108.38 173.274L107.858 173.421 108.38 173.81C109.122 174.364 109.504 174.315 111.09 173.466ZM111.382 171.543 115.469 170.564 116.053 169.989 116.638 169.414 116.18 169.414C114.577 169.414 107.036 171.848 107.036 172.365 107.036 172.59 106.913 172.614 111.382 171.543Z" id="path42502" stroke-width="0.284835" fill="#FFFFFF"/></g></svg>