<svg width="252.081" height="298.802" xmlns="http://www.w3.org/2000/svg" xmlns:xlink="http://www.w3.org/1999/xlink" id="svg42588" xml:space="preserve" overflow="hidden"><defs id="defs42592"></defs><g id="g42594" transform="matrix(3.77953 0 0 3.77953 -340.069 -595.426)"><path d="M100.756 236.252C97.3153 235.252 94.4189 232.077 93.6466 228.459 93.5108 227.823 93.4271 221.04 93.4238 210.416L93.4189 193.392 92.3266 193.392 91.2343 193.392 90.6054 192.713 89.9765 192.034 89.9765 189.674 89.9765 187.314 90.6054 186.635 91.2343 185.955 97.1182 185.955 103.002 185.955 104.016 183.335C105.606 179.228 107.944 175.203 110.789 171.675L111.916 170.278 112.368 168.762C113.163 166.095 114.258 164.123 116 162.223L117.623 160.453 119.208 159.592C121.189 158.515 123.443 157.884 125.994 157.69L127.97 157.54 128.337 157.936 128.704 158.333 128.568 158.955C128.252 160.409 127.142 163.165 126.345 164.481 124.76 167.094 122.106 169.513 119.336 170.87 117.927 171.56 114.972 172.476 114.154 172.476L113.671 172.476 112.458 173.959C110.514 176.336 108.98 178.869 107.386 182.337 106.567 184.117 105.898 185.66 105.898 185.765 105.898 185.87 108.519 185.955 111.723 185.955L117.549 185.955 118.178 186.635 118.807 187.314 118.807 189.674 118.807 192.034 118.178 192.713 117.549 193.392 116.457 193.392 115.364 193.392 115.364 205.133 115.364 216.873 120.982 216.811 126.6 216.749 128.4 213.379C129.39 211.526 130.398 209.834 130.64 209.619L131.08 209.229 134.854 209.248 138.628 209.266 140.245 206.223 141.862 203.18 140.252 200.204 138.643 197.227 132.342 197.165 126.041 197.104 125.651 196.723C125.15 196.233 125.15 195.199 125.651 194.71L126.041 194.329 132.347 194.267 138.653 194.206 140.443 190.837C141.428 188.984 142.438 187.289 142.689 187.07L143.145 186.671 147.235 186.674C149.485 186.676 151.549 186.769 151.822 186.881L152.318 187.085 154.495 191.125C155.693 193.347 156.673 195.402 156.673 195.691 156.673 195.979 155.952 197.55 155.071 199.181 154.19 200.811 153.36 202.405 153.227 202.721L152.984 203.297 154.828 206.77C155.842 208.679 156.672 210.448 156.672 210.7 156.673 211.321 152.631 218.896 152.073 219.318L151.629 219.654 147.858 219.656 144.087 219.658 142.366 222.956C141.419 224.77 140.475 226.442 140.268 226.673L139.891 227.092 135.373 227.092 130.855 227.092 130.474 226.681C130.265 226.454 129.321 224.783 128.376 222.967L126.66 219.665 121.012 219.66 115.364 219.655 115.364 223.441 115.364 227.227 115.033 228.599C114.113 232.414 111.043 235.557 107.447 236.365 105.864 236.72 102.151 236.658 100.757 236.253ZM140.253 221.207 141.863 218.229 140.303 215.281C139.445 213.66 138.721 212.301 138.695 212.262 138.625 212.157 132.142 212.14 132.062 212.245 131.91 212.441 128.918 218.096 128.918 218.187 128.918 218.287 131.306 222.837 131.856 223.785L132.163 224.314 135.403 224.25 138.643 224.186ZM152.246 213.75 153.897 210.635 153.273 209.509C152.93 208.889 152.184 207.517 151.615 206.459L150.581 204.536 147.345 204.6 144.11 204.664 142.974 206.755C142.35 207.906 141.631 209.28 141.376 209.809L140.914 210.772 142.151 213.063C142.831 214.323 143.577 215.694 143.809 216.11L144.229 216.865 147.412 216.865 150.595 216.865ZM100.786 208.629C102.187 208.204 105.402 208.125 106.536 208.489 106.947 208.62 107.866 209.118 108.58 209.595L109.878 210.462 111.33 210.552 112.782 210.643 112.782 202.017 112.782 193.392 104.391 193.392 96.0004 193.392 96.0004 203.17 96.0004 212.948 97.7753 210.976 99.5503 209.004ZM152.286 198.678 153.883 195.713 152.309 192.751 150.736 189.79 147.411 189.73 144.086 189.67 142.58 192.499C141.752 194.055 141.041 195.418 141.001 195.528 140.96 195.638 141.638 197.083 142.507 198.741L144.086 201.754 147.388 201.698 150.689 201.643ZM122.141 179.923C120.434 179.629 119.237 179.223 117.844 178.463 116.545 177.756 113.971 175.762 114.132 175.588 114.18 175.537 114.791 175.381 115.49 175.242 118.249 174.692 121.677 173.144 123.831 171.474L124.875 170.664 126.09 171.259C127.723 172.058 129.37 173.197 131.135 174.748L132.598 176.034 132.533 176.637 132.468 177.24 130.711 178.185C127.997 179.645 124.568 180.34 122.141 179.923Z" id="path42586" stroke-width="0.223611" fill="#FFFFFF"/></g></svg>