<svg width="221.941" height="243.492" xmlns="http://www.w3.org/2000/svg" xmlns:xlink="http://www.w3.org/1999/xlink" id="svg43033" xml:space="preserve" overflow="hidden"><defs id="defs43037"></defs><g id="g43039" transform="matrix(3.77953 0 0 3.77953 -345.02 -646.075)"><path d="M119.543 235.003C119.439 234.783 119.018 233.854 118.607 232.939 118.197 232.025 117.741 231.017 117.595 230.7L117.328 230.124 117.298 229.161C117.281 228.631 117.232 228.178 117.19 228.154 117.085 228.096 116.308 229.249 116.122 229.74L115.972 230.133 115.54 230.166 115.109 230.199 114.823 229.958 114.538 229.717 114.59 229.042 114.643 228.366 115.051 227.639C115.276 227.239 115.593 226.75 115.756 226.552L116.053 226.193 115.909 226.124C115.83 226.086 115.481 225.995 115.135 225.923 112.703 225.414 110.714 224.289 109.957 222.993L109.696 222.546 109.694 221.713 109.692 220.879 110.086 220.154 110.479 219.428 111.403 218.592C111.912 218.132 112.701 217.547 113.157 217.293 113.614 217.038 113.987 216.796 113.988 216.754 113.988 216.713 113.77 216.577 113.502 216.454 112.577 216.028 111.099 215.074 110.258 214.362 107.256 211.819 107.284 208.899 110.342 205.68 110.52 205.492 110.666 205.303 110.666 205.259 110.666 205.215 110.292 205.072 109.836 204.94 106.18 203.891 103.389 201.753 102.359 199.214L102.042 198.435 101.987 197.285 101.932 196.135 102.175 195.262C102.704 193.365 103.833 191.744 106.076 189.66 106.831 188.959 107.693 188.56 108.927 188.34 110.292 188.098 111.72 188.328 112.422 188.903 112.99 189.369 113.255 190.288 113.06 191.119L112.929 191.679 112.493 192.058C112.052 192.441 111.354 192.709 110.472 192.832L109.991 192.899 109.199 193.64C108.764 194.048 108.263 194.639 108.087 194.953L107.766 195.525 107.712 196.271 107.658 197.017 108.01 197.699C108.891 199.406 111.392 200.797 115.034 201.604 115.811 201.776 116.512 201.916 116.593 201.916 116.686 201.916 116.739 201.771 116.739 201.514L116.739 201.112 116.038 200.293C115.653 199.843 115.313 199.417 115.283 199.347 115.252 199.278 115.521 198.8 115.881 198.286L116.534 197.351 116.451 196.49C116.288 194.792 115.686 193.318 114.688 192.172L114.22 191.636 114.741 191.311 115.263 190.985 114.572 190.365C114.142 189.978 113.741 189.483 113.506 189.051L113.13 188.357 113.134 187.264 113.138 186.171 113.373 185.574C113.503 185.246 113.583 184.954 113.551 184.925 113.519 184.896 111.697 184.872 109.501 184.872L105.51 184.872 105.511 183.391 105.512 181.91 106.836 181.895C107.564 181.887 108.187 181.855 108.219 181.826 108.252 181.796 108.191 181.651 108.084 181.503L107.89 181.234 107.588 181.232C107.264 181.23 106.37 180.895 106.085 180.67 105.989 180.594 105.528 180.511 105.051 180.485L104.191 180.438 103.504 180.168C103.127 180.019 102.534 179.869 102.187 179.834 101.841 179.799 101.248 179.65 100.87 179.503 100.482 179.352 99.7896 179.197 99.2797 179.146 98.2659 179.044 97.3538 178.711 96.6386 178.182 96.3822 177.992 95.9827 177.78 95.7509 177.711 95.1408 177.53 94.0573 176.867 93.6038 176.397 92.5578 175.313 91.8247 173.85 91.4719 172.143L91.2865 171.245 91.4233 171.095C91.6139 170.887 91.7986 170.907 92.4459 171.204 92.7553 171.347 93.4625 171.586 94.0175 171.736L95.0266 172.01 96.941 172.063 98.8555 172.115 100.779 171.922C103.128 171.685 106.576 171.659 107.744 171.87 109.97 172.27 112.167 173.307 113.904 174.777 114.205 175.031 114.465 175.22 114.483 175.197 114.501 175.174 114.693 174.829 114.911 174.431 115.868 172.676 118.087 171.474 120.381 171.467 121.902 171.462 123.711 172.057 124.78 172.913 125.26 173.297 126.149 174.365 126.276 174.71 126.306 174.793 126.556 174.653 126.945 174.335 127.799 173.638 128.723 173.084 129.833 172.603 132.281 171.543 134.624 171.435 139.539 172.154 140.557 172.303 142.074 172.439 143.094 172.473L144.873 172.533 145.844 172.355C146.946 172.153 148.176 171.716 148.934 171.258 149.966 170.635 150.285 170.944 149.758 172.059 149.574 172.447 149.36 172.998 149.281 173.284 149.048 174.13 148.178 175.637 147.561 176.266 146.912 176.926 146.177 177.401 145.398 177.664 145.105 177.763 144.688 177.982 144.471 178.152 144.253 178.321 143.76 178.593 143.374 178.757L142.674 179.054 141.765 179.146C141.258 179.196 140.552 179.354 140.169 179.501 139.791 179.647 139.146 179.811 138.736 179.866 138.327 179.921 137.682 180.087 137.304 180.234L136.617 180.502 135.974 180.504 135.332 180.506 134.563 180.87C134.139 181.07 133.648 181.234 133.471 181.234L133.149 181.234 132.964 181.49C132.862 181.631 132.779 181.769 132.779 181.798 132.779 181.826 133.204 181.863 133.724 181.879L134.669 181.91 134.669 183.365 134.669 184.82 130.86 184.847C128.764 184.862 127.05 184.896 127.05 184.923 127.05 184.949 127.186 185.335 127.351 185.779L127.653 186.586 127.658 187.418C127.661 187.875 127.623 188.48 127.575 188.762L127.488 189.274 127.888 188.955C128.109 188.78 128.565 188.551 128.901 188.447L129.513 188.257 130.659 188.264C131.873 188.271 132.819 188.449 133.854 188.864 134.609 189.167 136.092 190.348 137.321 191.626L138.269 192.613 138.839 193.601C139.152 194.145 139.522 194.962 139.659 195.418L139.91 196.247 139.854 197.237C139.759 198.911 139.152 200.081 137.69 201.407 136.154 202.8 133.959 203.932 131.19 204.758L129.716 205.198 130.382 205.84C133.131 208.494 133.589 210.682 131.861 212.914 130.97 214.065 129.148 215.315 126.876 216.335 126.405 216.547 126.019 216.748 126.019 216.782 126.019 216.816 126.212 216.927 126.448 217.029 127.351 217.419 128.855 218.393 129.554 219.039L130.283 219.713 130.635 220.397 130.988 221.081 130.988 221.714 130.988 222.348 130.73 222.832C130.407 223.438 129.374 224.315 128.477 224.745 127.588 225.172 126.123 225.633 124.737 225.922L123.627 226.154 124.075 226.669C124.321 226.951 124.709 227.524 124.937 227.942L125.35 228.701 125.35 229.207 125.35 229.713 125.048 229.949 124.745 230.185 124.314 230.185 123.883 230.185 123.633 229.691C123.367 229.166 122.468 228.006 122.324 228.004 122.277 228.003 122.238 228.277 122.238 228.612L122.238 229.221 121.03 232.271C120.365 233.949 119.801 235.34 119.776 235.362 119.751 235.385 119.646 235.223 119.542 235.003ZM120.782 231.12 121.182 230.237 121.28 228.444 121.379 226.651 120.777 226.651 120.176 226.652 120.176 229.426C120.176 231.078 120.218 232.161 120.279 232.103 120.336 232.048 120.562 231.606 120.782 231.12ZM124.361 228.635C124.133 228.013 123.18 226.756 122.701 226.447L122.353 226.222 122.353 226.623 122.353 227.024 123.101 227.747C123.513 228.145 123.987 228.677 124.155 228.929 124.521 229.481 124.619 229.34 124.361 228.635ZM116.872 227.286C117.228 226.966 117.813 226.543 118.171 226.347 119.035 225.875 120.457 225.508 121.429 225.508 121.852 225.508 122.761 225.415 123.45 225.302 127.882 224.571 130.144 223.342 130.144 221.663 130.144 220.411 128.439 218.815 125.823 217.619L124.882 217.188 123.847 217.469 122.811 217.751 122.792 217.992C122.781 218.125 122.769 218.309 122.763 218.401L122.753 218.568 123.613 218.794C125.139 219.196 126.261 219.854 126.82 220.674L127.063 221.031 127.067 221.544C127.08 223.122 125.161 224.285 121.82 224.722 119.766 224.99 117.948 225.636 116.909 226.466L116.389 226.881 115.946 227.728C115.702 228.193 115.468 228.714 115.427 228.886L115.351 229.198 115.787 228.534C116.026 228.168 116.514 227.607 116.871 227.286ZM117.082 225.058 117.082 224.609 116.494 224.485C115.158 224.206 113.871 223.453 113.35 222.647L113.056 222.191 113.056 221.626 113.056 221.06 113.288 220.647C113.583 220.124 114.418 219.453 115.178 219.129 115.501 218.992 117.75 218.335 120.176 217.669L124.587 216.458 126.306 215.693C129.037 214.479 130.846 213.17 131.607 211.859L131.919 211.322 131.919 210.335 131.919 209.347 131.557 208.654C131.09 207.759 130.485 207.033 129.439 206.112 128.436 205.229 127.755 204.799 126.465 204.233 125.414 203.773 123.661 203.189 123.573 203.269 123.542 203.297 123.48 203.986 123.434 204.8L123.352 206.281 123.699 206.281C124.152 206.281 125.466 206.651 126.181 206.979 126.957 207.335 127.909 208.18 128.252 208.816 128.409 209.108 128.57 209.631 128.61 209.978L128.682 210.609 128.487 211.225C128.23 212.037 127.74 212.717 126.95 213.359 125.876 214.231 124.785 214.619 119.832 215.893 115.09 217.113 114.26 217.422 112.73 218.536 111.463 219.458 110.684 220.45 110.504 221.37 110.25 222.671 111.598 224.001 113.962 224.781 114.832 225.068 116.511 225.473 116.939 225.5L117.082 225.509ZM121.391 224.441C121.468 224.371 121.706 218.236 121.634 218.17 121.593 218.133 121.261 218.19 120.896 218.298L120.233 218.493 120.203 221.548 120.172 224.602 120.763 224.539C121.087 224.504 121.37 224.46 121.391 224.441ZM117.082 221.603 117.082 219.36 116.71 219.434C115.616 219.65 114.445 220.329 114.096 220.949 113.705 221.645 113.858 222.186 114.616 222.79 115.18 223.239 116.439 223.793 116.996 223.839 117.044 223.843 117.082 222.836 117.082 221.603ZM123.579 223.589C125.165 223.134 126.249 222.333 126.248 221.614 126.247 220.771 124.866 219.842 123.023 219.443L122.72 219.378 122.649 220.91C122.61 221.753 122.55 222.758 122.516 223.144 122.477 223.584 122.497 223.845 122.569 223.845 122.633 223.845 123.087 223.73 123.579 223.589ZM116.194 216.049 116.968 215.835 116.968 215.425 116.968 215.015 116.653 214.953C114.879 214.603 113.57 213.872 112.713 212.752 112.231 212.122 112.028 211.526 112.029 210.742L112.03 210.057 112.276 209.461 112.521 208.866 113.194 208.213C114.084 207.35 115.668 206.598 116.603 206.594L116.868 206.593 116.832 206.255 116.796 205.918 115.418 205.848C114.66 205.81 113.533 205.701 112.914 205.605L111.788 205.431 111.447 205.727C110.906 206.194 109.911 207.437 109.541 208.109 109.027 209.044 108.901 209.483 108.906 210.335L108.91 211.114 109.165 211.71C109.781 213.146 111.545 214.615 114.274 215.962 114.715 216.18 115.154 216.337 115.249 216.311 115.343 216.286 115.769 216.168 116.194 216.05ZM121.168 214.742C121.513 214.651 121.816 214.523 121.842 214.456 121.867 214.39 121.993 212.068 122.12 209.295 122.247 206.523 122.385 203.61 122.427 202.822L122.502 201.389 121.368 201.419 120.233 201.449 120.204 208.178 120.174 214.907 120.358 214.907C120.459 214.907 120.824 214.833 121.168 214.742ZM116.903 210.776C116.859 208.904 116.805 207.354 116.783 207.331 116.761 207.309 116.394 207.394 115.968 207.52 114.627 207.918 113.726 208.564 113.162 209.532L112.906 209.971 112.906 210.75 112.906 211.53 113.149 211.946C113.457 212.472 114.239 213.181 114.904 213.537 115.462 213.836 116.442 214.171 116.775 214.177L116.983 214.181 116.903 210.777ZM124.053 213.926C125.758 213.4 126.926 212.587 127.454 211.56L127.736 211.01 127.737 210.329 127.738 209.648 127.44 209.107C126.957 208.227 125.735 207.478 124.274 207.166 123.879 207.081 123.5 207.011 123.432 207.01L123.309 207.008 123.172 209.996C123.096 211.64 123.005 213.253 122.969 213.582L122.903 214.18 123.066 214.18C123.156 214.18 123.6 214.065 124.053 213.925ZM116.739 203.853 116.739 202.569 116.473 202.615C116.327 202.64 115.747 202.562 115.184 202.442 112.012 201.764 109.69 200.73 108.245 199.351 107.469 198.61 107.057 197.909 106.877 197.019L106.742 196.356 106.878 195.762C106.953 195.435 107.174 194.874 107.37 194.515L107.724 193.862 108.651 193.027 109.578 192.191 110.378 192.058C111.123 191.934 112.041 191.578 112.041 191.413 112.041 191.374 111.786 191.242 111.475 191.12 111.163 190.999 110.874 190.848 110.831 190.785 110.788 190.723 111.022 190.425 111.349 190.124L111.945 189.577 111.641 189.36C111.043 188.933 109.347 188.926 108.088 189.345L107.401 189.574 106.312 190.581C104.042 192.682 102.755 195.01 102.763 197.001 102.775 200.094 105.636 202.89 110.116 204.188 111.93 204.714 114.271 205.074 116.194 205.124L116.739 205.138ZM107.522 191.189C107.27 190.862 107.3 190.541 107.615 190.209L107.887 189.923 108.297 189.923C109.117 189.923 109.466 190.647 108.896 191.164L108.614 191.419 108.157 191.419 107.7 191.419ZM130.903 204.045C132.582 203.543 134.709 202.589 135.82 201.84 137.592 200.645 138.588 199.394 138.921 197.947L139.094 197.196 139.015 196.516C138.906 195.578 138.506 194.558 137.855 193.561L137.305 192.719 135.758 191.305C134.204 189.885 133.828 189.638 132.664 189.278L132.034 189.083 130.659 189.082 129.285 189.081 128.802 189.332C128.537 189.47 128.346 189.621 128.378 189.668 128.41 189.715 128.795 189.944 129.233 190.176 129.671 190.408 130.029 190.639 130.029 190.69 130.029 190.886 129.645 191.113 129.048 191.27 128.706 191.361 128.425 191.474 128.425 191.523 128.425 191.652 129.292 191.917 130.144 192.048 130.553 192.111 131.121 192.283 131.404 192.431 132.326 192.91 133.753 193.983 134.257 194.576 137.021 197.826 134.153 200.85 126.617 202.633L125.402 202.921 126.613 203.445C127.279 203.734 128.023 204.096 128.268 204.249L128.712 204.528 129.185 204.473C129.445 204.443 130.218 204.251 130.903 204.046ZM131.54 191.104C131.2 190.816 131.213 190.336 131.571 190.012L131.852 189.757 132.25 189.757 132.648 189.757 132.885 190.03C133.209 190.403 133.184 190.653 132.788 191.012L132.453 191.316 132.122 191.316C131.94 191.316 131.678 191.22 131.54 191.104ZM125.446 202.072C130.591 201.047 133.908 199.317 134.379 197.412L134.492 196.953 134.322 196.36C134.028 195.334 133.063 194.335 131.434 193.367L130.659 192.907 129.81 192.774C127.933 192.481 127.159 191.853 127.127 190.597L127.112 190.011 126.713 190.196C126.494 190.297 126.198 190.38 126.056 190.38 125.793 190.38 125.561 190.647 125.561 190.949 125.561 191.041 125.671 191.251 125.805 191.415L126.049 191.715 125.973 191.986C125.899 192.254 125.161 192.997 124.453 193.516L124.09 193.782 124.008 195.812 123.925 197.842 124.436 198.45C124.717 198.785 124.984 199.114 125.028 199.183 125.075 199.256 124.798 199.673 124.361 200.186L123.613 201.065 123.613 201.753 123.613 202.44 123.871 202.387C124.013 202.358 124.722 202.217 125.446 202.072ZM123.288 198.563C122.866 198.007 122.698 197.466 122.698 196.668 122.697 196.123 122.925 194.524 123.101 193.833L123.161 193.596 121.697 193.625 120.233 193.654 120.202 195.499 120.171 197.343 119.214 197.343C118.687 197.343 118.105 197.371 117.919 197.405L117.581 197.466 117.102 198.169C116.839 198.556 116.624 198.902 116.624 198.939 116.624 198.976 118.199 199.006 120.124 199.006L123.624 199.006ZM124.301 191.649C124.301 191.604 124.079 191.37 123.809 191.129L123.318 190.692 120.29 190.692 117.263 190.692 116.772 191.129C116.501 191.37 116.28 191.604 116.28 191.649 116.28 191.694 118.085 191.731 120.29 191.731 122.496 191.731 124.301 191.694 124.301 191.649ZM121.551 189.442C123.24 189.203 124.572 188.524 124.946 187.712 125.039 187.511 125.103 186.992 125.103 186.434L125.103 185.496 120.405 185.496 115.707 185.496 115.707 186.798 115.707 188.101 115.896 188.362C116.535 189.247 119.256 189.767 121.551 189.442ZM124.071 183.483C124.071 183.462 123.576 183.101 122.971 182.681 122.365 182.261 121.914 181.906 121.968 181.891 122.022 181.877 122.434 181.797 122.884 181.714 123.971 181.513 124.783 181.184 125.629 180.603L126.327 180.124 126.799 180.523C127.058 180.743 127.352 180.923 127.45 180.923 127.753 180.923 127.783 180.611 127.519 180.211 127.154 179.659 126.873 179.07 126.225 177.494 125.361 175.397 124.686 174.561 123.409 174.011 121.877 173.352 119.951 173.296 118.289 173.862L117.605 174.095 117.023 174.625 116.441 175.155 115.199 177.441C114.516 178.699 113.886 179.856 113.798 180.013L113.639 180.299 113.929 180.299C114.11 180.299 114.218 180.241 114.218 180.143 114.218 179.885 114.363 179.961 114.984 180.544 115.696 181.214 116.345 181.508 117.454 181.663 118.606 181.825 118.592 181.819 118.551 182.139L118.515 182.422 117.634 182.894C117.15 183.153 116.716 183.4 116.67 183.443 116.624 183.486 118.27 183.521 120.329 183.521 122.387 183.521 124.071 183.504 124.071 183.483ZM109.764 181.49C110.04 181.402 110.536 181.182 110.867 181.001L111.468 180.671 111.468 180.46C111.468 180.344 111.236 179.824 110.951 179.304L110.434 178.359 109.678 177.663 108.922 176.967 107.855 176.496C106.128 175.734 105.428 175.64 99.037 175.311 96.0905 175.159 94.9191 174.902 93.5088 174.097 93.178 173.909 92.9073 173.805 92.9073 173.868 92.9073 174.144 93.6844 175.265 94.2921 175.867L94.9554 176.523 95.6786 176.823 96.4018 177.122 97.3184 177.115 98.235 177.108 99.1267 176.832C99.6171 176.68 100.373 176.394 100.806 176.196L101.594 175.836 101.776 176.089C101.877 176.228 101.959 176.393 101.959 176.456 101.959 176.644 99.8542 177.489 98.7988 177.726L97.8163 177.946 98.1402 178.101C98.589 178.315 100.113 178.382 100.785 178.216 101.38 178.07 102.742 177.484 103.259 177.153L103.586 176.943 103.693 177.088C103.752 177.167 103.853 177.318 103.919 177.423L104.039 177.613 103.83 177.761C103.714 177.843 103.139 178.129 102.551 178.398L101.483 178.887 101.692 178.962C101.807 179.003 102.224 179.04 102.619 179.044L103.336 179.051 103.879 178.819C104.178 178.692 104.642 178.388 104.912 178.144 105.181 177.9 105.443 177.7 105.493 177.7 105.544 177.7 105.696 177.807 105.832 177.939L106.08 178.178 105.48 178.706C105.15 178.997 104.764 179.289 104.622 179.354 104.481 179.42 104.365 179.514 104.365 179.563 104.365 179.73 105.162 179.788 105.648 179.656L106.132 179.524 106.788 178.914 107.444 178.304 107.734 178.495C107.893 178.601 108.025 178.726 108.027 178.773 108.029 178.82 107.747 179.128 107.401 179.458 107.054 179.787 106.771 180.084 106.771 180.117 106.771 180.15 107.004 180.258 107.29 180.357L107.809 180.537 108.293 180.405C108.558 180.333 108.973 180.132 109.215 179.959L109.653 179.644 109.939 179.903 110.225 180.162 109.685 180.594C109.388 180.831 109.074 181.025 108.989 181.025 108.774 181.025 108.793 181.197 109.017 181.275 109.122 181.311 109.172 181.405 109.135 181.494 109.053 181.689 109.14 181.688 109.764 181.489ZM131.977 181.442C131.977 181.328 132.029 181.234 132.092 181.234 132.326 181.234 132.195 181.048 131.877 180.928 131.697 180.86 131.387 180.653 131.188 180.468L130.828 180.13 131.099 179.899 131.37 179.669 131.957 180.027C132.28 180.224 132.7 180.416 132.89 180.454 133.223 180.52 133.96 180.37 134.222 180.182L134.348 180.092 133.656 179.465 132.964 178.837 133.281 178.555 133.599 178.272 134.077 178.748C134.34 179.01 134.732 179.335 134.949 179.471L135.342 179.717 135.941 179.722C136.66 179.728 136.834 179.609 136.445 179.378 135.951 179.085 135.07 178.302 135.07 178.157 135.07 178.08 135.198 177.941 135.354 177.849L135.638 177.68 136.15 178.144C136.431 178.399 136.895 178.707 137.182 178.83L137.703 179.052 138.421 179.045C138.815 179.041 139.241 179 139.367 178.955L139.596 178.872 139.138 178.698C138.514 178.461 137.018 177.681 137.018 177.593 137.018 177.553 137.126 177.397 137.257 177.246L137.495 176.971 137.801 177.167C138.326 177.503 139.465 177.987 140.165 178.172L140.837 178.349 141.706 178.303C142.184 178.277 142.718 178.188 142.893 178.104L143.211 177.952 142.109 177.671C141.059 177.403 139.081 176.643 139.081 176.507 139.081 176.472 139.159 176.306 139.255 176.137L139.43 175.83 140.142 176.156C141.222 176.651 142.203 176.96 143.088 177.084L143.889 177.197 144.55 177.073C145.422 176.91 146.043 176.568 146.781 175.845 147.322 175.314 148.314 173.867 148.06 173.977 148.005 174.001 147.625 174.169 147.215 174.35 145.733 175.006 144.493 175.178 140.26 175.311 136.749 175.422 135.104 175.604 133.723 176.032 132.451 176.427 131.637 176.891 130.789 177.704 130.079 178.384 129.227 179.729 129.227 180.168L129.227 180.385 129.809 180.773C130.361 181.14 131.523 181.643 131.834 181.648 131.913 181.649 131.977 181.557 131.977 181.442ZM112.772 179.125C113.104 178.58 113.774 177.074 114.037 176.284L114.11 176.063 113.44 175.478C112.435 174.603 111.65 174.104 110.38 173.535 107.804 172.38 105.999 172.243 100.183 172.762 97.2165 173.027 95.5496 172.948 93.6657 172.453 93.1546 172.319 92.725 172.219 92.7109 172.232 92.6968 172.245 92.9114 172.49 93.1878 172.777 94.416 174.05 96.2041 174.47 101.099 174.634 104.77 174.757 106.684 175.062 108.35 175.789L109.229 176.173 110.212 177.067 111.196 177.961 111.704 178.912C111.984 179.435 112.25 179.842 112.296 179.817 112.342 179.791 112.556 179.48 112.772 179.125ZM128.753 179.008C129.372 177.738 130.714 176.44 132.072 175.797 133.861 174.949 135.314 174.719 140.054 174.532 144.007 174.375 144.763 174.302 146.003 173.954 146.803 173.73 148.049 173.023 148.335 172.632L148.507 172.396 148.004 172.591C146.586 173.142 144.826 173.393 143.06 173.296 142.372 173.258 140.537 173.06 138.984 172.857L136.159 172.487 134.326 172.537 132.493 172.587 131.805 172.762C130.929 172.984 129.212 173.726 128.524 174.18 128.231 174.373 127.698 174.783 127.339 175.091L126.687 175.651 127.113 176.754C127.507 177.771 128.36 179.468 128.478 179.468 128.506 179.468 128.63 179.261 128.753 179.008Z" id="path43031" stroke-width="0.109122" fill="#FFFFFF"/></g></svg>