<svg width="273.007" height="223.652" xmlns="http://www.w3.org/2000/svg" xmlns:xlink="http://www.w3.org/1999/xlink" id="svg42812" xml:space="preserve" overflow="hidden"><defs id="defs42816"></defs><g id="g42818" transform="matrix(3.77953 0 0 3.77953 -322.771 -651.501)"><path d="M101.231 231.333C100.354 230.767 100.355 230.328 101.244 226.319 102.549 220.427 102.838 212.935 101.998 206.712L101.835 205.508 101.122 204.516C98.8598 201.367 97.5424 196.165 97.3252 189.522L97.2093 185.977 93.4479 184.023C91.3791 182.948 88.7789 181.72 87.6697 181.294L85.6529 180.519 85.4893 179.973C85.2611 179.212 85.4806 178.391 86.0217 177.981L86.4795 177.634 87.4239 177.878C88.387 178.128 90.8578 179.269 95.8545 181.773 99.6096 183.654 101.633 184.491 104.435 185.325 107.721 186.302 109.762 186.555 113.249 186.417 116.432 186.291 118.03 185.97 120.421 184.977 121.266 184.627 122.252 184.295 122.612 184.24L123.267 184.139 123.767 184.898 124.266 185.656 126.092 186.703C127.096 187.279 128.649 187.99 129.544 188.282L131.169 188.813 133.698 188.925 136.227 189.036 137.943 188.693C144.859 187.313 151.173 182.204 154.491 175.305 155.289 173.645 155.784 173.094 156.475 173.094 156.932 173.094 157.633 174.075 157.633 174.714 157.633 175.361 156.391 177.984 155.106 180.051 153.207 183.105 149.603 186.69 146.343 188.768 145.747 189.148 145.223 189.496 145.18 189.542 145.136 189.588 145.472 190.071 145.926 190.614 147.23 192.175 148.826 194.821 149.817 197.066 151.583 201.069 152.138 203.652 151.996 207.208L151.909 209.379 151.495 210.483C150.983 211.847 149.59 213.358 148.543 213.685 148.132 213.813 147.243 213.881 146.567 213.837L145.338 213.757 145.431 214.287C145.513 214.755 145.824 219.961 146.171 226.681L146.287 228.926 145.742 229.557C144.829 230.614 143.687 230.336 143.376 228.982 143.277 228.553 143.109 226.319 143.003 224.019 142.802 219.65 142.525 215.312 142.34 213.609L142.231 212.61 141.848 212.758C141.369 212.944 141.07 212.943 140.368 212.753L139.813 212.603 139.04 215.697C136.997 223.865 135.861 227.141 134.501 228.776L133.674 229.77 133.091 229.77C132.713 229.77 132.352 229.589 132.064 229.256L131.621 228.743 131.621 228.002 131.621 227.261 132.246 226.46C133.139 225.316 133.989 222.877 135.503 217.117 135.866 215.737 136.238 214.335 136.33 214.001 136.597 213.036 136.547 213.012 135.64 213.678 134.496 214.519 133.255 214.921 131.807 214.921L130.614 214.921 129.808 214.451C128.856 213.895 128.48 213.123 128.496 211.76L128.508 210.796 130.042 207.264C132.677 201.197 135.252 194.395 135.526 192.773L135.618 192.23 133.755 192.169C131.4 192.093 128.741 191.475 126.653 190.52 125.119 189.817 123.219 188.648 122.566 188.005L122.271 187.715 120.483 188.33C117.768 189.263 115.457 189.616 112.09 189.612 110.463 189.61 108.606 189.52 107.964 189.412 107.322 189.305 106.766 189.253 106.728 189.296 106.61 189.433 107.233 191.695 107.993 193.889 108.927 196.587 109.313 198.146 109.775 201.087L110.148 203.462 111.017 204.852C113.012 208.044 114.744 212.263 116.081 217.186 117.006 220.594 118.229 226.375 118.371 228.011L118.481 229.285 118.062 229.736 117.644 230.188 116.947 230.188 116.25 230.188 115.828 229.699 115.406 229.211 115.188 227.66C114.151 220.28 112.441 215.646 108.537 209.64 107.883 208.634 107.302 207.811 107.246 207.811 107.19 207.811 106.829 210.232 106.444 213.191 105.253 222.33 103.688 230.563 103.019 231.206 102.6 231.609 101.751 231.669 101.231 231.333ZM136.408 186.505C135.065 186.096 133.892 184.989 133.198 183.475L132.801 182.61 132.801 180.937 132.801 179.264 133.192 178.413C133.663 177.385 134.853 176.101 135.75 175.654 136.12 175.47 136.923 175.324 137.582 175.322L138.756 175.318 139.597 175.754C141.4 176.689 142.459 178.662 142.459 181.085 142.459 183.164 141.556 184.911 139.963 185.915 138.996 186.524 137.363 186.795 136.408 186.505ZM103.228 183.48C101.232 182.831 99.6479 180.412 99.6479 178.014 99.6479 176.002 100.884 173.763 102.495 172.857L103.351 172.376 104.616 172.391C105.376 172.4 106.151 172.545 106.561 172.755 107.549 173.26 108.584 174.424 109.056 175.558L109.467 176.545 109.469 178.009 109.471 179.473 108.99 180.552C108.509 181.633 107.404 182.834 106.461 183.3 105.661 183.695 104.149 183.78 103.229 183.48Z" id="path42810" stroke-width="0.194365" fill="#FFFFFF"/></g></svg>