<svg width="230.522" height="226.785" xmlns="http://www.w3.org/2000/svg" xmlns:xlink="http://www.w3.org/1999/xlink" id="svg43089" xml:space="preserve" overflow="hidden"><defs id="defs43093"></defs><g id="g43095" transform="matrix(3.77953 0 0 3.77953 -347.554 -646.283)"><path d="M110.878 229.111 110.878 227.224 111.125 227.224C111.261 227.224 111.373 227.191 111.373 227.151 111.373 227.111 111.519 227.06 111.698 227.039 112.059 226.995 112.331 226.924 112.517 226.825 112.585 226.788 112.773 226.698 112.935 226.623 113.097 226.549 113.229 226.454 113.229 226.414 113.229 226.373 113.324 226.34 113.44 226.34 113.557 226.34 113.661 226.311 113.672 226.276 113.699 226.191 114.276 225.778 114.368 225.778 114.407 225.778 114.479 225.706 114.528 225.618 114.577 225.529 114.641 225.457 114.67 225.457 114.744 225.457 114.899 225.244 114.899 225.141 114.899 225.094 114.955 225.055 115.023 225.055 115.091 225.055 115.147 225.021 115.147 224.979 115.147 224.937 115.22 224.814 115.308 224.707 115.397 224.599 115.498 224.475 115.532 224.431 115.566 224.386 115.686 224.229 115.8 224.08 115.913 223.932 116.043 223.767 116.087 223.714 116.231 223.542 116.322 223.378 116.322 223.292 116.322 223.246 116.35 223.208 116.384 223.208 116.418 223.208 116.446 223.153 116.446 223.084 116.446 223.016 116.509 222.873 116.585 222.767 116.836 222.419 116.879 222.334 116.879 222.186 116.879 222.105 116.935 221.987 117.003 221.923 117.071 221.86 117.127 221.725 117.127 221.625 117.127 221.524 117.148 221.441 117.173 221.441 117.235 221.441 117.436 220.976 117.436 220.833 117.436 220.77 117.464 220.719 117.498 220.719 117.532 220.719 117.56 220.629 117.56 220.518 117.56 220.408 117.588 220.317 117.622 220.317 117.656 220.317 117.684 220.268 117.684 220.207 117.684 220.146 117.753 219.892 117.838 219.642 117.923 219.393 117.993 219.117 117.993 219.03 117.993 218.943 118.021 218.872 118.055 218.872 118.089 218.872 118.117 218.745 118.117 218.591 118.117 218.436 118.145 218.31 118.179 218.31 118.213 218.31 118.241 218.236 118.241 218.146 118.241 218.057 118.3 217.759 118.373 217.484 118.529 216.898 118.61 216.423 118.654 215.84 118.671 215.608 118.71 215.419 118.741 215.419 118.772 215.419 118.797 215.266 118.797 215.079 118.797 214.892 118.837 214.468 118.886 214.135 119.071 212.874 119.107 212.545 119.107 212.101 119.107 211.85 119.135 211.644 119.169 211.644 119.205 211.644 119.23 211.35 119.23 210.921 119.23 210.493 119.256 210.199 119.292 210.199 119.329 210.199 119.354 209.919 119.354 209.52 119.354 209.146 119.381 208.758 119.415 208.656 119.49 208.427 119.607 206.92 119.644 205.721 119.659 205.224 119.697 204.818 119.729 204.818 119.763 204.818 119.787 204.356 119.787 203.734 119.787 203.065 119.811 202.65 119.849 202.65 119.886 202.65 119.911 202.313 119.911 201.802 119.911 201.335 119.939 200.802 119.972 200.617 120.05 200.188 120.171 198.255 120.203 196.928 120.216 196.361 120.253 195.904 120.286 195.904 120.319 195.904 120.344 195.446 120.344 194.82 120.344 194.15 120.368 193.735 120.406 193.735 120.443 193.735 120.468 193.416 120.468 192.936 120.468 192.497 120.495 191.964 120.529 191.752 120.563 191.54 120.616 190.824 120.647 190.162 120.678 189.499 120.713 188.905 120.725 188.841 120.748 188.715 120.537 188.619 120.475 188.728 120.409 188.845 120.03 189.078 119.906 189.078 119.841 189.078 119.787 189.114 119.787 189.158 119.787 189.202 119.717 189.238 119.632 189.238 119.547 189.238 119.478 189.274 119.478 189.319 119.478 189.363 119.422 189.399 119.354 189.399 119.286 189.399 119.23 189.427 119.23 189.462 119.23 189.498 119.108 189.569 118.958 189.621 118.809 189.673 118.644 189.77 118.591 189.838 118.539 189.906 118.439 189.961 118.369 189.961 118.298 189.961 118.24 189.988 118.24 190.021 118.239 190.054 118.129 190.15 117.994 190.234 117.86 190.317 117.694 190.453 117.626 190.535 117.559 190.617 117.46 190.684 117.408 190.684 117.355 190.684 117.312 190.72 117.312 190.764 117.312 190.808 117.271 190.844 117.22 190.844 117.169 190.844 117.127 190.881 117.127 190.925 117.127 190.969 117.074 191.005 117.01 191.005 116.945 191.005 116.876 191.059 116.857 191.126 116.837 191.192 116.765 191.246 116.696 191.246 116.626 191.246 116.57 191.282 116.57 191.326 116.57 191.37 116.514 191.407 116.446 191.407 116.378 191.407 116.322 191.434 116.322 191.467 116.322 191.5 116.197 191.594 116.044 191.676 115.891 191.757 115.766 191.857 115.766 191.897 115.766 191.936 115.724 191.969 115.673 191.969 115.622 191.969 115.58 192.005 115.58 192.049 115.58 192.093 115.496 192.13 115.394 192.13 115.292 192.13 115.209 192.166 115.209 192.21 115.209 192.254 115.181 192.29 115.147 192.29 115.113 192.29 114.94 192.38 114.764 192.491 114.588 192.601 114.393 192.692 114.331 192.692 114.269 192.692 114.219 192.728 114.219 192.772 114.219 192.816 114.149 192.852 114.064 192.852 113.979 192.852 113.91 192.881 113.91 192.916 113.91 192.951 113.729 193.05 113.507 193.137 113.286 193.223 113.105 193.321 113.105 193.354 113.105 193.387 113.008 193.415 112.889 193.415 112.77 193.415 112.672 193.451 112.672 193.495 112.672 193.539 112.547 193.575 112.394 193.575 112.241 193.575 112.115 193.608 112.115 193.648 112.115 193.688 111.983 193.738 111.821 193.759 111.66 193.78 111.402 193.841 111.249 193.893 111.096 193.946 110.699 193.996 110.367 194.003 110.036 194.011 109.764 194.044 109.764 194.077 109.764 194.231 107.383 194.094 106.98 193.917 106.929 193.894 106.832 193.866 106.763 193.854 106.165 193.751 105.99 193.704 105.99 193.644 105.99 193.606 105.906 193.575 105.804 193.575 105.57 193.575 105.57 193.679 105.804 193.977 105.907 194.106 105.99 194.268 105.99 194.335 105.99 194.403 106.018 194.459 106.052 194.459 106.086 194.459 106.114 194.496 106.114 194.543 106.114 194.589 106.176 194.713 106.253 194.82 106.461 195.108 106.547 195.249 106.547 195.302 106.547 195.328 106.61 195.436 106.686 195.542 106.909 195.851 106.98 195.973 106.98 196.044 106.98 196.08 107.036 196.162 107.104 196.225 107.172 196.289 107.227 196.38 107.227 196.427 107.227 196.474 107.325 196.647 107.444 196.811 107.563 196.975 107.661 197.163 107.661 197.229 107.661 197.296 107.684 197.35 107.712 197.35 107.74 197.35 107.801 197.44 107.846 197.55 107.892 197.661 107.966 197.751 108.011 197.751 108.057 197.751 108.094 197.823 108.094 197.912 108.094 198 108.122 198.072 108.156 198.072 108.19 198.072 108.217 198.11 108.217 198.156 108.217 198.203 108.28 198.327 108.357 198.434 108.579 198.742 108.65 198.864 108.65 198.935 108.65 198.971 108.706 199.053 108.774 199.116 108.842 199.18 108.898 199.271 108.898 199.318 108.898 199.366 108.995 199.538 109.115 199.702 109.234 199.866 109.331 200.019 109.331 200.041 109.331 200.154 109.62 200.64 109.687 200.641 109.729 200.642 109.764 200.696 109.764 200.763 109.764 200.829 109.792 200.883 109.826 200.883 109.86 200.883 109.888 200.937 109.888 201.004 109.888 201.07 109.985 201.258 110.104 201.422 110.224 201.586 110.321 201.758 110.321 201.806 110.321 201.853 110.377 201.944 110.445 202.008 110.513 202.071 110.568 202.153 110.568 202.189 110.568 202.26 110.64 202.382 110.862 202.69 110.939 202.797 111.002 202.921 111.002 202.968 111.002 203.014 111.029 203.052 111.063 203.052 111.097 203.052 111.125 203.101 111.125 203.161 111.125 203.221 111.195 203.338 111.28 203.421 111.365 203.504 111.435 203.617 111.435 203.673 111.435 203.729 111.463 203.774 111.497 203.774 111.531 203.774 111.558 203.828 111.558 203.895 111.558 203.961 111.656 204.149 111.775 204.313 111.894 204.477 111.992 204.64 111.992 204.675 111.992 204.71 112.075 204.853 112.177 204.992 112.279 205.13 112.363 205.273 112.363 205.308 112.363 205.344 112.432 205.464 112.517 205.574 112.602 205.684 112.672 205.796 112.672 205.822 112.672 205.875 112.758 206.016 112.966 206.304 113.043 206.411 113.105 206.535 113.105 206.581 113.105 206.628 113.133 206.665 113.167 206.665 113.201 206.665 113.229 206.72 113.229 206.786 113.229 206.852 113.326 207.04 113.446 207.204 113.565 207.368 113.662 207.529 113.662 207.563 113.662 207.596 113.765 207.77 113.892 207.948L114.121 208.272 114.912 208.272 115.704 208.272 115.704 208.428C115.704 208.513 115.676 208.606 115.642 208.633 115.608 208.66 115.58 208.753 115.58 208.84 115.58 209.062 115.435 209.637 115.379 209.637 115.354 209.637 115.332 209.727 115.332 209.838 115.332 209.948 115.305 210.038 115.271 210.038 115.237 210.038 115.209 210.083 115.209 210.138 115.209 210.264 114.884 211.114 114.822 211.149 114.796 211.164 114.776 211.245 114.776 211.33 114.776 211.415 114.754 211.484 114.728 211.484 114.701 211.484 114.627 211.61 114.563 211.765 114.499 211.92 114.423 212.046 114.395 212.046 114.366 212.046 114.342 212.118 114.342 212.207 114.342 212.295 114.314 212.367 114.28 212.367 114.246 212.367 114.219 212.405 114.219 212.451 114.219 212.497 114.19 212.578 114.156 212.632 114.121 212.685 114.037 212.819 113.968 212.929 113.651 213.44 113.497 213.679 113.368 213.855 113.291 213.961 113.229 214.069 113.229 214.096 113.229 214.16 113.063 214.375 113.014 214.375 112.95 214.375 112.672 214.764 112.672 214.853 112.672 214.899 112.63 214.937 112.579 214.937 112.528 214.937 112.486 214.973 112.486 215.018 112.486 215.062 112.442 215.098 112.389 215.098 112.293 215.098 112.115 215.28 112.115 215.379 112.115 215.482 111.936 215.66 111.833 215.66 111.775 215.66 111.681 215.729 111.625 215.813 111.569 215.897 111.406 216.045 111.262 216.142 111.119 216.239 111.001 216.369 111.001 216.431 111.001 216.497 110.938 216.543 110.847 216.543 110.762 216.543 110.692 216.58 110.692 216.624 110.692 216.668 110.648 216.704 110.595 216.704 110.541 216.704 110.459 216.749 110.411 216.805 110.191 217.061 110.132 217.106 110.014 217.106 109.945 217.106 109.888 217.142 109.888 217.186 109.888 217.23 109.834 217.266 109.768 217.266 109.702 217.266 109.63 217.302 109.609 217.347 109.588 217.391 109.529 217.427 109.477 217.427 109.426 217.427 109.342 217.481 109.291 217.547 109.24 217.614 109.145 217.668 109.079 217.668 109.013 217.668 108.96 217.704 108.96 217.748 108.96 217.792 108.89 217.829 108.805 217.829 108.72 217.829 108.65 217.865 108.65 217.909 108.65 217.953 108.553 217.989 108.434 217.989 108.315 217.989 108.217 218.025 108.217 218.07 108.217 218.114 108.15 218.15 108.067 218.15 107.984 218.15 107.875 218.204 107.824 218.27 107.772 218.338 107.621 218.391 107.479 218.391 107.341 218.391 107.227 218.427 107.227 218.471 107.227 218.515 107.102 218.551 106.949 218.551 106.796 218.551 106.67 218.585 106.67 218.625 106.67 218.666 106.501 218.7 106.294 218.701 106.087 218.702 105.882 218.742 105.839 218.788 105.727 218.909 103.302 218.98 102.556 218.884 101.839 218.792 101.586 218.723 101.515 218.6L101.464 218.511 101.433 218.612C101.395 218.73 101.102 218.748 101.102 218.632 101.102 218.588 100.977 218.551 100.824 218.551 100.671 218.551 100.545 218.515 100.545 218.471 100.545 218.427 100.432 218.391 100.293 218.391 100.152 218.391 100.001 218.338 99.9486 218.27 99.8976 218.204 99.7882 218.15 99.7056 218.15 99.623 218.15 99.5553 218.114 99.5553 218.07 99.5553 218.026 99.4718 217.989 99.3697 217.989 99.2676 217.989 99.1841 217.953 99.1841 217.909 99.1841 217.865 99.0867 217.829 98.9676 217.829 98.8484 217.829 98.751 217.797 98.751 217.757 98.751 217.718 98.5631 217.583 98.3334 217.458 98.1037 217.332 97.9065 217.202 97.8951 217.168 97.8838 217.134 97.8339 217.106 97.7843 217.106 97.7346 217.106 97.6343 217.034 97.5612 216.945 97.4882 216.857 97.3799 216.785 97.3207 216.785 97.2615 216.785 97.1713 216.73 97.1203 216.664 97.0692 216.598 96.9837 216.544 96.9302 216.544 96.8768 216.544 96.833 216.508 96.833 216.463 96.833 216.419 96.7913 216.383 96.7402 216.383 96.6892 216.383 96.6474 216.355 96.6474 216.321 96.6474 216.287 96.55 216.191 96.4309 216.107 96.3118 216.024 96.2143 215.926 96.2143 215.888 96.2143 215.851 96.1723 215.821 96.1209 215.821 96.0696 215.821 95.9402 215.712 95.8334 215.58 95.7265 215.447 95.6154 215.339 95.5864 215.339 95.5574 215.339 95.5337 215.285 95.5337 215.219 95.5337 215.152 95.4917 215.098 95.4404 215.098 95.3278 215.098 93.987 213.373 93.987 213.228 93.987 213.172 93.9313 213.074 93.8632 213.01 93.7952 212.946 93.7395 212.843 93.7395 212.781 93.7395 212.718 93.6699 212.583 93.5848 212.481 93.4997 212.379 93.4301 212.252 93.4301 212.2 93.4301 212.148 93.3812 212.047 93.3214 211.976 93.2617 211.904 93.1712 211.737 93.1204 211.605 93.0696 211.472 92.9932 211.316 92.9506 211.258 92.9081 211.199 92.8733 211.1 92.8733 211.037 92.8733 210.974 92.8455 210.922 92.8114 210.922 92.7774 210.922 92.7496 210.85 92.7496 210.761 92.7496 210.673 92.7217 210.601 92.6877 210.601 92.6537 210.601 92.6258 210.511 92.6258 210.4 92.6258 210.29 92.598 210.199 92.564 210.199 92.5299 210.199 92.5021 210.134 92.5021 210.054 92.5021 209.974 92.4612 209.839 92.4112 209.753 92.3613 209.667 92.3195 209.498 92.3184 209.376 92.3173 209.255 92.2887 209.155 92.2546 209.155 92.2206 209.155 92.1927 209.047 92.1927 208.914 92.1927 208.782 92.1718 208.673 92.1463 208.673 92.1208 208.673 92.0677 208.582 92.0284 208.472L91.9569 208.272 92.9105 208.272 93.8641 208.272 94.0029 208.06C94.0793 207.944 94.1765 207.802 94.2191 207.745 94.2616 207.688 94.2964 207.619 94.2964 207.592 94.2964 207.565 94.3521 207.465 94.4201 207.37 94.4882 207.275 94.5439 207.15 94.5439 207.092 94.5439 207.034 94.5856 206.987 94.6367 206.987 94.6877 206.987 94.7295 206.933 94.7295 206.867 94.7295 206.8 94.7573 206.746 94.7914 206.746 94.8254 206.746 94.8532 206.692 94.8532 206.626 94.8532 206.559 94.8811 206.505 94.9151 206.505 94.9491 206.505 94.977 206.451 94.977 206.385 94.977 206.318 94.9979 206.264 95.0234 206.264 95.0489 206.263 95.1356 206.138 95.2161 205.984 95.2965 205.831 95.4097 205.635 95.4674 205.548 95.5252 205.462 95.6264 205.294 95.6924 205.176 95.7583 205.058 95.847 204.914 95.8896 204.856 95.9321 204.797 95.9669 204.728 95.9669 204.7 95.9669 204.673 96.0295 204.564 96.1061 204.458 96.3286 204.149 96.4 204.027 96.4 203.956 96.4 203.92 96.4557 203.838 96.5237 203.775 96.5918 203.711 96.6475 203.61 96.6475 203.55 96.6475 203.49 96.731 203.333 96.8331 203.2 96.9352 203.068 97.0187 202.931 97.0187 202.897 97.0187 202.863 97.0692 202.76 97.1308 202.668 97.1925 202.575 97.2969 202.403 97.3629 202.285 97.4288 202.167 97.5175 202.023 97.5601 201.965 97.6026 201.906 97.6374 201.836 97.6374 201.809 97.6374 201.782 97.7001 201.673 97.7766 201.566 97.9991 201.258 98.0705 201.136 98.0705 201.065 98.0705 201.029 98.1262 200.947 98.1943 200.884 98.2623 200.82 98.318 200.729 98.318 200.682 98.318 200.635 98.4154 200.462 98.5345 200.298 98.6536 200.134 98.7511 199.962 98.7511 199.915 98.7511 199.869 98.8347 199.715 98.9369 199.574 99.0391 199.433 99.1384 199.254 99.1576 199.177 99.1768 199.1 99.2184 199.037 99.2503 199.037 99.282 199.037 99.3079 198.999 99.3079 198.953 99.3079 198.906 99.3706 198.782 99.4471 198.675 99.655 198.387 99.741 198.246 99.741 198.193 99.741 198.167 99.8107 198.055 99.8957 197.945 99.9807 197.835 100.05 197.715 100.05 197.68 100.05 197.644 100.134 197.501 100.236 197.363 100.338 197.224 100.422 197.072 100.422 197.025 100.422 196.978 100.505 196.824 100.607 196.683 100.71 196.542 100.809 196.363 100.828 196.286 100.847 196.209 100.889 196.145 100.921 196.145 100.952 196.145 100.978 196.108 100.978 196.061 100.978 196.015 101.041 195.89 101.118 195.784 101.326 195.496 101.412 195.354 101.412 195.302 101.412 195.276 101.481 195.164 101.566 195.054 101.651 194.943 101.721 194.824 101.721 194.788 101.721 194.753 101.804 194.61 101.907 194.472 102.009 194.333 102.092 194.178 102.092 194.128 102.092 194.077 102.19 193.917 102.309 193.771 102.428 193.625 102.525 193.449 102.525 193.38 102.525 193.311 102.553 193.254 102.587 193.254 102.621 193.254 102.649 193.216 102.649 193.17 102.649 193.124 102.712 192.998 102.788 192.89 103.143 192.391 103.206 192.293 103.206 192.245 103.206 192.164 102.752 191.655 102.634 191.604 102.574 191.578 102.525 191.523 102.525 191.482 102.525 191.441 102.484 191.407 102.433 191.407 102.381 191.407 102.34 191.371 102.34 191.327 102.34 191.283 102.284 191.247 102.216 191.247 102.147 191.247 102.092 191.193 102.092 191.126 102.092 191.06 102.068 191.006 102.038 191.006 102.008 191.006 101.869 190.861 101.728 190.684 101.588 190.508 101.452 190.363 101.426 190.363 101.4 190.363 101.199 190.146 100.979 189.881 100.759 189.616 100.555 189.4 100.526 189.4 100.449 189.4 99.9922 188.733 99.9903 188.617 99.9894 188.561 99.9491 188.516 99.9007 188.516 99.8043 188.516 99.2462 187.826 99.2462 187.707 99.2462 187.666 99.2183 187.633 99.1843 187.633 99.1062 187.633 98.8749 187.337 98.8749 187.237 98.8749 187.195 98.8193 187.139 98.7512 187.111 98.6242 187.058 98.5784 186.91 98.6893 186.91 98.7233 186.91 98.7512 186.856 98.7512 186.79 98.7512 186.723 98.7791 186.669 98.813 186.669 98.847 186.669 98.8749 186.597 98.8749 186.508 98.8749 186.42 98.8958 186.348 98.9213 186.347 98.9836 186.347 99.1843 185.882 99.1843 185.739 99.1843 185.676 99.2122 185.625 99.2462 185.625 99.2802 185.625 99.3081 185.571 99.3081 185.506 99.3081 185.44 99.3532 185.318 99.4082 185.234L99.5083 185.083 99.9925 185.715C100.259 186.063 100.506 186.348 100.542 186.348 100.578 186.348 100.607 186.384 100.607 186.428 100.607 186.472 100.636 186.508 100.67 186.508 100.705 186.508 100.828 186.635 100.944 186.79 101.059 186.944 101.171 187.071 101.193 187.071 101.214 187.071 101.298 187.157 101.379 187.262 101.461 187.368 101.612 187.503 101.717 187.563 101.821 187.623 101.907 187.699 101.907 187.733 101.907 187.766 101.949 187.793 102 187.793 102.051 187.793 102.092 187.829 102.092 187.874 102.092 187.918 102.135 187.954 102.188 187.954 102.241 187.954 102.348 188.044 102.427 188.155 102.506 188.265 102.616 188.356 102.672 188.356 102.727 188.356 102.773 188.383 102.773 188.416 102.774 188.497 103.08 188.677 103.218 188.677 103.28 188.677 103.33 188.706 103.33 188.742 103.33 188.823 103.768 189.078 103.907 189.078 103.964 189.078 104.01 189.114 104.01 189.159 104.01 189.203 104.08 189.239 104.165 189.239 104.25 189.239 104.32 189.275 104.32 189.319 104.32 189.363 104.396 189.401 104.49 189.402 104.583 189.404 104.714 189.458 104.78 189.523 104.846 189.587 104.977 189.641 105.07 189.641 105.164 189.641 105.258 189.677 105.279 189.721 105.3 189.765 105.441 189.801 105.592 189.801 105.743 189.801 105.866 189.837 105.866 189.882 105.866 189.928 106.073 189.962 106.361 189.962 106.65 189.962 106.856 189.995 106.856 190.042 106.856 190.092 107.185 190.123 107.719 190.123 108.227 190.123 108.597 190.09 108.62 190.042 108.641 189.998 108.865 189.962 109.118 189.962 109.371 189.962 109.579 189.929 109.579 189.888 109.579 189.848 109.753 189.799 109.965 189.779 110.426 189.736 110.836 189.602 110.867 189.484 110.879 189.438 111.011 189.4 111.161 189.4 111.312 189.4 111.435 189.364 111.435 189.319 111.435 189.275 111.518 189.239 111.62 189.239 111.722 189.239 111.806 189.203 111.806 189.159 111.806 189.115 111.876 189.078 111.961 189.078 112.046 189.078 112.115 189.042 112.115 188.998 112.115 188.954 112.183 188.918 112.266 188.918 112.348 188.918 112.458 188.864 112.509 188.797 112.56 188.731 112.645 188.677 112.699 188.677 112.752 188.677 112.796 188.641 112.796 188.597 112.796 188.552 112.893 188.516 113.012 188.516 113.132 188.516 113.229 188.48 113.229 188.436 113.229 188.392 113.299 188.356 113.384 188.356 113.469 188.356 113.538 188.325 113.538 188.288 113.538 188.251 113.649 188.152 113.785 188.067 113.921 187.983 114.032 187.887 114.033 187.854 114.033 187.821 114.103 187.793 114.188 187.793 114.273 187.793 114.343 187.757 114.343 187.713 114.343 187.669 114.384 187.633 114.435 187.633 114.486 187.633 114.528 187.597 114.528 187.552 114.528 187.508 114.584 187.472 114.652 187.472 114.721 187.472 114.776 187.419 114.776 187.352 114.776 187.285 114.818 187.231 114.869 187.231 114.92 187.231 114.961 187.195 114.961 187.151 114.961 187.107 115.01 187.07 115.07 187.069 115.129 187.068 115.261 186.941 115.363 186.788 115.465 186.634 115.583 186.509 115.626 186.509 115.669 186.509 115.704 186.472 115.704 186.428 115.704 186.384 115.734 186.348 115.771 186.348 115.808 186.348 115.96 186.185 116.109 185.986 116.258 185.788 116.416 185.625 116.461 185.625 116.506 185.625 116.583 185.553 116.632 185.464 116.681 185.376 116.757 185.304 116.8 185.304 116.844 185.304 116.879 185.25 116.879 185.183 116.879 185.116 116.934 185.063 117.003 185.063 117.071 185.063 117.127 185.027 117.127 184.983 117.127 184.938 117.169 184.902 117.22 184.902 117.271 184.902 117.312 184.866 117.312 184.822 117.312 184.778 117.361 184.742 117.421 184.742 117.481 184.742 117.583 184.651 117.647 184.541 117.711 184.43 117.815 184.34 117.878 184.34 117.941 184.34 117.993 184.304 117.993 184.26 117.993 184.215 118.049 184.179 118.117 184.179 118.185 184.179 118.24 184.143 118.24 184.099 118.24 184.055 118.298 184.019 118.369 184.019 118.439 184.019 118.536 183.973 118.583 183.918 118.803 183.662 118.862 183.617 118.98 183.617 119.05 183.617 119.107 183.581 119.107 183.537 119.107 183.493 119.19 183.456 119.292 183.456 119.394 183.456 119.478 183.424 119.478 183.385 119.478 183.249 120.491 183.07 121.319 183.061L121.829 183.055 121.829 181.053C121.829 179.953 121.845 178.999 121.864 178.934L121.899 178.815 121.7 178.686C121.59 178.615 121.475 178.557 121.445 178.557 121.414 178.557 121.3 178.449 121.191 178.317 121.083 178.185 120.974 178.076 120.95 178.076 120.875 178.075 120.468 177.483 120.468 177.374 120.468 177.338 120.412 177.256 120.344 177.192 120.276 177.128 120.22 177.014 120.22 176.938 120.22 176.862 120.192 176.778 120.158 176.75 120.124 176.723 120.097 176.633 120.097 176.551 120.097 176.468 120.055 176.346 120.004 176.28 119.952 176.212 119.911 176.016 119.911 175.833 119.911 175.653 119.883 175.506 119.849 175.506 119.814 175.506 119.787 175.278 119.787 174.984 119.787 174.689 119.814 174.462 119.849 174.462 119.883 174.462 119.911 174.327 119.911 174.162 119.911 173.885 120.19 173.012 120.298 172.949 120.323 172.935 120.344 172.872 120.344 172.81 120.344 172.707 120.92 171.892 120.992 171.892 121.023 171.892 121.269 171.632 121.431 171.43 121.475 171.375 121.582 171.33 121.67 171.33 121.757 171.33 121.829 171.294 121.829 171.249 121.829 171.205 121.925 171.169 122.042 171.169 122.159 171.169 122.273 171.13 122.296 171.082L122.337 170.996 122.965 171.041C123.718 171.094 124.056 171.162 124.056 171.258 124.056 171.297 124.126 171.33 124.211 171.33 124.296 171.33 124.366 171.362 124.366 171.401 124.366 171.44 124.423 171.491 124.494 171.515 124.565 171.539 124.637 171.634 124.656 171.725L124.689 171.892 124.833 171.892C124.922 171.892 124.991 171.953 125.015 172.052 125.037 172.141 125.094 172.213 125.143 172.213 125.192 172.213 125.232 172.259 125.232 172.316 125.232 172.372 125.287 172.471 125.355 172.534 125.424 172.598 125.479 172.698 125.479 172.757 125.479 172.815 125.549 172.947 125.634 173.049 125.719 173.152 125.789 173.294 125.789 173.367 125.789 173.439 125.816 173.498 125.85 173.498 125.884 173.498 125.912 173.661 125.912 173.859 125.912 174.058 125.94 174.221 125.974 174.221 126.011 174.221 126.036 174.542 126.036 175.024 126.036 175.506 126.011 175.827 125.974 175.827 125.94 175.827 125.912 175.953 125.912 176.108 125.912 176.263 125.884 176.389 125.85 176.389 125.816 176.389 125.789 176.46 125.789 176.546 125.789 176.685 125.595 177.136 125.418 177.41 125.384 177.463 125.355 177.528 125.355 177.554 125.355 177.617 125.062 177.995 125.013 177.995 124.993 177.995 124.937 178.04 124.889 178.096 124.674 178.345 124.612 178.397 124.523 178.397 124.47 178.397 124.427 178.433 124.427 178.477 124.427 178.521 124.386 178.557 124.335 178.557 124.284 178.557 124.242 178.594 124.242 178.638 124.242 178.682 124.189 178.718 124.125 178.718 124.057 178.718 123.993 178.793 123.971 178.899 123.916 179.165 123.926 182.837 123.982 182.951L124.03 183.049 124.881 183.091C125.349 183.114 125.785 183.17 125.849 183.215 125.913 183.259 126.051 183.296 126.156 183.296 126.26 183.296 126.345 183.332 126.345 183.376 126.345 183.42 126.415 183.456 126.5 183.456 126.585 183.456 126.655 183.493 126.655 183.537 126.655 183.581 126.708 183.617 126.774 183.617 126.84 183.617 126.935 183.671 126.986 183.738 127.037 183.804 127.117 183.858 127.165 183.858 127.212 183.858 127.31 183.93 127.383 184.019 127.456 184.107 127.573 184.179 127.642 184.179 127.711 184.179 127.768 184.215 127.768 184.259 127.768 184.304 127.824 184.34 127.892 184.34 127.96 184.34 128.016 184.368 128.016 184.402 128.016 184.436 128.113 184.532 128.232 184.615 128.352 184.699 128.449 184.797 128.449 184.834 128.449 184.872 128.492 184.902 128.544 184.902 128.596 184.902 128.761 185.065 128.91 185.264 129.059 185.462 129.212 185.625 129.25 185.625 129.288 185.625 129.401 185.724 129.502 185.846 129.834 186.248 129.933 186.348 130 186.348 130.086 186.348 130.243 186.552 130.243 186.663 130.243 186.71 130.293 186.749 130.353 186.749 130.414 186.749 130.504 186.821 130.553 186.91 130.602 186.998 130.667 187.07 130.698 187.07 130.729 187.07 130.8 187.136 130.855 187.217 130.91 187.297 131.045 187.431 131.156 187.515 131.266 187.599 131.357 187.696 131.357 187.73 131.357 187.765 131.44 187.793 131.542 187.793 131.645 187.793 131.728 187.829 131.728 187.873 131.728 187.918 131.758 187.954 131.794 187.954 131.831 187.954 131.902 188.008 131.954 188.074 132.005 188.141 132.1 188.195 132.166 188.195 132.231 188.195 132.285 188.231 132.285 188.275 132.285 188.319 132.355 188.355 132.44 188.355 132.525 188.355 132.594 188.391 132.594 188.436 132.594 188.48 132.664 188.516 132.749 188.516 132.834 188.516 132.904 188.552 132.904 188.596 132.904 188.64 132.956 188.677 133.02 188.677 133.084 188.677 133.171 188.731 133.213 188.797 133.255 188.863 133.356 188.918 133.437 188.918 133.518 188.918 133.584 188.954 133.584 188.998 133.584 189.042 133.668 189.078 133.77 189.078 133.872 189.078 133.955 189.114 133.955 189.159 133.955 189.203 134.053 189.239 134.172 189.239 134.291 189.239 134.389 189.275 134.389 189.319 134.389 189.363 134.479 189.401 134.59 189.402 134.7 189.404 134.845 189.458 134.911 189.523 134.977 189.587 135.109 189.641 135.205 189.641 135.3 189.641 135.378 189.677 135.378 189.721 135.378 189.765 135.543 189.801 135.75 189.801 135.956 189.801 136.121 189.837 136.121 189.882 136.121 189.928 136.327 189.962 136.616 189.962 136.905 189.962 137.111 189.995 137.111 190.042 137.111 190.092 137.441 190.122 137.977 190.122 138.513 190.122 138.843 190.092 138.843 190.042 138.843 189.995 139.06 189.962 139.369 189.962 139.679 189.962 139.895 189.929 139.895 189.882 139.895 189.837 140.021 189.801 140.174 189.801 140.328 189.801 140.502 189.771 140.561 189.734 140.62 189.698 140.761 189.607 140.875 189.534 140.988 189.46 141.176 189.4 141.292 189.4 141.409 189.4 141.504 189.363 141.504 189.319 141.504 189.275 141.573 189.239 141.658 189.239 141.743 189.239 141.813 189.203 141.813 189.159 141.813 189.114 141.869 189.078 141.937 189.078 142.005 189.078 142.061 189.042 142.061 188.998 142.061 188.954 142.1 188.918 142.148 188.918 142.252 188.918 142.639 188.664 142.669 188.576 142.68 188.543 142.743 188.516 142.808 188.516 142.873 188.516 142.927 188.48 142.927 188.436 142.927 188.392 142.972 188.355 143.028 188.355 143.084 188.355 143.194 188.265 143.272 188.155 143.351 188.044 143.459 187.954 143.512 187.954 143.564 187.954 143.607 187.918 143.607 187.874 143.607 187.829 143.663 187.793 143.731 187.793 143.799 187.793 143.855 187.757 143.855 187.713 143.855 187.669 143.896 187.633 143.947 187.633 143.999 187.633 144.04 187.599 144.04 187.558 144.04 187.516 144.092 187.461 144.156 187.435 144.219 187.409 144.403 187.226 144.565 187.028 144.726 186.831 144.879 186.669 144.906 186.669 144.933 186.669 145.113 186.47 145.306 186.227 145.499 185.984 145.697 185.785 145.746 185.785 145.795 185.785 145.835 185.729 145.835 185.659 145.835 185.515 145.979 185.304 146.078 185.304 146.114 185.304 146.144 185.243 146.144 185.168L146.144 185.032 146.268 185.205C146.336 185.3 146.391 185.433 146.391 185.501 146.391 185.569 146.413 185.625 146.439 185.625 146.487 185.625 146.516 185.686 146.732 186.234 146.8 186.407 146.876 186.56 146.902 186.575 146.927 186.59 146.948 186.668 146.948 186.749 146.948 186.83 146.981 186.911 147.021 186.928 147.119 186.97 146.621 187.633 146.491 187.633 146.436 187.633 146.391 187.69 146.391 187.76 146.391 187.83 146.231 188.081 146.036 188.318 145.84 188.555 145.624 188.816 145.556 188.898 145.488 188.981 145.391 189.127 145.341 189.224 145.291 189.32 145.204 189.399 145.147 189.399 145.088 189.399 145.027 189.486 145.005 189.6 144.983 189.711 144.925 189.801 144.874 189.801 144.824 189.801 144.783 189.837 144.783 189.881 144.783 189.925 144.751 189.962 144.713 189.962 144.674 189.962 144.598 190.028 144.542 190.11 144.487 190.191 144.38 190.301 144.303 190.353 144.227 190.406 144.164 190.498 144.164 190.558 144.164 190.617 144.074 190.722 143.963 190.791 143.852 190.859 143.721 190.99 143.671 191.081 143.621 191.172 143.53 191.246 143.47 191.246 143.409 191.246 143.36 191.283 143.36 191.327 143.36 191.371 143.33 191.407 143.295 191.407 143.259 191.407 143.161 191.497 143.076 191.608 142.991 191.718 142.901 191.809 142.877 191.809 142.777 191.809 142.466 192.233 142.54 192.268 142.582 192.288 142.617 192.339 142.617 192.381 142.617 192.462 142.682 192.575 142.911 192.893 142.988 192.999 143.05 193.109 143.05 193.136 143.05 193.163 143.085 193.233 143.128 193.291 143.17 193.349 143.259 193.494 143.325 193.612 143.391 193.73 143.495 193.902 143.557 193.994 143.619 194.087 143.669 194.191 143.669 194.227 143.669 194.263 143.753 194.404 143.855 194.539 143.957 194.675 144.04 194.831 144.04 194.886 144.04 194.941 144.096 195.038 144.164 195.101 144.232 195.165 144.288 195.247 144.288 195.283 144.288 195.353 144.359 195.475 144.582 195.784 144.658 195.89 144.721 195.999 144.721 196.025 144.721 196.051 144.783 196.159 144.86 196.265 145.082 196.574 145.154 196.696 145.154 196.767 145.154 196.803 145.21 196.885 145.278 196.948 145.346 197.012 145.401 197.111 145.401 197.168 145.401 197.226 145.499 197.395 145.618 197.545 145.737 197.695 145.834 197.876 145.834 197.945 145.834 198.015 145.862 198.073 145.896 198.073 145.93 198.073 145.958 198.11 145.958 198.157 145.958 198.203 146.021 198.328 146.097 198.434 146.305 198.722 146.391 198.864 146.391 198.916 146.391 198.942 146.454 199.05 146.53 199.157 146.753 199.465 146.824 199.587 146.824 199.658 146.824 199.694 146.88 199.776 146.948 199.839 147.016 199.903 147.072 199.994 147.072 200.041 147.072 200.088 147.169 200.261 147.288 200.425 147.407 200.589 147.505 200.764 147.505 200.814 147.505 200.864 147.602 201.024 147.721 201.17 147.841 201.316 147.938 201.491 147.938 201.561 147.938 201.63 147.966 201.687 148 201.687 148.034 201.687 148.062 201.724 148.062 201.771 148.062 201.817 148.124 201.941 148.201 202.048 148.423 202.357 148.495 202.478 148.495 202.549 148.495 202.585 148.55 202.667 148.618 202.731 148.687 202.794 148.742 202.885 148.742 202.932 148.742 202.98 148.84 203.152 148.959 203.316 149.078 203.48 149.175 203.655 149.175 203.705 149.175 203.755 149.273 203.915 149.392 204.061 149.511 204.207 149.608 204.383 149.608 204.452 149.608 204.521 149.636 204.578 149.67 204.578 149.704 204.578 149.732 204.623 149.732 204.679 149.732 204.735 149.802 204.848 149.887 204.931 149.972 205.014 150.041 205.131 150.041 205.191 150.041 205.251 150.069 205.3 150.103 205.3 150.137 205.3 150.165 205.338 150.165 205.384 150.165 205.431 150.234 205.559 150.32 205.669 150.405 205.78 150.474 205.899 150.474 205.935 150.474 205.97 150.558 206.113 150.66 206.251 150.762 206.39 150.846 206.533 150.846 206.568 150.846 206.603 150.943 206.766 151.062 206.93 151.181 207.094 151.279 207.282 151.279 207.348 151.279 207.415 151.307 207.469 151.34 207.469 151.374 207.469 151.402 207.505 151.402 207.549 151.402 207.593 151.514 207.774 151.65 207.951L151.897 208.272 152.423 208.272 152.949 208.272 152.949 209.356C152.949 210.025 152.926 210.44 152.887 210.44 152.853 210.44 152.825 210.512 152.825 210.601 152.825 210.689 152.798 210.761 152.765 210.761 152.731 210.761 152.687 210.852 152.665 210.962 152.644 211.073 152.602 211.163 152.571 211.163 152.541 211.163 152.516 211.235 152.516 211.324 152.516 211.412 152.488 211.484 152.454 211.484 152.42 211.484 152.392 211.538 152.392 211.605 152.392 211.671 152.365 211.725 152.331 211.725 152.297 211.725 152.269 211.782 152.269 211.851 152.269 211.921 152.234 212.028 152.191 212.089 152.023 212.333 151.959 212.443 151.959 212.49 151.959 212.518 151.925 212.587 151.882 212.646 151.84 212.704 151.749 212.852 151.681 212.975 151.613 213.099 151.495 213.282 151.418 213.382 151.342 213.483 151.279 213.6 151.279 213.643 151.279 213.763 150.909 214.215 150.81 214.215 150.762 214.215 150.722 214.27 150.722 214.338 150.722 214.405 150.673 214.484 150.614 214.513 150.554 214.541 150.407 214.694 150.286 214.851 150.165 215.009 149.991 215.21 149.899 215.298 149.807 215.386 149.732 215.503 149.732 215.559 149.732 215.615 149.676 215.66 149.608 215.66 149.54 215.66 149.485 215.696 149.485 215.741 149.485 215.785 149.455 215.821 149.418 215.821 149.382 215.821 149.313 215.866 149.266 215.921 149.061 216.16 148.991 216.222 148.93 216.222 148.895 216.222 148.866 216.259 148.866 216.303 148.866 216.347 148.816 216.383 148.756 216.383 148.695 216.383 148.606 216.455 148.557 216.544 148.508 216.632 148.434 216.704 148.393 216.704 148.293 216.704 147.939 216.97 147.938 217.046 147.938 217.079 147.868 217.106 147.783 217.106 147.698 217.106 147.629 217.142 147.629 217.186 147.629 217.23 147.573 217.267 147.505 217.267 147.437 217.267 147.381 217.303 147.381 217.347 147.381 217.391 147.332 217.428 147.273 217.43 147.213 217.432 147.11 217.485 147.044 217.55 146.978 217.615 146.846 217.668 146.751 217.668 146.655 217.668 146.577 217.704 146.577 217.749 146.577 217.793 146.535 217.829 146.484 217.829 146.433 217.829 146.391 217.865 146.391 217.909 146.391 217.953 146.294 217.99 146.175 217.99 146.055 217.99 145.958 218.026 145.958 218.07 145.958 218.114 145.908 218.15 145.846 218.15 145.785 218.15 145.68 218.203 145.614 218.268 145.548 218.333 145.39 218.387 145.262 218.389 145.134 218.391 145.03 218.427 145.03 218.472 145.03 218.516 144.877 218.552 144.69 218.552 144.503 218.552 144.349 218.585 144.349 218.625 144.349 218.666 144.175 218.718 143.963 218.742 143.75 218.765 143.353 218.82 143.081 218.863 142.181 219.007 140.094 218.939 139.493 218.748 139.39 218.715 139.284 218.649 139.256 218.6L139.205 218.512 139.173 218.612C139.136 218.731 138.905 218.748 138.905 218.632 138.905 218.588 138.779 218.552 138.626 218.552 138.473 218.552 138.348 218.516 138.348 218.472 138.348 218.427 138.23 218.39 138.085 218.389 137.94 218.387 137.768 218.333 137.702 218.268 137.636 218.203 137.519 218.15 137.443 218.15 137.366 218.15 137.286 218.114 137.265 218.07 137.244 218.026 137.159 217.99 137.076 217.99 136.993 217.99 136.925 217.953 136.925 217.909 136.925 217.865 136.827 217.829 136.708 217.829 136.589 217.829 136.492 217.797 136.492 217.758 136.492 217.718 136.304 217.584 136.074 217.458 135.844 217.333 135.647 217.202 135.636 217.168 135.625 217.134 135.562 217.106 135.497 217.106 135.432 217.106 135.378 217.07 135.378 217.026 135.378 216.981 135.335 216.945 135.281 216.945 135.228 216.945 135.093 216.855 134.982 216.745 134.87 216.634 134.733 216.544 134.676 216.544 134.62 216.544 134.574 216.508 134.574 216.464 134.574 216.419 134.544 216.383 134.508 216.383 134.471 216.383 134.402 216.338 134.355 216.283 134.15 216.045 134.08 215.982 134.02 215.982 133.984 215.982 133.955 215.946 133.955 215.901 133.955 215.857 133.913 215.821 133.862 215.821 133.811 215.821 133.77 215.785 133.77 215.741 133.77 215.696 133.728 215.66 133.677 215.66 133.626 215.66 133.584 215.633 133.584 215.6 133.584 215.567 133.46 215.431 133.31 215.299 133.159 215.166 132.991 214.959 132.935 214.837 132.88 214.716 132.811 214.616 132.781 214.616 132.693 214.616 131.79 213.418 131.79 213.301 131.79 213.242 131.72 213.125 131.635 213.042 131.55 212.96 131.48 212.843 131.48 212.784 131.48 212.725 131.445 212.632 131.403 212.576 131.36 212.52 131.27 212.374 131.202 212.251 131.134 212.129 131.043 211.981 131.001 211.923 130.958 211.865 130.923 211.778 130.923 211.731 130.923 211.684 130.896 211.645 130.862 211.645 130.828 211.645 130.8 211.54 130.8 211.413 130.8 211.277 130.76 211.16 130.704 211.133 130.651 211.106 130.579 210.976 130.543 210.843 130.508 210.71 130.453 210.601 130.423 210.601 130.392 210.601 130.367 210.511 130.367 210.4 130.367 210.29 130.339 210.199 130.305 210.199 130.271 210.199 130.243 210.127 130.243 210.039 130.243 209.95 130.215 209.878 130.181 209.878 130.147 209.878 130.118 209.815 130.117 209.738 130.115 209.575 129.909 208.776 129.85 208.699 129.828 208.67 129.81 208.58 129.81 208.499 129.81 208.419 129.775 208.345 129.733 208.335 129.69 208.325 130.112 208.299 130.67 208.275L131.684 208.232 131.752 208.072C131.79 207.985 131.87 207.854 131.929 207.782 131.989 207.71 132.037 207.627 132.037 207.597 132.037 207.537 132.117 207.404 132.331 207.107 132.408 207.001 132.47 206.876 132.47 206.83 132.47 206.784 132.498 206.746 132.532 206.746 132.566 206.746 132.594 206.674 132.594 206.586 132.594 206.497 132.624 206.425 132.66 206.425 132.697 206.425 132.767 206.373 132.815 206.31 132.864 206.247 132.904 206.157 132.904 206.109 132.904 206.062 132.931 206.023 132.965 206.023 132.999 206.023 133.027 205.969 133.027 205.903 133.027 205.837 133.125 205.649 133.244 205.485 133.363 205.321 133.46 205.158 133.46 205.123 133.46 205.087 133.544 204.945 133.646 204.806 133.748 204.668 133.832 204.525 133.832 204.489 133.832 204.454 133.901 204.334 133.986 204.224 134.071 204.113 134.141 204.002 134.141 203.976 134.141 203.923 134.227 203.782 134.435 203.494 134.511 203.387 134.574 203.262 134.574 203.216 134.574 203.17 134.602 203.132 134.636 203.132 134.67 203.132 134.698 203.075 134.698 203.005 134.698 202.935 134.795 202.755 134.914 202.605 135.033 202.455 135.131 202.295 135.131 202.25 135.131 202.204 135.214 202.054 135.316 201.915 135.419 201.776 135.502 201.634 135.502 201.598 135.502 201.563 135.572 201.443 135.657 201.333 135.742 201.222 135.811 201.111 135.811 201.085 135.811 201.032 135.897 200.891 136.105 200.602 136.182 200.496 136.244 200.371 136.244 200.325 136.244 200.279 136.272 200.241 136.306 200.241 136.34 200.241 136.368 200.185 136.368 200.115 136.368 200.046 136.466 199.87 136.585 199.724 136.704 199.579 136.801 199.419 136.801 199.369 136.801 199.319 136.899 199.144 137.018 198.98 137.137 198.816 137.234 198.643 137.234 198.596 137.234 198.549 137.29 198.458 137.358 198.394 137.426 198.33 137.482 198.249 137.482 198.212 137.482 198.142 137.553 198.02 137.776 197.711 137.852 197.605 137.915 197.48 137.915 197.434 137.915 197.388 137.941 197.35 137.973 197.35 138.004 197.35 138.048 197.278 138.069 197.191 138.091 197.103 138.218 196.888 138.352 196.712 138.486 196.536 138.596 196.353 138.596 196.305 138.596 196.257 138.679 196.102 138.781 195.96 138.884 195.819 138.983 195.641 139.002 195.563 139.021 195.486 139.063 195.423 139.095 195.423 139.126 195.423 139.152 195.385 139.152 195.339 139.152 195.293 139.215 195.168 139.292 195.062 139.514 194.753 139.586 194.631 139.586 194.56 139.586 194.524 139.641 194.442 139.709 194.379 139.777 194.315 139.833 194.215 139.833 194.156 139.833 194.098 139.903 193.966 139.988 193.864 140.192 193.618 140.183 193.576 139.926 193.576 139.807 193.576 139.709 193.608 139.709 193.648 139.709 193.688 139.577 193.738 139.415 193.76 139.254 193.782 138.996 193.836 138.843 193.881 138.263 194.05 137.547 194.139 136.755 194.138 136.304 194.138 135.935 194.111 135.935 194.078 135.935 194.044 135.664 194.011 135.332 194.004 135 193.996 134.603 193.947 134.45 193.894 134.297 193.841 134.04 193.78 133.878 193.759 133.716 193.738 133.584 193.688 133.584 193.648 133.584 193.608 133.459 193.576 133.306 193.576 133.152 193.576 133.027 193.54 133.027 193.495 133.027 193.451 132.93 193.415 132.811 193.415 132.692 193.415 132.594 193.379 132.594 193.335 132.594 193.291 132.551 193.254 132.497 193.254 132.444 193.254 132.34 193.21 132.265 193.156 132.069 193.014 131.714 192.855 131.589 192.854 131.529 192.853 131.48 192.817 131.48 192.773 131.48 192.728 131.43 192.692 131.368 192.692 131.307 192.692 131.112 192.602 130.935 192.492 130.759 192.381 130.587 192.291 130.553 192.291 130.519 192.291 130.491 192.255 130.491 192.21 130.491 192.166 130.435 192.13 130.367 192.13 130.299 192.13 130.243 192.094 130.243 192.05 130.243 192.006 130.193 191.969 130.132 191.969 130.07 191.969 129.994 191.938 129.962 191.899 129.85 191.765 129.31 191.407 129.22 191.407 129.17 191.407 129.129 191.371 129.129 191.327 129.129 191.283 129.102 191.247 129.069 191.247 129.035 191.247 128.856 191.12 128.67 190.966 128.483 190.811 128.29 190.684 128.24 190.684 128.191 190.684 128.141 190.657 128.129 190.624 128.1 190.538 127.597 190.122 127.522 190.122 127.487 190.122 127.459 190.086 127.459 190.042 127.459 189.998 127.389 189.962 127.304 189.962 127.219 189.962 127.15 189.928 127.15 189.888 127.15 189.847 127.024 189.752 126.871 189.676 126.718 189.6 126.593 189.507 126.593 189.469 126.593 189.431 126.509 189.399 126.407 189.399 126.305 189.399 126.222 189.363 126.222 189.319 126.222 189.275 126.165 189.239 126.095 189.239 126.026 189.239 125.911 189.169 125.841 189.084 125.77 188.998 125.604 188.905 125.472 188.876 125.34 188.847 125.232 188.79 125.232 188.75 125.232 188.71 125.186 188.677 125.129 188.677L125.027 188.677 125.069 189.881C125.092 190.543 125.138 191.178 125.171 191.292 125.205 191.405 125.232 191.929 125.232 192.456 125.232 193.042 125.256 193.415 125.294 193.415 125.331 193.415 125.355 193.803 125.355 194.419 125.355 194.994 125.38 195.423 125.414 195.423 125.446 195.423 125.483 195.865 125.497 196.406 125.525 197.551 125.638 199.405 125.727 200.176 125.761 200.472 125.788 201.059 125.788 201.481 125.788 201.909 125.814 202.249 125.847 202.249 125.879 202.249 125.919 202.71 125.937 203.273 125.978 204.621 126.064 205.976 126.192 207.308 126.249 207.904 126.309 208.727 126.325 209.135 126.341 209.544 126.38 209.878 126.411 209.878 126.443 209.878 126.469 210.203 126.469 210.601 126.469 210.998 126.495 211.324 126.526 211.324 126.558 211.324 126.597 211.622 126.613 211.986 126.629 212.351 126.688 212.992 126.745 213.412 126.802 213.831 126.863 214.4 126.88 214.676 126.898 214.952 126.938 215.178 126.969 215.178 127 215.178 127.026 215.375 127.026 215.615 127.026 215.856 127.054 216.075 127.088 216.102 127.122 216.129 127.149 216.26 127.149 216.393 127.149 216.639 127.298 217.356 127.401 217.607 127.433 217.683 127.459 217.855 127.459 217.988 127.459 218.121 127.487 218.23 127.521 218.23 127.555 218.23 127.583 218.338 127.583 218.471 127.583 218.603 127.61 218.712 127.644 218.712 127.678 218.712 127.706 218.775 127.706 218.852 127.706 219.01 127.903 219.717 127.972 219.806 127.996 219.837 128.016 219.947 128.016 220.05 128.016 220.153 128.044 220.238 128.077 220.238 128.111 220.238 128.139 220.346 128.139 220.479 128.139 220.611 128.161 220.72 128.187 220.72 128.214 220.72 128.29 220.882 128.357 221.08 128.425 221.279 128.5 221.441 128.526 221.442 128.552 221.442 128.572 221.515 128.572 221.603 128.572 221.691 128.6 221.764 128.634 221.764 128.668 221.764 128.696 221.818 128.696 221.884 128.696 221.95 128.724 222.005 128.758 222.005 128.792 222.005 128.82 222.077 128.82 222.165 128.82 222.254 128.846 222.326 128.877 222.326 128.909 222.326 128.955 222.407 128.979 222.506 129.003 222.606 129.075 222.746 129.138 222.817 129.201 222.889 129.253 222.985 129.253 223.031 129.253 223.077 129.35 223.245 129.469 223.404 129.588 223.564 129.686 223.713 129.686 223.735 129.686 223.813 130.115 224.333 130.179 224.333 130.214 224.333 130.243 224.371 130.243 224.416 130.243 224.504 130.645 225.056 130.709 225.056 130.73 225.056 130.785 225.101 130.833 225.157 131.03 225.387 131.106 225.458 131.154 225.458 131.182 225.458 131.245 225.53 131.294 225.618 131.344 225.707 131.433 225.779 131.494 225.779 131.554 225.779 131.604 225.811 131.604 225.851 131.604 225.89 131.673 225.945 131.759 225.973 131.844 226 131.913 226.058 131.913 226.102 131.913 226.145 131.969 226.181 132.037 226.181 132.105 226.181 132.161 226.217 132.161 226.261 132.161 226.305 132.23 226.341 132.315 226.341 132.4 226.341 132.47 226.374 132.47 226.415 132.47 226.455 132.602 226.549 132.764 226.623 132.926 226.697 133.106 226.79 133.165 226.83 133.224 226.87 133.371 226.903 133.49 226.903 133.61 226.903 133.707 226.94 133.707 226.984 133.707 227.028 133.872 227.064 134.079 227.064 134.285 227.064 134.45 227.1 134.45 227.144 134.45 227.189 134.533 227.225 134.636 227.225L134.821 227.225 134.821 229.032 134.821 230.839 122.911 230.839 111.001 230.839 111.001 230.919C111.001 230.963 110.973 230.999 110.939 230.999 110.899 230.999 110.877 230.317 110.877 229.112ZM112.672 208.088C112.672 207.987 112.616 207.853 112.548 207.789 112.48 207.726 112.425 207.644 112.425 207.607 112.425 207.537 112.353 207.415 112.131 207.106 112.054 207 111.991 206.892 111.991 206.866 111.991 206.813 111.905 206.672 111.698 206.384 111.621 206.277 111.558 206.152 111.558 206.106 111.558 206.06 111.53 206.022 111.497 206.022 111.463 206.022 111.435 205.966 111.435 205.896 111.435 205.827 111.337 205.651 111.218 205.506 111.099 205.36 111.002 205.2 111.002 205.15 111.002 205.1 110.904 204.925 110.785 204.761 110.666 204.597 110.568 204.433 110.568 204.396 110.568 204.359 110.506 204.247 110.429 204.147 110.353 204.047 110.22 203.832 110.135 203.669 110.05 203.507 109.96 203.373 109.934 203.373 109.909 203.372 109.888 203.334 109.888 203.288 109.888 203.242 109.818 203.114 109.733 203.003 109.648 202.893 109.579 202.774 109.579 202.738 109.579 202.702 109.495 202.56 109.393 202.421 109.291 202.282 109.207 202.128 109.207 202.077 109.207 202.027 109.11 201.866 108.991 201.721 108.872 201.575 108.774 201.414 108.774 201.364 108.774 201.314 108.739 201.227 108.697 201.171 108.654 201.115 108.564 200.969 108.496 200.847 108.428 200.724 108.337 200.576 108.295 200.518 108.252 200.46 108.217 200.39 108.217 200.363 108.217 200.336 108.155 200.229 108.078 200.126 108.002 200.023 107.885 199.842 107.819 199.723 107.753 199.604 107.652 199.436 107.594 199.35 107.536 199.264 107.423 199.067 107.343 198.914 107.262 198.761 107.176 198.635 107.15 198.635 107.125 198.634 107.104 198.58 107.104 198.514 107.104 198.447 107.076 198.393 107.042 198.393 107.008 198.393 106.98 198.352 106.98 198.302 106.98 198.252 106.883 198.092 106.764 197.946 106.644 197.8 106.547 197.624 106.547 197.555 106.547 197.486 106.519 197.429 106.485 197.429 106.451 197.429 106.423 197.392 106.423 197.345 106.423 197.299 106.361 197.174 106.284 197.068 106.062 196.759 105.99 196.638 105.99 196.567 105.99 196.531 105.935 196.449 105.866 196.385 105.798 196.322 105.743 196.231 105.743 196.184 105.743 196.136 105.645 195.963 105.526 195.8 105.407 195.636 105.31 195.473 105.31 195.438 105.31 195.403 105.212 195.241 105.093 195.077 104.974 194.913 104.877 194.743 104.877 194.699 104.877 194.655 104.849 194.618 104.815 194.618 104.781 194.618 104.753 194.562 104.753 194.492 104.753 194.348 104.608 194.137 104.51 194.137 104.473 194.137 104.443 194.082 104.443 194.016 104.443 193.95 104.416 193.896 104.382 193.896 104.348 193.896 104.32 193.841 104.32 193.775 104.32 193.708 104.241 193.547 104.145 193.417L103.971 193.18 103.867 193.338C103.81 193.425 103.763 193.537 103.763 193.586 103.763 193.636 103.665 193.795 103.546 193.941 103.427 194.087 103.33 194.263 103.33 194.332 103.33 194.401 103.302 194.458 103.268 194.458 103.234 194.458 103.206 194.496 103.206 194.542 103.206 194.588 103.143 194.713 103.067 194.819 102.859 195.107 102.773 195.249 102.773 195.301 102.773 195.327 102.71 195.435 102.634 195.542 102.429 195.826 102.34 195.971 102.34 196.021 102.34 196.045 102.256 196.179 102.154 196.318 102.052 196.456 101.969 196.599 101.969 196.634 101.969 196.67 101.899 196.79 101.814 196.9 101.729 197.01 101.659 197.138 101.659 197.185 101.659 197.231 101.631 197.269 101.597 197.269 101.563 197.269 101.535 197.315 101.535 197.371 101.535 197.428 101.438 197.594 101.319 197.739 101.2 197.885 101.102 198.056 101.102 198.118 101.102 198.181 101.074 198.232 101.04 198.232 101.006 198.232 100.979 198.27 100.979 198.316 100.979 198.363 100.916 198.487 100.839 198.594 100.632 198.882 100.546 199.023 100.546 199.076 100.546 199.102 100.476 199.213 100.391 199.324 100.306 199.434 100.236 199.554 100.236 199.589 100.236 199.625 100.153 199.768 100.051 199.906 99.9485 200.045 99.865 200.187 99.865 200.223 99.865 200.258 99.7675 200.421 99.6484 200.585 99.5293 200.749 99.4319 200.919 99.4319 200.963 99.4319 201.007 99.404 201.043 99.37 201.043 99.3359 201.043 99.308 201.1 99.308 201.169 99.308 201.238 99.2106 201.414 99.0915 201.56 98.9724 201.706 98.8749 201.866 98.8749 201.916 98.8749 201.966 98.7775 202.141 98.6584 202.305 98.5393 202.468 98.4418 202.641 98.4418 202.689 98.4418 202.736 98.3862 202.827 98.3181 202.89 98.25 202.954 98.1944 203.036 98.1944 203.072 98.1944 203.143 98.1229 203.264 97.9005 203.573 97.8239 203.679 97.7613 203.788 97.7613 203.814 97.7613 203.866 97.6752 204.007 97.4674 204.296 97.3908 204.402 97.3282 204.519 97.3282 204.555 97.3282 204.592 97.2725 204.674 97.2044 204.737 97.1364 204.801 97.0807 204.9 97.0807 204.957 97.0807 205.015 96.9832 205.184 96.8641 205.334 96.745 205.485 96.6476 205.648 96.6476 205.699 96.6476 205.749 96.564 205.906 96.4618 206.047 96.3596 206.188 96.2603 206.367 96.2411 206.444 96.2219 206.521 96.1802 206.584 96.1485 206.584 96.1167 206.584 96.0908 206.622 96.0908 206.668 96.0908 206.715 96.0281 206.839 95.9515 206.946 95.7375 207.243 95.6577 207.376 95.6577 207.435 95.6577 207.465 95.6082 207.548 95.5478 207.619 95.3901 207.805 95.2244 208.164 95.269 208.222 95.29 208.249 99.2142 208.271 103.99 208.271L112.672 208.271ZM150.458 208.138C150.471 208.087 150.41 207.953 150.324 207.841 150.237 207.728 150.166 207.615 150.166 207.589 150.166 207.536 150.08 207.395 149.872 207.106 149.795 207 149.733 206.875 149.733 206.829 149.733 206.783 149.71 206.745 149.681 206.745 149.653 206.745 149.591 206.646 149.543 206.524 149.495 206.403 149.365 206.189 149.254 206.048 149.143 205.907 149.052 205.751 149.052 205.701 149.052 205.651 149.017 205.564 148.975 205.508 148.932 205.452 148.842 205.307 148.774 205.186 148.706 205.065 148.606 204.898 148.553 204.816 148.5 204.735 148.403 204.57 148.337 204.451 148.271 204.333 148.154 204.151 148.078 204.048 148.001 203.946 147.938 203.824 147.938 203.777 147.938 203.731 147.912 203.693 147.881 203.693 147.849 203.693 147.807 203.63 147.788 203.553 147.769 203.476 147.669 203.297 147.567 203.156 147.465 203.015 147.382 202.858 147.382 202.808 147.382 202.757 147.284 202.594 147.165 202.443 147.046 202.293 146.948 202.124 146.948 202.066 146.948 202.009 146.893 201.91 146.825 201.846 146.757 201.783 146.701 201.701 146.701 201.664 146.701 201.628 146.638 201.511 146.562 201.405 146.354 201.116 146.268 200.975 146.268 200.923 146.268 200.897 146.198 200.785 146.113 200.675 146.028 200.564 145.958 200.445 145.958 200.409 145.958 200.374 145.875 200.231 145.773 200.092 145.671 199.954 145.587 199.811 145.587 199.776 145.587 199.741 145.49 199.577 145.371 199.414 145.252 199.25 145.154 199.075 145.154 199.025 145.154 198.975 145.057 198.815 144.938 198.669 144.819 198.523 144.721 198.347 144.721 198.278 144.721 198.209 144.693 198.152 144.659 198.152 144.625 198.152 144.597 198.116 144.597 198.072 144.597 198.028 144.5 197.858 144.381 197.694 144.262 197.53 144.164 197.367 144.164 197.332 144.164 197.296 144.081 197.154 143.979 197.015 143.877 196.877 143.793 196.734 143.793 196.698 143.793 196.663 143.723 196.543 143.638 196.433 143.553 196.322 143.484 196.211 143.484 196.185 143.484 196.132 143.398 195.991 143.19 195.703 143.113 195.596 143.051 195.472 143.051 195.425 143.051 195.379 143.023 195.341 142.989 195.341 142.955 195.341 142.927 195.293 142.927 195.233 142.927 195.174 142.83 194.995 142.71 194.836 142.591 194.676 142.494 194.507 142.494 194.459 142.494 194.411 142.396 194.246 142.277 194.091 142.158 193.937 142.061 193.784 142.061 193.753 142.061 193.673 141.778 193.253 141.724 193.253 141.657 193.253 141.545 193.429 141.442 193.693 141.391 193.825 141.259 194.058 141.148 194.212 141.038 194.366 140.947 194.521 140.947 194.558 140.947 194.594 140.857 194.747 140.746 194.898 140.468 195.277 140.39 195.404 140.39 195.481 140.39 195.517 140.335 195.599 140.266 195.663 140.198 195.726 140.143 195.817 140.143 195.864 140.143 195.912 140.045 196.084 139.926 196.248 139.807 196.412 139.71 196.6 139.71 196.667 139.71 196.733 139.682 196.787 139.648 196.787 139.614 196.787 139.586 196.841 139.586 196.907 139.586 196.974 139.547 197.028 139.498 197.028 139.45 197.028 139.374 197.136 139.329 197.269 139.283 197.401 139.225 197.51 139.2 197.51 139.174 197.51 139.153 197.546 139.153 197.59 139.153 197.634 139.055 197.804 138.936 197.968 138.817 198.132 138.72 198.295 138.72 198.33 138.72 198.366 138.636 198.508 138.534 198.647 138.432 198.785 138.349 198.928 138.349 198.964 138.349 198.999 138.279 199.119 138.194 199.229 138.109 199.339 138.039 199.451 138.039 199.477 138.039 199.53 137.953 199.671 137.745 199.959 137.669 200.066 137.606 200.19 137.606 200.237 137.606 200.283 137.578 200.321 137.544 200.321 137.51 200.321 137.482 200.377 137.482 200.446 137.482 200.516 137.385 200.692 137.266 200.837 137.147 200.983 137.049 201.143 137.049 201.193 137.049 201.243 136.952 201.418 136.833 201.582 136.714 201.746 136.616 201.919 136.616 201.966 136.616 202.013 136.56 202.104 136.492 202.168 136.424 202.231 136.369 202.313 136.369 202.35 136.369 202.386 136.306 202.503 136.229 202.609 136.022 202.898 135.935 203.039 135.935 203.091 135.935 203.117 135.873 203.226 135.796 203.332 135.574 203.641 135.502 203.762 135.502 203.833 135.502 203.869 135.447 203.951 135.379 204.015 135.311 204.078 135.255 204.181 135.255 204.244 135.255 204.306 135.158 204.476 135.038 204.622 134.919 204.768 134.822 204.936 134.822 204.995 134.822 205.055 134.766 205.156 134.698 205.219 134.63 205.283 134.574 205.365 134.574 205.401 134.574 205.472 134.503 205.593 134.28 205.902 134.204 206.008 134.141 206.133 134.141 206.179 134.141 206.226 134.12 206.264 134.095 206.264 134.069 206.264 133.979 206.398 133.894 206.561 133.809 206.723 133.676 206.938 133.6 207.038 133.523 207.138 133.461 207.25 133.461 207.287 133.461 207.324 133.363 207.488 133.244 207.652 133.125 207.816 133.028 208.023 133.028 208.111L133.028 208.272 141.731 208.251 150.434 208.231Z" id="path43087" stroke-width="0.0704889" fill="#FFFFFF"/></g></svg>