<svg width="251.651" height="217.976" xmlns="http://www.w3.org/2000/svg" xmlns:xlink="http://www.w3.org/1999/xlink" id="svg42371" xml:space="preserve" overflow="hidden"><defs id="defs42375"></defs><g id="g42377" transform="matrix(3.77953 0 0 3.77953 -323.899 -664.427)"><path d="M101.219 232.927C101.219 232.099 101.884 230.991 102.934 230.069 103.88 229.238 103.893 229.236 106.905 229.236L109.926 229.236 110.106 228.279C110.408 226.67 112.481 224.738 113.906 224.738 114.447 224.738 114.448 224.698 114.448 207.77L114.448 190.803 113.077 190.985C112.323 191.085 110.281 191.693 108.54 192.337 106.798 192.981 104.442 193.708 103.303 193.953L101.232 194.398 102.775 197.331C103.624 198.944 105.595 202.734 107.155 205.754 109.62 210.524 110.073 211.244 110.611 211.244 112.308 211.244 112.539 212.397 111.28 214.592 109.441 217.798 105.345 219.79 99.896 220.128 93.6308 220.517 87.574 217.637 86.0028 213.523 85.4122 211.977 85.6542 211.413 86.9582 211.296 87.8547 211.216 87.8701 211.191 92.0907 203.012 94.4191 198.499 96.3241 194.682 96.3241 194.529 96.3241 194.376 95.6692 194.048 94.8689 193.799 92.8339 193.166 92.2907 192.828 91.8055 191.889 91.2609 190.836 91.4895 189.568 92.3737 188.737 93.1811 187.979 94.7158 187.912 96.3241 188.566 98.1421 189.305 100.171 189.153 102.218 188.126 106.165 186.146 110.135 185.123 115.099 184.807 117.775 184.637 117.953 184.594 117.226 184.289 116.058 183.8 115.31 182.998 114.817 181.706 114.032 179.651 114.919 177.294 116.845 176.311 120.493 174.45 124.508 177.954 123.063 181.738 122.607 182.933 121.336 184.257 120.645 184.257 120.438 184.257 120.269 184.376 120.269 184.521 120.269 184.671 121.042 184.786 122.055 184.787 126.241 184.791 130.584 185.829 135.301 187.953 138.034 189.183 139.402 189.298 141.7 188.49 143.746 187.77 144.508 187.818 145.411 188.721 146.432 189.741 146.642 190.7 146.098 191.842 145.65 192.781 144.254 193.601 142.512 193.95 142.059 194.04 141.632 194.207 141.562 194.32 141.492 194.433 142.565 196.71 143.947 199.379 145.329 202.049 147.264 205.81 148.247 207.738 149.763 210.712 150.127 211.244 150.647 211.244 151.517 211.244 152.284 211.714 152.281 212.245 152.277 213.003 151.084 215.298 150.271 216.112 143.966 222.427 129.485 221.112 126.263 213.933 125.321 211.834 125.463 211.516 127.488 211.188 127.811 211.136 129.322 208.494 132.295 202.781L136.63 194.45 133.94 193.756C132.46 193.375 130.05 192.63 128.584 192.101 127.119 191.572 125.363 191.062 124.682 190.969L123.444 190.799 123.444 207.768C123.444 224.698 123.445 224.738 123.986 224.738 125.377 224.738 127.183 226.373 127.688 228.089L128.012 229.192 130.975 229.28C133.746 229.362 134.001 229.416 134.909 230.109 135.954 230.907 136.673 232.056 136.673 232.927 136.673 233.468 136.64 233.469 118.946 233.469 101.252 233.469 101.219 233.468 101.219 232.927ZM105.452 211.038C105.452 210.925 105.293 210.598 105.099 210.311 104.905 210.024 104.115 208.598 103.344 207.143 102.573 205.688 101.493 203.664 100.943 202.645 100.394 201.626 99.7089 200.344 99.4211 199.795L98.8978 198.796 95.5974 205.02 92.297 211.244 98.8746 211.244C102.492 211.244 105.452 211.151 105.452 211.038ZM142.498 205.408C140.791 202.199 139.275 199.453 139.128 199.306 138.949 199.126 137.874 200.883 135.849 204.666 134.192 207.761 132.751 210.507 132.647 210.768 132.467 211.219 132.809 211.244 139.029 211.244L145.6 211.244Z" id="path42369" stroke-width="0.264583" fill="#FFFFFF"/></g></svg>