<svg width="326.453" height="241.539" xmlns="http://www.w3.org/2000/svg" xmlns:xlink="http://www.w3.org/1999/xlink" id="svg42616" xml:space="preserve" overflow="hidden"><defs id="defs42620"></defs><g id="g42622" transform="matrix(3.77953 0 0 3.77953 -307.705 -641.919)"><path d="M101.215 233.66C100.326 233.542 99.2452 233.283 98.4879 233.007 97.6406 232.698 95.5085 231.625 95.5085 231.507 95.5085 231.453 95.6857 231.438 95.9048 231.475 96.3153 231.543 98.1792 231.305 100.739 230.859 102.312 230.585 104.515 230.452 105.389 230.579 105.679 230.621 106.576 230.761 107.381 230.889 108.186 231.017 108.868 231.099 108.897 231.07 108.944 231.023 108.154 230.471 108.038 230.471 107.91 230.471 105.567 229.028 105.442 228.872 105.413 228.836 105.127 228.639 104.808 228.434 104.488 228.23 104.161 227.983 104.081 227.886 103.893 227.656 103.596 227.664 102.377 227.933 100.376 228.374 99.7675 228.469 98.5952 228.525 97.2326 228.59 96.1001 228.453 94.9666 228.086 94.0695 227.796 92.2704 226.958 91.6515 226.541 91.419 226.385 91.1539 226.23 91.0625 226.196 90.9338 226.15 88.6437 224.628 88.4373 224.452 88.2766 224.316 88.6058 224.314 89.0811 224.449 89.8688 224.674 90.2439 224.712 92.3409 224.786 93.9692 224.842 95.5089 224.955 96.8174 225.111 97.0433 225.139 97.5188 225.237 97.8741 225.33 98.2294 225.423 98.5915 225.513 98.6786 225.531 99.1925 225.637 99.5608 225.762 100.317 226.085 101.379 226.539 102.826 227.08 102.868 227.039 102.885 227.021 102.56 226.699 102.146 226.322 101.732 225.945 100.79 225.025 100.053 224.277L98.7129 222.916 96.9227 223.046 95.1326 223.176 93.9732 223.056C92.1952 222.87 91.4353 222.624 89.8133 221.708 88.9626 221.228 88.6934 221.034 87.6992 220.189 85.7862 218.562 84.5187 217.267 84.5187 216.94 84.5187 216.913 84.7683 217.026 85.0734 217.19 85.7208 217.538 88.0424 218.205 89.2739 218.398 90.3152 218.561 92.7976 219.246 93.5536 219.58 94.3841 219.947 95.3024 220.433 95.8783 220.812 96.2271 221.041 96.5837 221.261 96.6709 221.3 96.758 221.34 97.0798 221.538 97.3858 221.741 97.6918 221.944 97.9757 222.076 98.0167 222.035 98.0577 221.994 98.0422 221.927 97.9821 221.886 97.8385 221.789 96.0359 219.244 95.3009 218.1 94.9706 217.586 94.6313 217.178 94.5084 217.147 94.3901 217.118 93.8891 217.063 93.3951 217.026 91.7847 216.905 89.8575 216.523 88.7456 216.103 87.9377 215.799 86.8988 215.089 85.9079 214.166 84.8078 213.14 82.9545 210.676 82.0897 209.088L81.8726 208.69 82.0079 208.69C82.0824 208.69 82.2715 208.809 82.4282 208.956 82.5849 209.102 82.7537 209.221 82.8034 209.221 82.8531 209.221 82.9873 209.305 83.1015 209.407 83.2158 209.509 83.4744 209.674 83.6762 209.773 84.5507 210.2 86.1336 210.921 86.1981 210.921 86.28 210.921 87.5855 211.474 87.7417 211.575 87.7998 211.613 88.2516 211.854 88.7456 212.111 89.6615 212.588 90.0744 212.821 90.2724 212.972 90.3335 213.018 90.645 213.249 90.9647 213.484 91.4686 213.854 92.3227 214.604 93.6976 215.884 94.1214 216.279 94.3349 216.244 94.0486 215.828 93.9409 215.671 93.7785 215.352 93.6876 215.118 93.5967 214.884 93.3566 214.335 93.1542 213.896 92.6007 212.698 92.2735 211.892 92.0641 211.211L91.8754 210.597 90.9709 210.324C87.5416 209.288 86.1613 208.624 84.9883 207.443 84.4888 206.94 83.2506 205.219 83.2506 205.027 83.2506 204.999 83.0891 204.628 82.8916 204.203 82.1741 202.659 81.2407 199.871 81.4413 199.871 81.4813 199.871 81.774 200.16 82.0918 200.514 82.4095 200.868 83.2401 201.577 83.9375 202.091 84.6349 202.604 85.5384 203.274 85.9453 203.578 87.2604 204.562 88.3771 205.603 89.2211 206.633 90.066 207.663 90.225 207.879 90.2252 207.996 90.2253 208.056 90.3703 208.273 90.5473 208.477 90.7244 208.682 90.9476 208.979 91.0434 209.138 91.2143 209.421 91.493 209.614 91.493 209.45 91.493 209.404 91.4242 209.13 91.3402 208.842 91.0963 208.006 90.5547 205.2 90.479 204.38 90.3879 203.394 90.38 203.385 89.0626 202.723 88.2296 202.305 86.8465 201.459 86.2656 201.012 85.7826 200.641 84.6244 199.454 84.6244 199.33 84.6244 199.285 84.5649 199.185 84.4923 199.108 83.7783 198.349 83.1159 195.73 82.9393 192.967 82.8213 191.122 82.8982 190.808 83.2633 191.644 83.3891 191.932 83.6261 192.365 83.7899 192.606 83.9537 192.847 84.0579 193.074 84.0214 193.11 83.985 193.147 84.0147 193.177 84.0874 193.177 84.2313 193.177 84.2852 193.236 85.9404 195.196 86.9572 196.4 88.3229 198.258 88.3229 198.438 88.3229 198.478 88.4111 198.637 88.5188 198.792 88.6266 198.947 88.9161 199.6 89.1623 200.243 89.4084 200.886 89.7364 201.674 89.891 201.996L90.1721 202.58 90.2319 199.34 90.2916 196.099 90.1345 195.886C90.048 195.77 89.6719 195.435 89.2985 195.143 88.9252 194.85 88.1844 194.152 87.6524 193.591L86.6849 192.571 86.2316 191.711C85.6031 190.519 85.4697 189.919 85.4697 188.283 85.4697 186.453 85.9057 183.703 86.2729 183.217L86.414 183.03 86.4178 183.394C86.4207 183.733 86.6157 184.449 86.7377 184.571 86.767 184.6 86.8017 184.671 86.8148 184.73 86.8905 185.07 87.165 185.682 87.5764 186.43 88.1065 187.393 88.9082 188.953 88.9143 189.033 88.9162 189.062 88.9814 189.254 89.0586 189.458 89.1358 189.663 89.1921 189.866 89.1838 189.91 89.1752 189.954 89.2083 189.989 89.2567 189.989 89.3052 189.989 89.3453 190.049 89.346 190.122 89.3466 190.195 89.4233 190.518 89.5163 190.839 89.6094 191.161 89.7085 191.555 89.7368 191.714 89.7651 191.874 89.8123 192.044 89.8418 192.092 89.8714 192.14 89.9227 192.457 89.9557 192.796 89.9888 193.135 90.0379 193.515 90.0648 193.64 90.0916 193.765 90.1391 194.051 90.1702 194.274 90.2014 194.498 90.2828 194.785 90.3511 194.912L90.4753 195.143 90.6678 194.186C91.0764 192.156 91.4277 190.649 91.6681 189.894L91.9184 189.109 91.6543 188.656C91.5091 188.407 91.2338 187.995 91.0424 187.741 90.2252 186.658 89.5893 185.588 89.2739 184.765L88.9363 183.885 88.8676 182.979 88.7989 182.074 88.9408 181.436C89.1837 180.345 89.7951 178.723 90.4193 177.513 90.974 176.437 91.2518 176.137 91.2137 176.655 91.1917 176.953 91.4361 178.992 91.4937 178.992 91.5023 178.992 91.5254 179.064 91.5446 179.152 91.5638 179.239 91.6356 179.55 91.7041 179.842 91.7726 180.134 91.8501 180.493 91.8763 180.639 91.9024 180.785 91.9661 181.048 92.0178 181.224 92.2771 182.103 92.493 185.01 92.3468 185.653 92.219 186.215 92.1375 187.971 92.2391 187.971 92.3213 187.971 92.7616 186.988 92.7616 186.805 92.7616 186.677 94.4449 183.169 94.5477 183.083 94.5826 183.054 94.6759 182.903 94.755 182.749L94.8988 182.468 94.7668 182.058C94.6941 181.833 94.5285 181.433 94.3986 181.17 94.2687 180.907 94.0067 180.238 93.8164 179.683L93.4704 178.674 93.4594 177.398 93.4484 176.123 93.7483 175.401C94.2645 174.158 95.0831 173.021 96.5526 171.505 97.2291 170.808 97.4705 170.766 97.143 171.403L96.9676 171.744 96.9198 172.871C96.8936 173.491 96.852 174.62 96.8274 175.38 96.7475 177.857 96.7163 178.051 96.1489 179.612 96.025 179.953 95.8109 180.467 95.6731 180.754 95.5354 181.041 95.4606 181.3 95.507 181.329 95.5982 181.385 96.0203 180.867 96.2591 180.406 96.3406 180.248 96.6115 179.866 96.861 179.556 98.832 177.107 99.2801 176.419 99.4703 175.546 99.6408 174.764 100.457 173.551 101.35 172.753L102.114 172.07 103.117 171.575C103.67 171.304 104.288 171.049 104.491 171.011 104.695 170.972 104.91 170.902 104.97 170.855 105.03 170.809 105.196 170.748 105.34 170.721 105.483 170.694 106.005 170.573 106.499 170.452 108.03 170.077 109.579 169.782 109.648 169.851 109.738 169.941 109.541 170.239 109.301 170.379 108.787 170.676 107.876 171.486 106.446 172.917 105.081 174.283 103.952 175.077 101.588 176.337 100.703 176.808 99.7854 177.522 99.305 178.111 99.0533 178.421 98.7685 178.753 98.672 178.85 98.5755 178.947 98.3844 179.21 98.2474 179.435 98.1104 179.659 97.8543 180.002 97.6783 180.197 97.2875 180.63 97.1599 180.847 97.2451 180.933 97.2806 180.968 97.4671 180.833 97.6595 180.632 98.6511 179.597 99.7667 179.076 101.744 178.725 102.121 178.658 102.667 178.558 102.955 178.502 103.243 178.446 103.718 178.374 104.01 178.341 104.302 178.308 104.78 178.19 105.071 178.079 105.694 177.841 105.654 177.847 105.654 177.99 105.654 178.183 103.915 180.277 103.281 180.847 103.051 181.054 102.79 181.295 102.699 181.383 102.458 181.617 101.235 182.201 100.462 182.452L99.7888 182.67 97.9923 182.707C97.0043 182.728 96.1171 182.776 96.0207 182.815 95.9243 182.854 95.7878 183.026 95.7173 183.197 95.6467 183.368 95.5482 183.508 95.4983 183.508 95.4483 183.508 95.3776 183.628 95.3411 183.774 95.3046 183.92 95.2324 184.039 95.1806 184.039 95.1288 184.039 95.0864 184.088 95.0864 184.147 95.0864 184.281 94.6473 185.242 94.5531 185.314 94.493 185.36 94.2152 186.062 93.9851 186.749L93.9139 186.961 94.051 186.752C94.3865 186.241 95.2222 185.548 95.9419 185.185 96.6826 184.81 98.6019 184.146 98.9415 184.146 99.1877 184.146 101.029 183.512 101.304 183.333 101.694 183.079 101.699 183.248 101.32 183.852 101.127 184.16 100.886 184.579 100.784 184.783 100.682 184.988 100.511 185.251 100.405 185.369 100.299 185.487 100.035 185.846 99.8197 186.166 99.0472 187.315 97.6565 188.302 96.3183 188.652 96.0185 188.73 95.1976 188.829 94.494 188.872 93.7904 188.914 93.1577 188.984 93.088 189.027 93.0184 189.071 92.8683 189.484 92.7546 189.946 92.641 190.408 92.5175 190.858 92.4803 190.946 92.4031 191.128 92.4089 191.104 92.2345 191.955 92.1626 192.306 92.0671 192.664 92.0221 192.752 91.9772 192.84 91.909 193.222 91.8705 193.602L91.8007 194.293 92.0121 193.84C92.3246 193.172 93.1347 192.071 93.5682 191.726 93.777 191.56 94.0495 191.334 94.1737 191.225 94.2979 191.115 95.2792 190.594 96.3544 190.067 97.4297 189.539 98.5115 188.944 98.7585 188.745L99.2076 188.381 99.2076 188.558C99.2076 188.656 99.1402 188.886 99.058 189.07 98.9757 189.254 98.7556 189.835 98.5689 190.361 98.3822 190.887 98.0995 191.584 97.9408 191.909 97.5627 192.685 96.5588 194.044 96.1789 194.295 94.9696 195.093 94.1401 195.416 92.3125 195.801L91.4936 195.973 91.485 196.142C91.4802 196.235 91.454 196.479 91.4262 196.683 91.3984 196.888 91.3513 198.167 91.3216 199.526L91.2677 201.996 91.3804 201.996C91.4424 201.996 91.4931 201.88 91.4931 201.739 91.4931 201.405 92.084 199.713 92.368 199.233 92.8068 198.493 93.8411 197.332 94.0697 197.324 94.121 197.322 94.2399 197.232 94.3339 197.124 94.4279 197.016 94.8465 196.707 95.2641 196.438 96.2911 195.777 97.3256 194.928 97.4921 194.608 97.5673 194.464 97.6957 194.346 97.7773 194.346L97.9258 194.346 97.872 194.744C97.8425 194.963 97.7526 195.525 97.6723 195.993 97.592 196.46 97.5006 197.01 97.4691 197.215 97.4377 197.419 97.3968 197.634 97.3782 197.693 97.3597 197.751 97.2601 198.084 97.157 198.432 96.7111 199.936 95.9906 200.955 94.8746 201.658 94.4387 201.932 93.9632 202.211 93.8178 202.277 93.0182 202.642 91.8931 203.058 91.7088 203.058 91.4766 203.058 91.3263 203.439 91.4283 203.768 91.4612 203.875 91.5154 204.201 91.5486 204.493 91.5818 204.785 91.6504 205.192 91.7011 205.396 91.7518 205.601 91.8244 206.031 91.8625 206.352 91.9187 206.826 92.2303 208.212 92.5132 209.248 92.6299 209.675 92.7124 209.371 92.744 208.398 92.7916 206.933 93.2289 205.561 93.9501 204.614 94.1346 204.372 94.7553 203.698 95.3295 203.117 95.9037 202.535 96.5949 201.77 96.8656 201.417 97.1364 201.063 97.3935 200.758 97.4371 200.739 97.4807 200.719 97.5163 200.635 97.5163 200.553 97.5163 200.47 97.5876 200.402 97.6748 200.402L97.8333 200.402 97.8509 201.544C97.8776 203.274 97.8217 204.462 97.6747 205.29 97.6384 205.494 97.5904 205.773 97.5681 205.908 97.5459 206.044 97.3563 206.474 97.1469 206.864 96.7135 207.673 95.8068 208.577 94.892 209.113 94.5627 209.306 94.1644 209.553 94.007 209.661 93.8495 209.77 93.6474 209.859 93.5579 209.859 93.4683 209.859 93.3951 209.899 93.3951 209.948 93.3951 209.997 93.2762 210.092 93.1309 210.158 92.8028 210.308 92.8018 210.428 93.1223 211.158 93.2631 211.478 93.3939 211.831 93.4129 211.942 93.4319 212.052 93.4743 212.167 93.5069 212.196 93.5396 212.225 93.6782 212.536 93.8149 212.887 94.1121 213.649 94.838 215.266 94.9834 215.49 95.0404 215.578 95.1418 215.757 95.2088 215.888 95.3492 216.164 95.5645 216.216 95.4631 215.95 95.4259 215.853 95.3689 215.028 95.3366 214.117L95.2779 212.462 95.6392 211.579C95.8379 211.093 96.0799 210.603 96.177 210.489 96.2741 210.375 96.3535 210.234 96.3535 210.176 96.3535 210.118 96.3978 210.071 96.452 210.071 96.5062 210.071 96.579 209.981 96.6137 209.871 96.6484 209.761 96.7756 209.558 96.8964 209.42 97.2763 208.984 98.0442 207.871 98.0442 207.756 98.0442 207.695 98.0822 207.629 98.1284 207.61 98.2486 207.559 98.6782 206.602 98.6782 206.385 98.6782 206.276 98.7147 206.244 98.7695 206.305 98.9246 206.476 99.1064 207.122 99.1719 207.734 99.2063 208.055 99.2795 208.438 99.3344 208.584 99.5146 209.063 99.5765 209.783 99.5719 211.346L99.5671 212.887 99.097 213.665C98.4732 214.696 97.8939 215.291 96.5934 216.235 96.2314 216.497 95.9076 216.795 95.8737 216.895L95.8122 217.079 96.8457 218.649C97.6558 219.879 98.8061 221.443 99.2904 221.971 99.3559 222.043 99.2777 221.586 99.0177 220.378 98.6773 218.796 98.6691 218.678 98.8338 217.737L98.9891 216.849 99.8303 215.133C100.624 213.514 100.857 212.912 100.922 212.311 100.979 211.787 101.199 211.985 101.528 212.855 101.712 213.34 102.002 214.091 102.174 214.524 102.345 214.957 102.51 215.455 102.541 215.631 102.572 215.806 102.622 215.99 102.651 216.039 102.837 216.341 102.883 218.339 102.714 218.784 102.659 218.93 102.612 219.092 102.61 219.144 102.608 219.196 102.566 219.268 102.518 219.303 102.469 219.339 102.334 219.558 102.218 219.791 101.989 220.25 100.46 221.963 100.084 222.184 99.9561 222.259 99.8298 222.377 99.8031 222.447 99.7299 222.639 101.018 224.047 102.382 225.265 102.873 225.704 103.367 226.146 103.48 226.248 103.837 226.572 103.86 226.454 103.582 225.717 103.169 224.622 102.905 223.579 102.905 223.041 102.904 222.407 103.177 221.22 103.495 220.473 103.9 219.521 104.279 218.082 104.279 217.494L104.279 216.952 104.437 217.084C104.524 217.157 104.596 217.276 104.596 217.35 104.596 217.423 104.663 217.539 104.744 217.607 104.826 217.675 104.972 217.884 105.069 218.072 105.166 218.259 105.303 218.508 105.373 218.625 105.566 218.944 105.946 219.68 105.95 219.74 105.952 219.77 106.1 220.089 106.279 220.451 106.457 220.813 106.603 221.187 106.603 221.282 106.603 221.377 106.654 221.55 106.716 221.667 106.923 222.055 106.944 223.003 106.761 223.647 106.542 224.413 106.19 225.025 105.464 225.903 104.63 226.91 104.596 226.957 104.596 227.08 104.596 227.209 104.858 227.497 104.975 227.497 105.018 227.497 105.129 227.569 105.221 227.657 105.462 227.889 106.38 228.521 106.835 228.769 107.05 228.886 107.385 229.09 107.579 229.222 108.161 229.617 109.553 230.304 109.624 230.232 109.661 230.195 109.502 229.935 109.271 229.654 109.04 229.373 108.714 228.857 108.546 228.506L108.241 227.868 108.241 225.531 108.241 223.193 108.103 222.949C108.026 222.814 107.981 222.623 108.003 222.524L108.042 222.343 109.199 223.512C111.036 225.367 111.378 225.804 111.842 226.888L112.062 227.401 112.026 228.007C112.006 228.34 111.941 228.761 111.882 228.942 111.823 229.123 111.756 229.371 111.733 229.493 111.709 229.615 111.609 230.005 111.51 230.361 111.41 230.717 111.348 231.023 111.37 231.04 111.393 231.057 111.649 231.15 111.94 231.247 113.511 231.769 113.853 231.902 113.999 232.05L114.159 232.213 113.96 232.137C113.85 232.095 113.185 232.062 112.48 232.064L111.2 232.067 110.091 232.324C109.48 232.466 108.458 232.73 107.819 232.912 105.228 233.648 103.011 233.9 101.214 233.661ZM145.016 233.702C143.124 233.423 142.392 233.26 141.211 232.856 140.979 232.776 140.313 232.583 139.732 232.427L138.675 232.143 136.95 232.091C136.001 232.063 135.264 232.006 135.312 231.964 135.36 231.923 135.828 231.734 136.351 231.544 137.537 231.114 137.837 230.962 137.804 230.809 137.79 230.743 137.631 230.102 137.449 229.385L137.12 228.081 137.18 227.576C137.26 226.893 137.564 226.238 138.167 225.448 138.705 224.744 140.927 222.502 141.088 222.502 141.14 222.502 141.152 222.634 141.115 222.795 140.948 223.503 140.888 224.494 140.975 225.094 141.027 225.451 141.041 226.197 141.007 226.753 140.924 228.109 140.714 228.667 139.897 229.707 139.661 230.007 139.468 230.311 139.468 230.383L139.468 230.514 139.595 230.386C139.664 230.316 139.807 230.259 139.912 230.259 140.016 230.259 140.102 230.22 140.102 230.172 140.102 230.125 140.28 229.989 140.498 229.87 141.244 229.464 141.635 229.228 142.427 228.706 143.595 227.937 144.646 227.169 144.646 227.085 144.646 227.003 144.324 226.581 143.874 226.076 142.955 225.042 142.317 223.726 142.298 222.825 142.277 221.81 142.96 220.055 144.118 218.146 144.313 217.825 144.536 217.454 144.614 217.323 144.827 216.965 144.927 217.032 144.93 217.535 144.934 217.964 145.233 219.354 145.371 219.581 145.487 219.77 145.921 221.049 146.125 221.801 146.346 222.616 146.343 223.728 146.12 224.256 146.045 224.431 145.98 224.646 145.974 224.734 145.968 224.822 145.926 224.953 145.88 225.026 145.834 225.099 145.821 225.159 145.852 225.159 145.883 225.159 145.791 225.381 145.647 225.653 145.503 225.924 145.386 226.244 145.386 226.362L145.386 226.577 145.571 226.405C147.791 224.341 149.084 223.074 149.084 222.965 149.084 222.924 149.163 222.803 149.26 222.696L149.436 222.5 148.593 221.678C147.067 220.189 146.495 219.221 146.384 217.934L146.315 217.137 146.546 216.181C146.763 215.286 147.642 212.845 147.997 212.154L148.154 211.846 148.24 211.985C148.286 212.061 148.3 212.188 148.27 212.267 148.178 212.507 148.534 213.443 149.353 215.118 149.781 215.995 150.157 216.831 150.188 216.977 150.434 218.139 150.473 218.497 150.421 219.102 150.389 219.482 150.285 220.08 150.19 220.431 150.096 220.781 150.001 221.152 149.98 221.254 149.959 221.357 149.912 221.488 149.877 221.546 149.842 221.604 149.856 221.729 149.909 221.825L150.006 221.999 150.36 221.482C150.658 221.047 151.524 219.842 151.804 219.474 151.848 219.416 152.063 219.093 152.281 218.757 152.499 218.421 152.85 217.882 153.062 217.558L153.447 216.971 153.194 216.697C153.055 216.546 152.669 216.236 152.337 216.008 151.147 215.191 150.234 214.1 149.8 212.978L149.56 212.355 149.574 211.025 149.588 209.695 149.823 208.581C150.139 207.092 150.342 206.352 150.435 206.352 150.477 206.352 150.571 206.543 150.643 206.775 150.801 207.282 151.499 208.454 152.038 209.115 152.252 209.378 152.543 209.783 152.684 210.016 152.826 210.249 153 210.536 153.071 210.654 153.922 212.057 154.024 212.751 153.779 215.463 153.74 215.887 153.74 216.234 153.779 216.234 153.858 216.234 154.93 214.027 155.43 212.834 155.82 211.904 156.27 210.614 156.27 210.426 156.27 210.354 155.687 209.948 154.975 209.524L153.681 208.754 152.931 207.992C152.079 207.126 151.793 206.608 151.55 205.489L151.38 204.705 151.387 202.594C151.391 201.338 151.436 200.439 151.499 200.376L151.604 200.27 151.891 200.841 152.178 201.411 153.511 202.764C155.241 204.519 155.206 204.478 155.678 205.329 156.147 206.173 156.354 206.962 156.427 208.179 156.455 208.654 156.508 209.137 156.545 209.252L156.611 209.462 156.703 209.315C156.754 209.234 156.796 209.015 156.797 208.829 156.798 208.642 156.84 208.464 156.891 208.433 156.971 208.383 157.05 208.061 157.18 207.255 157.198 207.138 157.286 206.684 157.374 206.246 157.682 204.722 157.833 203.538 157.744 203.367 157.695 203.274 157.403 203.098 157.095 202.975 153.827 201.676 152.922 200.907 152.156 198.779 151.935 198.166 151.462 195.821 151.357 194.824L151.29 194.186 151.746 194.678C152.232 195.201 153.85 196.471 154.031 196.471 154.091 196.471 154.155 196.509 154.175 196.557 154.194 196.604 154.433 196.795 154.705 196.982 155.275 197.373 156.376 198.418 156.376 198.568 156.376 198.624 156.469 198.754 156.583 198.857 156.845 199.096 157.431 200.492 157.585 201.244 157.65 201.561 157.768 201.843 157.848 201.87L157.994 201.918 157.918 199.487C157.877 198.149 157.81 196.816 157.77 196.524L157.697 195.993 157.169 195.858C156.878 195.785 156.284 195.65 155.848 195.559 155.412 195.468 154.652 195.2 154.16 194.962L153.265 194.529 152.556 193.798 151.847 193.066 151.472 192.298C151.266 191.876 150.954 191.16 150.779 190.707 150.604 190.255 150.418 189.801 150.364 189.698 150.197 189.377 150.023 188.609 150.092 188.497 150.129 188.437 150.28 188.521 150.44 188.692 150.737 189.008 151.217 189.28 153.2 190.253 154.468 190.875 155.531 191.529 155.531 191.688 155.531 191.739 155.618 191.809 155.725 191.843 155.926 191.908 156.65 192.848 156.992 193.49 157.209 193.896 157.489 194.073 157.401 193.747 157.372 193.638 157.266 193.166 157.166 192.699 156.96 191.733 156.428 189.761 156.256 189.329 156.115 188.971 156.062 188.956 154.633 188.872 151.73 188.702 150.314 187.743 148.319 184.597 147.683 183.595 147.493 183.189 147.659 183.189 147.688 183.189 147.938 183.305 148.214 183.446 148.489 183.586 149 183.779 149.349 183.874 149.698 183.969 150.288 184.145 150.661 184.266 151.034 184.387 151.601 184.554 151.92 184.637 153.05 184.933 153.948 185.466 154.807 186.35 154.991 186.54 155.173 186.696 155.212 186.696 155.25 186.696 155.112 186.346 154.904 185.918 154.697 185.49 154.475 185.024 154.412 184.882 154.023 184.007 153.341 182.861 153.18 182.809 153.075 182.776 152.242 182.734 151.328 182.716 148.156 182.655 146.908 182.064 144.757 179.603 144.387 179.18 144.001 178.695 143.898 178.526 143.796 178.357 143.661 178.187 143.598 178.148 143.535 178.109 143.484 178.009 143.484 177.927L143.484 177.778 143.936 177.973C144.467 178.202 145.166 178.362 146.549 178.571 148.533 178.871 149.554 179.178 150.483 179.756 150.7 179.891 150.899 180.002 150.926 180.002 150.953 180.002 151.211 180.243 151.5 180.538 151.789 180.833 152.054 181.027 152.089 180.97 152.124 180.913 152.066 180.803 151.959 180.726 151.853 180.649 151.738 180.514 151.704 180.427 151.584 180.117 149.423 177.501 149.072 177.24 148.583 176.877 147.697 176.338 146.813 175.864 145.591 175.209 145.245 175.004 144.858 174.704 144.654 174.546 144.355 174.332 144.193 174.229 144.031 174.125 143.294 173.449 142.555 172.727 141.03 171.234 140.835 171.057 140.159 170.556 139.891 170.358 139.69 170.143 139.712 170.078 139.763 169.929 140.542 169.948 141.159 170.114 141.421 170.184 141.754 170.258 141.899 170.279 143.592 170.521 145.96 171.386 147.178 172.208 147.943 172.724 149.142 174.053 149.166 174.412 149.17 174.463 149.213 174.535 149.262 174.571 149.311 174.607 149.514 175.042 149.714 175.539 149.913 176.036 150.127 176.477 150.188 176.52 150.25 176.563 150.263 176.599 150.218 176.6 150.093 176.603 150.436 177.216 150.756 177.564 150.912 177.734 151.158 178.044 151.304 178.254 151.449 178.464 151.743 178.835 151.956 179.079 152.419 179.608 152.889 180.29 152.889 180.431 152.889 180.487 152.931 180.533 152.982 180.533 153.033 180.533 153.223 180.76 153.404 181.038 153.853 181.728 153.818 181.49 153.264 180.082 153.005 179.424 152.719 178.592 152.63 178.233 152.461 177.56 152.238 174.963 152.329 174.726 152.401 174.536 152.17 171.731 152.046 171.296 151.988 171.095 151.968 170.904 152.001 170.871 152.034 170.838 152.307 171.081 152.607 171.411 154.503 173.496 155.073 174.34 155.576 175.805L155.831 176.548 155.807 177.398C155.793 177.866 155.75 178.368 155.71 178.514 155.67 178.66 155.606 178.947 155.568 179.152 155.531 179.356 155.34 179.89 155.145 180.338 154.95 180.785 154.791 181.224 154.791 181.313 154.791 181.402 154.732 181.537 154.659 181.614 154.586 181.692 154.47 181.915 154.4 182.111L154.273 182.466 154.528 182.872C154.668 183.095 154.813 183.402 154.851 183.554 154.889 183.705 154.99 183.869 155.076 183.917 155.162 183.966 155.227 184.037 155.22 184.077 155.213 184.116 155.371 184.494 155.569 184.917 156.034 185.911 156.252 186.402 156.541 187.117 156.67 187.436 156.829 187.715 156.893 187.737 157.049 187.789 157.045 186.899 156.884 185.784L156.759 184.914 156.885 183.441C156.954 182.63 157.057 181.776 157.113 181.542 157.169 181.309 157.291 180.807 157.383 180.427 157.753 178.899 157.877 178.206 157.943 177.292 157.984 176.741 158.058 176.347 158.119 176.363 158.282 176.404 159.742 179.373 159.822 179.827 159.865 180.073 160.162 181.125 160.261 181.383 160.388 181.716 160.35 183.401 160.201 184.042 160.085 184.541 159.356 186.084 159.207 186.147 159.161 186.166 159.123 186.242 159.123 186.316 159.123 186.39 159.028 186.537 158.911 186.642 158.795 186.748 158.7 186.877 158.7 186.929 158.7 187.05 158.279 187.653 158.04 187.877 157.938 187.971 157.855 188.08 157.855 188.118 157.855 188.156 157.728 188.379 157.574 188.613L157.294 189.039 157.467 189.594C157.563 189.899 157.762 190.675 157.909 191.318 158.057 191.96 158.221 192.63 158.274 192.805 158.327 192.98 158.4 193.315 158.437 193.549 158.473 193.783 158.553 194.234 158.613 194.551L158.723 195.128 158.806 194.976C158.942 194.726 159.228 193.187 159.228 192.709 159.228 192.464 159.275 192.217 159.331 192.16 159.388 192.103 159.478 191.742 159.532 191.358 159.586 190.973 159.73 190.462 159.852 190.222 159.974 189.982 160.074 189.724 160.073 189.648 160.073 189.573 160.621 188.404 161.29 187.05 162.004 185.608 162.579 184.3 162.68 183.889L162.852 183.189 162.984 183.299C163.056 183.36 163.14 183.563 163.17 183.751 163.2 183.939 163.276 184.284 163.34 184.517 163.704 185.858 163.882 188.816 163.667 189.933 163.523 190.679 162.968 191.884 162.431 192.613 162.035 193.151 160.665 194.52 159.863 195.178 159.602 195.392 159.273 195.672 159.132 195.8L158.875 196.032 158.915 197.341C158.937 198.06 158.957 199.539 158.959 200.628L158.963 202.607 159.096 202.556C159.168 202.527 159.228 202.417 159.228 202.31 159.228 202.202 159.27 202.089 159.32 202.057 159.371 202.026 159.443 201.848 159.48 201.661 159.517 201.474 159.689 201.019 159.863 200.649 160.037 200.279 160.179 199.925 160.179 199.863 160.179 199.696 161.224 197.693 161.431 197.464 161.529 197.356 161.794 197.005 162.021 196.683 162.477 196.038 163.203 195.162 163.772 194.571 164.569 193.743 165.609 192.35 165.863 191.769 166.011 191.433 166.174 191.158 166.225 191.158 166.336 191.158 166.306 193.512 166.189 193.974 166.145 194.149 166.085 194.603 166.058 194.983 165.939 196.604 165.088 198.826 164.23 199.753 163.982 200.023 163.777 200.279 163.775 200.322 163.773 200.366 163.701 200.402 163.614 200.402 163.526 200.402 163.455 200.455 163.455 200.52 163.455 200.682 162.836 201.165 162.293 201.426 162.205 201.468 162.11 201.534 162.081 201.574 161.989 201.699 161.216 202.157 160.126 202.733 159.545 203.04 159.022 203.336 158.964 203.392 158.906 203.447 158.805 203.861 158.74 204.312 158.674 204.762 158.562 205.537 158.49 206.033 158.418 206.53 158.323 206.984 158.279 207.043 158.235 207.101 158.167 207.408 158.127 207.725 158.087 208.042 158.015 208.377 157.968 208.469 157.836 208.726 157.718 209.677 157.827 209.61 157.923 209.55 159.284 207.585 159.509 207.182 159.767 206.719 160.947 205.475 161.98 204.577 162.694 203.957 162.599 204.028 165.418 201.996 165.864 201.674 166.579 201.062 167.008 200.634 167.437 200.206 167.788 199.913 167.788 199.982 167.788 200.198 167.145 202.232 166.879 202.859 166.739 203.188 166.625 203.499 166.625 203.551 166.625 203.603 166.53 203.825 166.414 204.043 166.297 204.261 166.238 204.44 166.282 204.441 166.325 204.442 166.308 204.478 166.242 204.521 166.177 204.564 165.951 204.946 165.739 205.369 165.528 205.793 165.311 206.14 165.257 206.14 165.204 206.14 165.132 206.227 165.099 206.333 165.065 206.44 164.954 206.619 164.852 206.732 164.75 206.845 164.561 207.075 164.431 207.243 164.301 207.412 163.945 207.733 163.64 207.957 163.335 208.181 163.038 208.404 162.979 208.453 162.653 208.725 160.888 209.47 159.651 209.858 158.866 210.104 158.023 210.375 157.778 210.461L157.332 210.618 157.237 210.955C157.115 211.388 156.379 213.278 156.277 213.418 156.235 213.476 156.112 213.763 156.005 214.056 155.897 214.348 155.63 214.928 155.41 215.344 154.781 216.538 154.923 216.474 156.636 214.799 158.039 213.427 160.222 212.042 162.24 211.243 162.589 211.105 162.922 210.957 162.98 210.913 163.038 210.868 163.347 210.73 163.667 210.604 164.194 210.397 165.786 209.624 166.394 209.28 166.529 209.204 166.785 209.004 166.963 208.836L167.288 208.53 167.22 208.815C167.183 208.972 166.951 209.397 166.704 209.76 166.457 210.123 166.136 210.625 165.991 210.876 165.846 211.127 165.602 211.467 165.45 211.631 165.298 211.796 165.085 212.074 164.977 212.249 164.636 212.804 163.35 214.178 162.623 214.763 162.238 215.074 161.899 215.353 161.87 215.384 161.841 215.416 161.46 215.615 161.025 215.829 159.619 216.515 157.987 216.876 155.53 217.043 154.552 217.109 154.391 217.16 154.307 217.429 154.267 217.561 154.097 217.842 153.93 218.055 153.764 218.268 153.628 218.466 153.628 218.495 153.628 218.573 152.755 219.883 152.621 220.006 152.557 220.064 152.322 220.387 152.098 220.723 151.874 221.059 151.643 221.334 151.585 221.334 151.527 221.334 151.511 221.366 151.551 221.406 151.59 221.446 151.493 221.614 151.335 221.78L151.048 222.082 151.394 221.961C151.584 221.894 151.962 221.681 152.234 221.487 152.936 220.988 154.94 219.848 155.346 219.716 155.534 219.655 155.772 219.563 155.874 219.512 156.216 219.34 157.236 219.021 158.436 218.712 159.036 218.557 159.328 218.494 161.236 218.105 161.672 218.016 162.219 217.884 162.451 217.812 162.684 217.741 162.898 217.675 162.927 217.668 163.611 217.483 163.98 217.34 164.304 217.135L164.7 216.883 164.647 217.086C164.57 217.385 161.601 220.266 161.368 220.269 161.295 220.27 161.236 220.309 161.236 220.355 161.236 220.4 161.105 220.516 160.945 220.611 160.785 220.706 160.512 220.911 160.338 221.065 160.163 221.22 159.854 221.441 159.651 221.556 159.447 221.67 159.076 221.886 158.825 222.034 158.029 222.505 156.522 222.941 155.274 223.06L154.12 223.171 152.288 223.053 150.457 222.936 149.004 224.398C148.205 225.203 147.254 226.133 146.892 226.466 146.529 226.799 146.302 227.071 146.389 227.071 146.475 227.071 146.891 226.923 147.313 226.741 147.735 226.559 148.187 226.368 148.317 226.316 148.448 226.264 148.662 226.176 148.793 226.12 149.446 225.841 149.908 225.671 150.245 225.586 150.449 225.534 150.903 225.42 151.254 225.332 152.367 225.053 154.351 224.852 156.568 224.793 157.749 224.762 158.747 224.718 158.787 224.695 158.826 224.672 159.096 224.624 159.387 224.588 159.677 224.553 160.079 224.476 160.281 224.418 160.929 224.228 160.832 224.466 160.063 224.951 159.651 225.212 159.258 225.475 159.191 225.537 159.124 225.598 158.856 225.765 158.594 225.908 158.333 226.05 157.971 226.274 157.792 226.406 157.612 226.538 157.414 226.646 157.351 226.646 157.289 226.646 157.222 226.683 157.203 226.727 157.163 226.819 155.301 227.706 154.579 227.979 153.671 228.321 152.325 228.555 151.262 228.557 150.057 228.559 149.008 228.405 146.6 227.873 146.194 227.783 145.769 227.709 145.658 227.709 145.546 227.709 145.135 227.944 144.744 228.231 144.353 228.518 143.921 228.812 143.784 228.884 143.648 228.956 143.512 229.05 143.483 229.092 143.454 229.134 143.169 229.32 142.849 229.506 142.529 229.691 142.196 229.888 142.109 229.942 141.395 230.386 140.448 230.933 140.268 231.006L140.049 231.096 140.366 231.104C140.54 231.109 141.016 231.039 141.422 230.951 141.829 230.862 142.619 230.73 143.177 230.657L144.192 230.524 145.766 230.593C147.488 230.669 147.703 230.692 148.872 230.935 150.588 231.292 151.715 231.449 152.65 231.465 153.188 231.474 153.627 231.513 153.627 231.553 153.627 231.593 153.291 231.798 152.881 232.009 152.47 232.219 152.054 232.433 151.956 232.484 151.336 232.807 150.311 233.177 149.424 233.399L148.397 233.655 146.864 233.702C146.022 233.727 145.19 233.727 145.015 233.702ZM127.421 221.005C126.36 220.914 125.828 220.785 125.167 220.458 124.944 220.347 124.404 220.189 123.967 220.105 123.531 220.021 123.136 219.929 123.091 219.901 122.877 219.768 122.921 219.277 123.195 218.747 123.354 218.439 123.616 217.736 123.777 217.185L124.07 216.183 124.007 214.708C123.973 213.897 123.922 213.211 123.895 213.184 123.868 213.156 123.639 213.251 123.388 213.396 122.446 213.935 121.752 214.284 121.24 214.475 120.454 214.767 119.109 215.447 118.879 215.668 118.768 215.775 118.647 215.961 118.61 216.082 118.573 216.203 118.46 216.394 118.358 216.507 118.097 216.796 117.94 217.19 117.854 217.766 117.813 218.039 117.714 218.329 117.634 218.409 117.554 218.49 117.488 218.588 117.488 218.627 117.488 218.666 117.381 218.847 117.25 219.031 116.932 219.476 116.765 219.755 116.686 219.975 116.65 220.076 116.534 220.185 116.43 220.219 116.325 220.252 116.213 220.349 116.18 220.435 116.115 220.607 115.721 220.639 115.488 220.49L115.337 220.394 115.479 219.775C115.558 219.434 115.673 219.088 115.736 219.006 115.875 218.825 115.853 216.22 115.71 215.943 115.657 215.84 115.581 215.534 115.542 215.263L115.471 214.77 115.639 214.602C115.731 214.509 116.007 214.379 116.251 214.314 117.029 214.107 119.146 212.974 119.267 212.701 119.286 212.657 119.361 212.621 119.433 212.621 119.505 212.621 120.058 212.108 120.662 211.481 121.266 210.854 122.054 210.09 122.413 209.784L123.066 209.227 123.14 208.386 123.214 207.545 122.719 206.528C122.447 205.969 122.157 205.456 122.075 205.388 121.993 205.319 121.927 205.198 121.927 205.117 121.927 205.037 121.891 204.971 121.847 204.97 121.804 204.97 121.64 204.767 121.484 204.519 121.328 204.27 120.748 203.637 120.194 203.111 119.641 202.585 118.936 201.915 118.629 201.623 117.787 200.821 117.554 200.475 117.23 199.538 116.977 198.809 117.027 198.182 117.423 197.087 117.851 195.905 118.461 194.748 119.361 193.413 119.726 192.871 120.024 192.385 120.024 192.333 120.024 192.281 120.062 192.222 120.107 192.203 120.212 192.158 120.659 191.392 120.659 191.257 120.659 191.201 120.849 190.875 121.081 190.533 121.314 190.19 121.504 189.873 121.504 189.827 121.504 189.781 121.623 189.587 121.768 189.395 121.913 189.204 122.032 188.996 122.032 188.934 122.032 188.871 122.068 188.82 122.112 188.82 122.155 188.819 122.31 188.641 122.455 188.423 122.96 187.666 124.83 185.937 125.863 185.273 126.197 185.058 126.47 184.816 126.47 184.734 126.47 184.652 126.34 184.487 126.18 184.367 126.02 184.246 125.832 184.099 125.762 184.04 125.691 183.981 125.611 183.933 125.583 183.933 125.519 183.933 124.112 183.058 124.04 182.974 124.011 182.94 123.559 182.636 123.036 182.299 122.513 181.962 121.871 181.53 121.61 181.339 121.348 181.149 120.733 180.835 120.244 180.642L119.354 180.291 119.187 180.397C119.096 180.455 118.851 180.748 118.643 181.048 118.177 181.724 117.188 182.51 116.605 182.669 115.951 182.846 115.031 182.712 114.33 182.337 113.455 181.868 113.041 181.444 112.638 180.608L112.396 180.106 112.455 179.018C112.487 178.419 112.516 177.819 112.518 177.684 112.525 177.344 112.781 176.878 113.071 176.678 113.205 176.586 113.454 176.386 113.626 176.234L113.937 175.957 114.101 176.039C114.192 176.084 114.812 176.123 115.481 176.126 117.147 176.133 117.464 176.241 118.299 177.093 118.861 177.667 119.449 178.049 119.919 178.145 120.122 178.186 120.336 178.254 120.394 178.296 120.453 178.338 120.881 178.48 121.346 178.611 122.193 178.85 123.111 179.241 123.177 179.39 123.197 179.434 123.259 179.47 123.316 179.47 123.599 179.47 125.896 180.63 126.999 181.329 127.242 181.484 127.805 181.73 128.249 181.876 128.693 182.021 129.08 182.173 129.11 182.213 129.141 182.253 129.345 182.441 129.565 182.631 129.785 182.821 129.942 182.976 129.914 182.976 129.885 182.976 129.969 183.092 130.099 183.233 130.229 183.374 130.405 183.625 130.49 183.791 130.575 183.956 130.673 184.116 130.707 184.145 130.742 184.175 130.837 184.338 130.919 184.51 131.011 184.703 131.292 184.943 131.661 185.144L132.254 185.467 132.665 185.105C132.89 184.906 133.254 184.517 133.473 184.241 133.886 183.719 134.261 183.453 134.977 183.17L135.4 183.003 136.192 183.083C136.628 183.128 137.097 183.191 137.234 183.225 137.601 183.317 138.129 183.755 138.293 184.105 138.372 184.273 138.497 184.53 138.571 184.676 138.762 185.056 138.86 186.156 138.739 186.564 138.545 187.219 137.684 187.832 136.087 188.452 135.058 188.851 134.509 189.14 134.404 189.336 134.342 189.453 134.309 190.018 134.327 190.642L134.36 191.742 134.612 192.486C134.75 192.895 134.865 193.262 134.867 193.301 134.87 193.339 134.907 193.407 134.951 193.451 135.051 193.552 135.056 194.709 134.957 194.809 134.916 194.85 134.873 194.941 134.861 195.013 134.797 195.39 134.724 195.719 134.615 196.125 134.548 196.373 134.475 196.803 134.453 197.081 134.43 197.359 134.355 197.801 134.286 198.064 134.217 198.327 134.147 198.647 134.13 198.775 134.113 198.904 134.065 199.064 134.024 199.131 133.982 199.198 133.933 199.404 133.914 199.589 133.804 200.657 133.357 202.217 132.908 203.096 132.46 203.974 132.456 203.979 131.985 204.51 131.821 204.695 131.548 205.025 131.377 205.245 131.207 205.464 130.95 205.744 130.807 205.865 130.664 205.987 130.403 206.226 130.227 206.396 130.051 206.566 129.624 206.913 129.277 207.166 128.931 207.42 128.682 207.627 128.723 207.627 128.765 207.627 128.723 207.806 128.631 208.025 128.532 208.26 128.465 208.713 128.468 209.125 128.476 210.206 128.317 210.61 127.767 210.905 127.516 211.041 127.267 211.514 127.156 212.07 127.117 212.264 127.018 212.551 126.937 212.708 126.856 212.864 126.789 213.074 126.788 213.172 126.788 213.271 126.744 213.38 126.69 213.413 126.448 213.563 126.386 215.285 126.569 216.805 126.788 218.629 127.057 219.041 128.458 219.692 129.726 220.281 129.94 220.583 129.245 220.807 129.027 220.877 128.803 220.976 128.748 221.028 128.693 221.079 128.598 221.114 128.537 221.106 128.476 221.098 127.974 221.053 127.422 221.005ZM129.138 204.681C129.805 204.204 129.901 204.087 130.074 203.536 130.209 203.11 130.564 202.505 130.72 202.438 130.765 202.419 130.804 202.347 130.806 202.279 130.808 202.211 130.998 201.941 131.229 201.68L131.649 201.206 131.633 200.193C131.624 199.636 131.676 198.821 131.748 198.383 131.871 197.64 131.942 196.879 131.996 195.727L132.018 195.249 131.158 195.218 130.299 195.187 129.362 195.649C128.847 195.903 128.198 196.245 127.921 196.409L127.416 196.706 127.089 196.57 126.763 196.434 126.568 196.692C126.254 197.105 125.86 198.472 125.782 199.415L125.709 200.288 125.987 201.062C126.14 201.488 126.388 202.075 126.539 202.368 126.798 202.867 127.505 204.004 127.63 204.121 127.661 204.15 127.823 204.377 127.991 204.625 128.159 204.874 128.36 205.077 128.44 205.077 128.519 205.077 128.833 204.899 129.138 204.681Z" id="path42614" stroke-width="0.105961" fill="#FFFFFF"/></g></svg>