<svg width="268.44" height="189.131" xmlns="http://www.w3.org/2000/svg" xmlns:xlink="http://www.w3.org/1999/xlink" id="svg42644" xml:space="preserve" overflow="hidden"><defs id="defs42648"></defs><g id="g42650" transform="matrix(3.77953 0 0 3.77953 -309.337 -691.356)"><path d="M102.12 232.864C102.12 232.81 102.362 232.627 102.658 232.458 103.236 232.129 106.306 230.585 106.384 230.585 106.469 230.585 108.222 229.668 108.77 229.336 111.403 227.742 111.847 226.395 110.36 224.507 110.117 224.199 109.686 223.747 109.402 223.504 108.667 222.875 107.188 221.961 106.425 221.664 105.566 221.329 104.427 220.76 103.557 220.23L102.852 219.801 102.378 219.815C102.118 219.823 101.4 219.879 100.784 219.941 100.168 220.003 98.384 220.081 96.8199 220.115L93.9761 220.176 92.8175 220.053C88.8245 219.628 85.9583 218.409 84.105 216.346 82.9764 215.09 82.287 213.633 81.9925 211.884L81.8453 211.01 81.8961 210.128C82.0253 207.884 82.9397 205.88 84.4689 204.491 85.201 203.826 86.5473 203.066 87.5991 202.725L88.4609 202.445 90.1413 202.437 91.8217 202.429 92.6532 202.654C94.0238 203.025 95.6551 203.822 96.8651 204.712L97.3411 205.061 101.656 205.13 105.97 205.198 107.255 206.641C111.987 211.955 114.124 214.641 116.005 217.636 117.06 219.316 117.876 221.346 117.954 222.482 118.009 223.276 117.916 223.48 117.398 223.711 116.077 224.302 115.046 225.549 115.046 226.557 115.046 227.663 116.125 228.509 119.829 230.308 120.824 230.792 121.968 231.359 122.371 231.57 122.774 231.78 123.359 232.081 123.672 232.24 124.313 232.564 124.612 232.769 124.612 232.884 124.612 232.927 119.551 232.962 113.366 232.962 106.329 232.962 102.12 232.926 102.12 232.864ZM106.773 216.49 106.773 214.693 106.91 214.63C106.985 214.596 107.66 214.567 108.411 214.567L109.776 214.567 109.831 213.922C109.861 213.566 109.874 212.741 109.859 212.087L109.832 210.899 108.324 210.847 106.816 210.796 106.773 208.987 106.73 207.179 105.203 207.151 103.675 207.122 103.651 208.907 103.628 210.692 102.12 210.744 100.612 210.796 100.612 212.656 100.612 214.516 102.12 214.568 103.628 214.619 103.65 216.324C103.662 217.262 103.69 218.088 103.712 218.159L103.752 218.288 105.262 218.288 106.773 218.288ZM99.4199 217.633C99.4391 217.61 99.0143 217.062 98.4758 216.415 97.0831 214.743 96.3345 213.282 95.8225 211.239L95.5559 210.176 95.5086 208.485 95.4613 206.795 95.0728 206.5C94.5225 206.081 93.5227 205.6 92.5606 205.29L91.7355 205.025 90.1844 205.017 88.6332 205.009 87.9869 205.251C86.9648 205.634 86.3735 206.062 85.6286 206.959L84.9508 207.776 84.7055 208.407C84.424 209.133 84.1952 210.119 84.1952 210.606 84.1952 212.833 85.869 215.263 88.0649 216.224 89.1073 216.68 90.5659 217.112 91.6925 217.299 92.2375 217.39 92.858 217.493 93.0713 217.529 94.2005 217.718 99.2795 217.802 99.4199 217.633ZM96.4784 232.367C96.5759 231.669 96.8782 230.651 97.2346 229.821L97.5846 229.005 98.2905 228.115 98.9965 227.226 99.7179 226.741C100.929 225.928 102.358 225.433 104.15 225.207 105.135 225.082 109.423 225.054 110.189 225.167L110.631 225.232 110.731 225.493C110.991 226.178 110.907 227.265 110.578 227.476 110.49 227.533 109.882 227.528 109.055 227.465 107.219 227.326 104.028 227.415 103.025 227.635 101.581 227.95 100.873 228.215 99.8051 228.839L98.7401 229.462 98.0371 230.307C97.6035 230.829 97.1862 231.46 96.9483 231.954 96.7361 232.395 96.5314 232.755 96.4934 232.755 96.4554 232.755 96.4487 232.581 96.4784 232.367ZM115.629 227.396C115.505 227.218 115.377 226.975 115.345 226.856 115.268 226.563 115.357 226.054 115.554 225.667L115.716 225.348 116.264 225.165C116.566 225.064 116.954 224.895 117.127 224.79 117.583 224.512 118.031 223.833 118.149 223.243L118.25 222.739 118.155 222.206C118.034 221.532 117.687 220.467 117.347 219.734 116.957 218.892 115.888 217.032 115.76 216.973 115.699 216.945 115.649 216.878 115.649 216.824 115.649 216.666 114.926 215.599 113.665 213.896 112.83 212.767 110.44 209.912 108.971 208.288 106.771 205.857 105.606 204.417 104.986 203.366 104.321 202.237 103.583 200.451 103.274 199.222L103.04 198.292 103.036 196.535 103.032 194.778 103.223 193.951C104.097 190.15 106.869 187.053 110.779 185.506 112.143 184.967 113.175 184.731 114.596 184.634L115.574 184.567 115.922 183.952 116.27 183.338 116.662 183.13 117.055 182.921 117.709 182.969 118.363 183.017 118.999 183.344C119.892 183.804 120.704 184.48 121.346 185.298L121.896 185.999 122.054 186.536 122.213 187.073 122.115 187.429 122.017 187.784 121.674 187.949 121.332 188.113 120.494 188.111 119.655 188.109 118.406 187.786C116.922 187.402 116.09 187.332 114.92 187.49 110.803 188.049 107.541 190.657 106.325 194.363L106.053 195.192 106.016 196.535 105.979 197.879 106.249 198.857C106.572 200.031 106.938 200.854 107.72 202.171 108.259 203.079 110.409 205.977 110.684 206.167 110.75 206.212 111.38 206.903 112.084 207.703 112.788 208.502 113.791 209.623 114.312 210.194 116.95 213.083 119.132 216.119 119.926 218.008 120.584 219.574 120.974 221.598 120.864 222.881 120.674 225.109 120.064 226.284 118.72 227.017 117.957 227.434 117.508 227.567 116.58 227.652L115.855 227.719ZM121.078 222.197C121.078 221.055 120.84 219.933 120.28 218.443 119.894 217.415 118.896 215.542 118.65 215.384 118.564 215.329 118.493 215.225 118.493 215.154 118.493 214.855 116.441 212.265 114.363 209.941 110.925 206.097 110.375 205.461 110.428 205.396 110.477 205.338 124.346 205.493 137.323 205.696 140.877 205.751 145.511 205.814 147.621 205.835 151.465 205.874 152.764 205.923 152.856 206.033 152.957 206.154 152.54 206.557 151.154 207.677 144.449 213.098 138.064 217.012 131.463 219.751 129.501 220.565 128.905 220.775 126.378 221.543 124.341 222.163 122.589 222.592 121.686 222.693L121.078 222.761ZM146.845 203.669C144.821 203.154 143.402 201.799 143.134 200.129L143.032 199.485 143.133 199.004C143.383 197.812 143.9 197.086 145.263 196.011 145.794 195.592 146.349 195.097 146.498 194.911 147.336 193.859 147.54 192.518 147.142 190.677 147.068 190.334 147.022 189.954 147.039 189.833L147.071 189.611 147.842 190.541C149.23 192.214 150.243 193.923 150.855 195.623 151.284 196.816 151.412 197.526 151.412 198.711L151.412 199.758 151.24 200.36C151.145 200.691 150.968 201.164 150.847 201.412 150.373 202.382 148.67 203.712 147.816 203.779 147.59 203.797 147.153 203.747 146.845 203.669ZM98.7122 203.503C98.6396 203.362 98.7442 203.272 100.085 202.313 101.506 201.296 103.197 200.263 103.307 200.344 103.354 200.379 103.526 200.745 103.69 201.158 103.853 201.571 104.15 202.23 104.35 202.624 104.549 203.017 104.692 203.401 104.668 203.476L104.624 203.614 101.697 203.614 98.769 203.614ZM108.841 203.527C108.841 203.479 108.647 203.173 108.41 202.847 108.172 202.522 107.829 201.992 107.646 201.669 107.209 200.896 106.515 199.252 106.515 198.99 106.515 198.725 106.713 198.63 108.066 198.246 109.581 197.816 110.496 197.637 111.793 197.518 112.412 197.462 112.937 197.393 112.96 197.366 112.983 197.338 112.863 197.131 112.693 196.906 112.304 196.389 112.141 196.011 112.023 195.352L111.93 194.83 112.113 194.168C112.345 193.332 112.868 192.45 113.384 192.025L113.782 191.696 114.177 191.652 114.572 191.608 115.051 192.022C115.598 192.495 115.918 193.002 116.214 193.865 116.602 194.998 116.428 195.981 115.654 197.026L115.29 197.517 115.405 197.56C115.468 197.584 115.857 197.651 116.268 197.71 118.694 198.058 121.916 199.348 124.939 201.181 126.586 202.18 128.102 203.251 128.102 203.415L128.102 203.562 118.472 203.588C113.175 203.603 108.841 203.575 108.841 203.527Z" id="path42642" stroke-width="0.0943677" fill="#FFFFFF"/></g></svg>