<svg width="178.744" height="292.689" xmlns="http://www.w3.org/2000/svg" xmlns:xlink="http://www.w3.org/1999/xlink" id="svg42672" xml:space="preserve" overflow="hidden"><defs id="defs42676"></defs><g id="g42678" transform="matrix(3.77953 0 0 3.77953 -377.778 -606.207)"><path d="M108.336 237.685C108.736 237.318 112.492 235.189 114.006 234.472 115.045 233.979 115.796 233.512 115.982 233.242L116.283 232.808 116.242 231.706 116.202 230.605 116.581 230.692C116.789 230.74 117.706 230.941 118.617 231.137L120.274 231.494 120.167 231.956C120.015 232.607 120.357 233.268 121.08 233.723 121.42 233.938 123.299 234.885 125.253 235.829 127.208 236.773 128.88 237.61 128.969 237.689 129.064 237.774 124.87 237.833 118.652 237.833 112.242 237.833 108.238 237.776 108.336 237.685ZM132.644 236.214C131.522 233.984 129.291 232.319 126.044 231.287 125.455 231.1 122.866 230.408 120.289 229.75 117.713 229.091 114.781 228.295 113.773 227.979L111.94 227.406 110.693 226.618C108.713 225.367 107.984 224.264 108.003 222.545L108.013 221.565 108.487 220.65C109.354 218.976 111.405 217.437 113.609 216.805 114.056 216.677 114.445 216.572 114.475 216.571 114.57 216.568 114.372 221.747 114.254 222.325L114.14 222.884 114.534 223.223C114.758 223.415 116.14 223.926 117.721 224.401 126.027 226.895 127.132 227.289 129.139 228.47 130.845 229.475 132.213 230.802 132.855 232.077L133.378 233.116 133.378 234.907C133.378 235.894 133.302 236.766 133.209 236.849 133.099 236.946 132.9 236.724 132.644 236.214ZM118.697 223.294C117.336 222.947 116.759 222.618 116.495 222.037L116.3 221.605 116.234 216.591C116.195 213.592 116.232 211.516 116.327 211.427 116.488 211.275 116.926 211.402 119.018 212.207L120.062 212.608 120.159 212.95C120.212 213.138 120.257 215.612 120.258 218.448L120.261 223.604 120.049 223.594C119.933 223.589 119.325 223.453 118.697 223.294ZM121.953 217.317 121.953 214.867 122.456 214.239C123.06 213.485 123.102 212.906 122.586 212.449 121.627 211.597 116.978 209.75 112.885 208.594 109.04 207.508 106.475 206.399 104.523 204.981 101.781 202.988 100.987 200.141 102.393 197.342 103.389 195.359 105.85 193.861 109.259 193.164 110.797 192.849 114.201 192.56 114.383 192.729 114.455 192.796 114.493 194.14 114.467 195.717L114.421 198.583 112.308 198.78C110.11 198.986 108.912 199.274 108.384 199.726 107.354 200.607 108.93 201.535 115.247 203.77 120.662 205.685 122.589 206.398 123.818 206.941 125.735 207.787 127.251 209.314 128.06 211.213L128.469 212.172 128.469 213.771 128.469 215.37 128.074 216.089C127.578 216.99 126.812 217.761 125.912 218.263 125.256 218.629 122.358 219.767 122.081 219.767 122.01 219.767 121.953 218.664 121.953 217.317ZM118.42 203.124C117.454 202.794 116.579 202.443 116.474 202.344L116.283 202.164 116.232 196.666 116.182 191.168 115.217 190.987C109.289 189.875 104.678 186.864 101.649 182.127 101.176 181.386 100.601 180.379 100.371 179.889L99.9537 178.998 118.401 178.998 136.848 178.998 136.848 179.248C136.848 179.611 135.433 182.22 134.613 183.369 133.683 184.673 131.121 187.042 129.602 188.001 127.25 189.488 124.246 190.591 121.191 191.09L120.345 191.228 120.26 197.476 120.176 203.724ZM121.953 195.827 121.953 192.946 122.164 192.792C122.281 192.708 123.252 192.549 124.322 192.439 128.509 192.01 130.71 191.544 132.701 190.666 137.092 188.728 139.739 185.501 140.32 181.376 140.47 180.313 140.118 178.189 139.548 176.714 137.656 171.816 133.827 168.547 128.633 167.397L127.454 167.135 126.453 167.231C125.159 167.355 124.033 167.852 122.15 169.129 119.581 170.872 116.954 172.07 114.536 172.602L113.636 172.8 113.462 173.221C113.086 174.133 113.42 175.818 114.299 177.439 114.335 177.505 114.263 177.555 114.139 177.551 114.015 177.547 113.543 177.08 113.09 176.512 112.638 175.945 112.175 175.48 112.063 175.48 111.95 175.48 111.497 175.596 111.057 175.738 110.616 175.88 110.212 175.954 110.158 175.904 110.104 175.853 110.463 175.395 110.956 174.886 111.449 174.378 111.983 173.674 112.143 173.322L112.434 172.682 112.54 170.524C112.665 167.992 112.93 166.688 113.655 165.044 114.933 162.143 116.082 161.349 119.996 160.662L121.53 160.392 124.661 160.401 127.792 160.41 129.485 160.753C134.385 161.744 138.103 163.555 141.172 166.445 144.123 169.223 145.885 172.582 146.851 177.27L147.224 179.078 147.235 181.157 147.246 183.235 146.938 184.594C145.615 190.423 142.197 194.464 136.855 196.515 134.141 197.556 129.314 198.36 124.365 198.594L121.953 198.708ZM117.171 167.328C117.474 167.154 117.731 166.902 117.743 166.769 117.754 166.636 117.778 166.437 117.796 166.327 117.857 165.949 117.366 165.234 116.941 165.081 116.303 164.852 116.104 164.889 115.534 165.342L115.013 165.756 115.018 166.262C115.024 166.813 115.25 167.169 115.775 167.453 116.257 167.714 116.545 167.689 117.171 167.328Z" id="path42670" stroke-width="0.164501" fill="#FFFFFF"/></g></svg>