<svg width="242.383" height="270.633" xmlns="http://www.w3.org/2000/svg" xmlns:xlink="http://www.w3.org/1999/xlink" id="svg42532" xml:space="preserve" overflow="hidden"><defs id="defs42536"></defs><g id="g42538" transform="matrix(3.77953 0 0 3.77953 -336.672 -611.351)"><path d="M100.853 231.652 100.853 229.946 103.043 229.946 105.232 229.946 105.232 228.695 105.232 227.443 108.69 227.443 112.147 227.443 112.147 224.281 112.147 221.118 110.707 220.956C108.46 220.702 105.561 219.799 103.043 218.566 96.1285 215.184 91.1351 208.843 89.5214 201.396L89.0778 199.349 89.0778 196.277 89.0778 193.206 89.5202 191.154C90.3112 187.485 91.7763 184.389 94.2543 181.152L95.6453 179.335 97.0903 173.885C97.8851 170.887 98.5055 168.406 98.4689 168.37 98.409 168.31 93.3563 166.989 90.3083 166.235L89.0983 165.935 89.1022 165.58C89.1075 165.1 89.9514 161.919 90.1167 161.755 90.1892 161.684 97.5872 163.498 106.557 165.786 115.526 168.074 126.391 170.842 130.701 171.936 144.263 175.379 153.016 177.641 153.192 177.748 153.344 177.841 152.401 181.647 152.168 181.877 152.115 181.929 151.489 181.823 150.779 181.639 150.068 181.456 149.442 181.378 149.387 181.464 149.333 181.551 148.719 183.793 148.023 186.446L146.757 191.269 147.488 191.461C147.901 191.57 148.205 191.793 148.187 191.975 148.143 192.429 146.254 199.742 146.129 199.941 146.043 200.079 139.184 198.47 138.973 198.262 138.934 198.223 139.39 196.322 139.987 194.039L141.073 189.887 141.619 190.022C141.919 190.096 142.446 190.213 142.791 190.281L143.417 190.405 144.622 185.777C145.284 183.232 145.874 180.984 145.933 180.781L146.041 180.413 143.714 179.837 141.387 179.261 141.292 179.523C141.151 179.912 137.731 193.013 137.731 193.164 137.731 193.236 137.29 193.325 136.752 193.364L135.772 193.434 135.634 196.505C135.469 200.198 135.073 201.799 133.583 204.808 130.714 210.601 124.679 214.909 118.547 215.542L117.218 215.679 117.218 221.561 117.218 227.444 120.202 227.444 123.186 227.444 123.256 228.638 123.326 229.832 125.458 229.898 127.59 229.963 127.59 231.661 127.59 233.358 114.222 233.358 100.853 233.358ZM114.567 216.865 114.567 215.728 113.761 215.664C112.37 215.554 109.848 214.937 108.38 214.349 102.525 212.001 98.1183 207.051 96.4433 200.941L95.9444 199.121 95.9348 196.164 95.9252 193.206 96.3436 191.633C96.8626 189.682 97.8269 187.348 98.6396 186.078 98.9788 185.547 99.2099 185.041 99.1532 184.951 99.0964 184.862 98.4665 184.482 97.7534 184.107L96.4568 183.424 96.0193 183.991C95.2916 184.933 93.7927 187.885 93.2737 189.398 93.0052 190.181 92.6182 191.768 92.4138 192.924L92.0422 195.026 92.171 197.301C92.3445 200.364 93.0338 202.985 94.3851 205.718 97.709 212.443 103.624 216.688 111.456 217.97 111.773 218.022 112.602 218.05 113.3 218.033L114.567 218.003ZM114.913 209.097 114.913 204.172 113.031 204.315C111.996 204.394 110.285 204.628 109.228 204.835L107.307 205.212 107.307 205.529C107.307 206.053 108.453 208.574 109.249 209.801 110.633 211.936 113.183 213.976 114.51 214.011L114.913 214.022ZM118.477 213.571C119.724 212.975 121.687 211.028 122.611 209.472 123.69 207.654 124.491 205.639 124.234 205.392 123.91 205.082 120.763 204.494 118.511 204.323L116.526 204.172 116.526 209.097 116.526 214.022 117.03 214.022C117.307 214.022 117.958 213.819 118.477 213.571ZM109.333 212.486C108.356 211.46 106.92 209.101 106.256 207.431L105.634 205.866 105.107 206.063C104.817 206.172 103.924 206.588 103.123 206.987L101.667 207.712 103.432 209.355 105.196 210.998 107.231 212.047C108.35 212.624 109.415 213.1 109.597 213.104L109.928 213.112 109.333 212.487ZM124.017 212.259C125.575 211.493 127.736 209.947 128.857 208.796L129.779 207.849 129.318 207.498C128.719 207.042 126.637 206.065 126.259 206.062 126.097 206.061 125.864 206.321 125.741 206.642 124.862 208.923 123.555 211.161 122.312 212.513L121.712 213.166 122.289 212.995C122.606 212.902 123.383 212.57 124.017 212.259ZM104.022 204.824C105.134 204.34 105.097 204.495 104.677 202.078 104.502 201.077 104.289 199.67 104.203 198.95L104.047 197.642 100.837 197.642 97.6263 197.642 97.6263 198.386C97.6263 200.076 99.4551 204.912 100.543 206.098L100.893 206.48 101.968 205.865C102.559 205.527 103.484 205.059 104.022 204.824ZM132.274 203.898C133.007 202.416 134.043 198.994 134.043 198.054L134.043 197.642 130.817 197.642 127.59 197.642 127.586 197.927C127.582 198.181 127.099 201.449 126.753 203.558L126.623 204.356 128.662 205.393 130.702 206.431 131.094 205.961C131.31 205.702 131.842 204.774 132.275 203.898ZM109.381 203.201C110.205 203.028 111.787 202.818 112.896 202.734L114.913 202.582 114.913 200.112 114.913 197.642 110.303 197.642 105.693 197.642 105.7 197.927C105.717 198.569 106.149 201.478 106.396 202.609L106.662 203.822 107.272 203.669C107.608 203.584 108.557 203.373 109.381 203.201ZM125.251 202.704C125.38 202.11 125.549 201.06 125.627 200.372 125.705 199.684 125.82 198.788 125.883 198.382L125.997 197.642 121.262 197.642 116.526 197.642 116.526 200.038 116.526 202.434 116.814 202.514C116.973 202.558 118.192 202.706 119.523 202.843 120.854 202.98 122.461 203.236 123.095 203.41 123.729 203.585 124.421 203.741 124.632 203.756L125.016 203.785ZM104.227 193.394C104.374 191.996 104.612 190.315 104.755 189.658 104.897 189.001 104.934 188.391 104.835 188.302 104.737 188.213 103.801 187.654 102.757 187.061L100.857 185.981 100.47 186.295C99.2233 187.305 96.8854 194.823 97.5085 195.818L97.6614 196.063 100.81 195.999 103.958 195.936ZM114.868 195.105 114.938 194.273 110.878 191.863C108.645 190.537 106.734 189.453 106.631 189.453 106.238 189.453 105.481 194.949 105.772 195.696L105.913 196.06 110.355 195.998 114.798 195.936ZM125.933 194.941 126.006 193.946 121.669 194.103C119.284 194.19 117.152 194.312 116.93 194.374 116.526 194.488 116.352 195.575 116.685 195.903 116.772 195.989 118.872 196.032 121.352 195.998L125.861 195.936ZM134.043 194.926C134.043 194.308 133.939 193.738 133.811 193.66 133.683 193.582 132.231 193.59 130.584 193.679L127.59 193.839 127.59 194.945 127.59 196.05 130.817 196.05 134.043 196.05Z" id="path42530" stroke-width="0.228984" fill="#FFFFFF"/></g></svg>