<svg width="276.697" height="307.023" xmlns="http://www.w3.org/2000/svg" xmlns:xlink="http://www.w3.org/1999/xlink" id="svg42560" xml:space="preserve" overflow="hidden"><defs id="defs42564"></defs><g id="g42566" transform="matrix(3.77953 0 0 3.77953 -321.482 -604.952)"><path d="M119.092 240.501C118.385 239.415 118.24 239.131 117.83 238.041 117.376 236.83 117.072 235.221 117.072 234.023 117.072 233.483 117.029 233.065 116.971 233.032 116.915 233.001 116.524 233.078 116.102 233.203 113.891 233.86 112.125 233.883 110.594 233.273 109.997 233.035 108.923 232.054 108.578 231.429 108.269 230.871 108.04 230.298 108.038 230.078L108.036 229.92 109.165 229.92 110.295 229.92 111.027 229.752C112.559 229.403 113.601 228.809 114.765 227.621L115.387 226.986 115.877 226.084C116.421 225.081 116.931 223.75 117.029 223.074L117.094 222.632 116.969 222.561C116.9 222.523 113.5 222.499 109.413 222.509L101.983 222.527 101.782 222.429 101.582 222.332 101.582 219.465 101.582 216.598 101.701 216.489 101.82 216.381 106.591 216.38C109.371 216.379 111.423 216.344 111.509 216.295L111.655 216.21 111.482 214.797C111.192 212.447 110.552 210.514 109.54 208.938L109.079 208.219 108.036 207.257C106.303 205.659 104.768 204.873 102.69 204.519L101.862 204.378 100.903 204.483 99.9434 204.588 99.0372 204.921C97.8921 205.343 97.1853 205.769 96.4636 206.473 95.392 207.518 94.5455 208.949 94.0993 210.47L93.8874 211.192 93.8869 212.861 93.8864 214.531 94.0249 214.83 94.1633 215.128 94.0566 215.225 93.95 215.322 93.2728 214.986C92.283 214.496 91.2389 213.75 90.1086 212.727 89.1723 211.879 87.5812 210.234 87.5812 210.114 87.5812 210.084 87.3641 209.807 87.0988 209.497 86.437 208.726 85.7877 207.769 85.6902 207.42 85.6456 207.26 85.5389 206.907 85.453 206.634 85.3672 206.361 85.2434 205.66 85.1779 205.077L85.0588 204.017 85.172 202.775C85.3293 201.051 85.6216 199.92 86.4278 197.916 86.686 197.274 87.4932 195.876 88.0649 195.081 88.7252 194.162 90.7035 192.331 91.3555 192.035 91.6007 191.923 92.0917 191.669 92.4466 191.471 93.2462 191.022 94.5338 190.444 95.1276 190.266 95.5429 190.142 95.7794 190.094 97.1929 189.847 98.3755 189.641 100.948 189.802 102.376 190.173 104.531 190.731 106.187 191.501 107.672 192.634 109.499 194.028 110.969 195.781 112.184 198.014 112.73 199.019 112.883 199.341 113.539 200.88 114.054 202.087 114.684 204.238 115.079 206.137 115.193 206.683 115.333 207.341 115.39 207.6 115.489 208.043 115.664 209.388 115.875 211.327 115.926 211.799 116 213.085 116.038 214.186 116.077 215.288 116.142 216.238 116.183 216.298L116.257 216.408 117.484 216.391 118.71 216.374 118.859 216.239 119.008 216.104 118.999 212.023 118.99 207.942 118.821 206.453C118.31 201.953 117.709 199.583 116.47 197.179 116.31 196.868 116.179 196.579 116.179 196.535 116.179 196.492 116.072 196.238 115.942 195.971 115.812 195.705 115.544 195.131 115.347 194.697 115.149 194.263 114.835 193.572 114.649 193.163 114.462 192.753 114.1 191.931 113.843 191.335 113.585 190.739 113.343 190.211 113.305 190.161 113.266 190.112 113.154 189.868 113.055 189.62 112.957 189.372 112.818 189.047 112.746 188.898 112.557 188.508 111.662 186.529 111.174 185.423 110.236 183.296 109.778 181.153 109.775 178.879 109.773 176.898 109.999 175.507 110.64 173.554 111.032 172.359 112.169 170.268 112.848 169.492 113.022 169.294 113.588 168.562 114.107 167.867 115.318 166.243 116.373 164.964 118.287 162.8 119.98 160.885 120.548 160.217 120.548 160.139 120.548 160.096 121.062 160.06 121.69 160.06L122.831 160.06 122.831 160.158C122.831 160.211 122.999 160.445 123.204 160.676 123.409 160.907 123.61 161.137 123.652 161.187 123.694 161.238 124.096 161.692 124.546 162.197 126.178 164.03 128.193 166.429 128.891 167.371 129.13 167.694 129.365 167.998 129.413 168.048 129.461 168.098 129.619 168.307 129.765 168.514 129.911 168.72 130.233 169.147 130.48 169.461 131.054 170.191 131.69 171.221 132.145 172.155 132.554 172.994 132.654 173.252 132.889 174.069 133.319 175.566 133.452 176.241 133.558 177.467L133.661 178.672 133.556 179.994C133.404 181.906 132.796 184.251 132.066 185.739 131.945 185.987 131.693 186.535 131.506 186.957 131.32 187.379 131.126 187.806 131.075 187.905 131.025 188.004 130.533 189.101 129.982 190.342 128.979 192.599 127.919 194.953 127.543 195.758 125.981 199.095 125.692 199.873 125.229 201.985 124.765 204.104 124.598 205.604 124.314 210.199 124.185 212.295 124.308 215.98 124.518 216.289L124.601 216.411 125.826 216.391C126.5 216.38 127.091 216.335 127.14 216.291 127.189 216.247 127.243 215.732 127.26 215.146 127.331 212.752 127.758 208.504 128.085 206.95 128.872 203.203 130.127 199.68 131.417 197.595 131.665 197.194 131.867 196.849 131.867 196.829 131.867 196.748 132.445 195.982 133.219 195.034 135.103 192.73 137.226 191.333 140.258 190.402 143.86 189.296 147.759 189.636 150.556 191.3 150.868 191.486 151.36 191.746 151.648 191.877 152.554 192.289 153.446 192.968 154.321 193.909 155.242 194.9 155.257 194.919 155.941 196.033 156.587 197.084 156.914 197.778 157.362 199.052 158.118 201.205 158.34 202.546 158.249 204.41 158.155 206.314 157.756 207.57 156.882 208.715 154.584 211.725 152.075 214.051 150.114 214.988L149.424 215.317 149.323 215.226 149.222 215.135 149.33 214.833C149.39 214.667 149.478 214.132 149.527 213.645 149.766 211.245 148.954 208.771 147.323 206.927 145.983 205.411 144.679 204.788 142.085 204.423 141.944 204.404 141.385 204.44 140.844 204.505 138.823 204.745 136.972 205.682 135.187 207.369 133.949 208.538 133.239 209.681 132.614 211.508 132.136 212.902 131.722 215.115 131.786 215.93L131.818 216.337 136.782 216.384C139.513 216.41 141.758 216.44 141.772 216.452 141.786 216.463 141.797 217.787 141.797 219.394L141.797 222.317 141.673 222.406C141.593 222.463 138.856 222.491 134.02 222.483L126.492 222.471 126.388 222.584C126.235 222.752 126.368 223.42 126.772 224.505 127.393 226.175 128.08 227.226 129.193 228.206 129.91 228.837 130.645 229.236 131.742 229.591L132.612 229.872 133.952 229.888 135.293 229.905 135.282 230.206C135.268 230.605 134.632 231.768 134.146 232.285 133.605 232.861 132.778 233.334 131.936 233.551L131.224 233.734 130.031 233.682C128.851 233.63 128.335 233.536 127.186 233.165 126.86 233.06 126.532 232.995 126.458 233.021L126.322 233.068 126.275 234.27C126.212 235.853 125.935 237.145 125.358 238.549 125.075 239.236 124.428 240.366 124.06 240.813 123.93 240.971 123.824 241.144 123.824 241.197L123.824 241.293 121.714 241.292 119.604 241.291 119.091 240.503Z" id="path42558" stroke-width="0.0946688" fill="#FFFFFF"/></g></svg>