<svg width="267.915" height="284.921" xmlns="http://www.w3.org/2000/svg" xmlns:xlink="http://www.w3.org/1999/xlink" id="svg42422" xml:space="preserve" overflow="hidden"><defs id="defs42426"></defs><g id="g42428" transform="matrix(3.77953 0 0 3.77953 -327.026 -613.362)"><path d="M121.11 237.631C110.136 237.212 100.211 234.477 95.3584 230.535 92.7895 228.448 90.8559 225.169 89.3428 220.333 87.8648 215.609 87.0156 210.178 86.6874 203.349L86.5257 199.985 86.6861 196.534C86.9435 190.996 87.4797 186.834 88.4585 182.776 90.3105 175.099 92.8265 170.775 96.9732 168.143 100.871 165.67 106.842 163.774 113.564 162.877 117.456 162.357 118.727 162.283 123.74 162.285L128.863 162.287 131.009 162.54C141.857 163.818 148.592 166.775 151.568 171.566 154.461 176.225 156.349 183.356 157.1 192.462 158.264 206.565 156.095 220.906 151.716 228.064 149.466 231.741 145.627 234.115 139.108 235.86 134.377 237.126 126.976 237.854 121.11 237.631ZM118.869 221.219C119.16 221.027 119.565 220.6 119.769 220.271L120.141 219.673 120.141 211.821 120.141 203.968 119.719 203.329C119.487 202.977 119.02 202.523 118.681 202.32L118.064 201.951 110.934 201.951 103.804 201.951 103.15 202.361C102.726 202.627 102.361 203.016 102.111 203.467L101.727 204.164 101.727 211.539C101.727 215.595 101.777 219.165 101.838 219.471 101.977 220.173 102.667 221.019 103.387 221.371L103.942 221.642 111.142 221.606 118.341 221.569ZM105.673 214.563 105.673 213.383 110.934 213.383 116.195 213.383 116.195 214.563 116.195 215.743 110.934 215.743 105.673 215.743ZM105.673 208.958 105.673 207.778 110.934 207.778 116.195 207.778 116.195 208.958 116.195 210.138 110.934 210.138 105.673 210.138ZM141.074 221.174C141.44 220.916 141.762 220.507 141.999 220.001L142.362 219.225 142.359 211.768 142.356 204.312 142.104 203.72C141.786 202.977 141.004 202.235 140.323 202.034 139.991 201.936 137.307 201.88 132.947 201.88L126.094 201.881 125.376 202.237 124.658 202.593 124.269 203.22 123.879 203.847 123.841 211.637 123.803 219.427 124.07 219.982C124.37 220.606 124.79 221.053 125.402 221.4L125.817 221.635 133.165 221.602 140.513 221.569 141.074 221.173ZM129.344 215.663 128.586 214.842 130.085 213.279 131.585 211.715 130.12 210.15 128.656 208.585 129.381 207.813 130.105 207.041 131.579 208.607 133.053 210.172 134.514 208.57 135.974 206.967 136.676 207.699C137.062 208.101 137.378 208.498 137.378 208.581 137.378 208.664 136.74 209.413 135.961 210.246L134.544 211.76 135.993 213.31 137.443 214.859 136.718 215.631 135.994 216.402 134.54 214.858 133.086 213.314 131.594 214.899 130.102 216.483ZM118.618 197.764C119.288 197.434 119.71 196.967 119.996 196.238L120.21 195.692 120.207 188.202 120.204 180.711 119.952 180.12C119.635 179.376 118.852 178.635 118.172 178.434 117.84 178.336 115.197 178.279 110.95 178.278L104.251 178.278 103.681 178.459C102.908 178.705 102.034 179.66 101.816 180.495L101.645 181.154 101.686 188.541 101.727 195.928 102.142 196.642 102.558 197.356 103.168 197.7 103.778 198.043 110.921 198.04 118.064 198.037 118.618 197.765ZM109.826 191.553 109.826 189.34 107.75 189.34 105.673 189.34 105.673 188.16 105.673 186.98 107.75 186.98 109.826 186.98 109.826 184.767 109.826 182.555 110.934 182.555 112.041 182.555 112.041 184.767 112.041 186.98 114.118 186.98 116.195 186.98 116.195 188.16 116.195 189.34 114.118 189.34 112.041 189.34 112.041 191.553 112.041 193.765 110.934 193.765 109.826 193.765ZM140.698 197.711C141.033 197.528 141.498 197.124 141.731 196.812L142.154 196.245 142.192 188.35 142.23 180.455 141.877 179.813C141.669 179.434 141.279 179.017 140.927 178.798L140.33 178.425 133.117 178.425 125.904 178.425 125.515 178.582C124.961 178.805 124.371 179.434 124.072 180.121L123.816 180.711 123.814 188.086C123.812 192.834 123.864 195.662 123.958 196.024 124.137 196.712 125.022 197.687 125.639 197.876 125.896 197.955 129.135 198.022 133.091 198.029L140.088 198.043 140.698 197.711ZM127.825 188.16 127.825 186.98 133.086 186.98 138.347 186.98 138.347 188.16 138.347 189.34 133.086 189.34 127.825 189.34Z" id="path42411" stroke-width="0.142904" fill="#FFFFFF"/></g></svg>