<svg width="294.728" height="253.607" xmlns="http://www.w3.org/2000/svg" xmlns:xlink="http://www.w3.org/1999/xlink" id="svg42700" xml:space="preserve" overflow="hidden"><defs id="defs42704"></defs><g id="g42706" transform="matrix(3.77953 0 0 3.77953 -313.228 -651.579)"><path d="M122.773 239.337C122.729 239.217 122.637 237.292 122.567 235.058L122.441 230.998 122.877 230.689C123.118 230.52 123.385 230.381 123.473 230.381 123.634 230.381 123.581 234.134 123.371 237.636L123.263 239.419 123.058 239.487C122.945 239.524 122.816 239.457 122.773 239.337ZM120.719 232.188C120.446 231.682 120.52 230.511 120.86 229.957 121.225 229.363 122.153 228.595 123.782 227.541 125.449 226.461 125.839 225.729 125.216 224.847 124.858 224.339 123.537 223.521 123.076 223.521 122.672 223.521 121.664 224.043 121.092 224.549 120.31 225.239 120.527 226.467 121.535 227.058 121.807 227.217 122.029 227.4 122.029 227.465 122.029 227.529 121.81 227.737 121.543 227.926L121.056 228.27 120.496 227.905C119.347 227.157 118.826 225.805 119.226 224.604 119.343 224.249 119.756 223.724 120.264 223.283 120.728 222.88 121.074 222.523 121.034 222.488 120.993 222.454 120.494 222.183 119.925 221.885 117.513 220.625 116.551 218.605 117.436 216.661 117.899 215.645 118.599 214.972 120.137 214.064 120.861 213.637 122.255 212.815 123.235 212.238 125.49 210.91 127.097 209.712 127.577 209.001 128.412 207.764 127.867 206.63 125.972 205.662 125.296 205.317 124.723 205.015 124.698 204.991 124.673 204.966 125.512 204.643 126.563 204.272L128.473 203.597 128.754 203.746C129.336 204.056 130.54 205.51 130.824 206.247L131.118 207.013 131.043 207.957C130.837 210.553 129.323 211.937 123.472 214.877 120.799 216.22 119.674 217.056 119.474 217.849 119.223 218.843 119.772 219.663 121.152 220.353 121.672 220.613 122.244 220.954 122.424 221.111 122.603 221.269 122.837 221.397 122.944 221.397 123.362 221.397 125.853 219.853 126.233 219.359 126.988 218.376 126.651 217.31 125.273 216.319 124.91 216.058 124.475 215.844 124.308 215.844L124.004 215.844 124.004 217.802 124.004 219.76 123.311 220.194C122.929 220.433 122.506 220.636 122.369 220.645L122.121 220.662 122.06 218.675 122 216.687 124.192 215.572C125.397 214.958 126.429 214.435 126.485 214.409 126.542 214.384 126.96 214.695 127.415 215.102 129.876 217.298 129.288 220.318 126.09 221.91 125.531 222.188 125.043 222.443 125.006 222.476 124.97 222.509 125.287 222.84 125.711 223.211 126.65 224.031 126.965 224.601 126.965 225.481 126.965 226.726 126.26 227.547 124.033 228.897 123.279 229.354 122.627 229.727 122.582 229.727 122.537 229.727 122.236 229.928 121.912 230.173 121.229 230.691 120.828 231.514 120.975 232.097 121.098 232.582 120.958 232.631 120.719 232.188ZM125.057 231.805 125.073 231.056 124.579 230.543 124.086 230.03 124.405 229.797C124.833 229.485 124.91 229.499 125.209 229.952 125.614 230.566 125.641 231.739 125.262 232.253L125.04 232.555ZM122.325 226.173C122.291 225.568 122.288 224.993 122.318 224.895 122.374 224.714 123.393 224.174 123.68 224.174 123.767 224.174 123.839 224.639 123.839 225.207L123.839 226.24 123.469 226.575C123.265 226.759 122.938 226.992 122.742 227.092L122.386 227.274ZM118.432 212.674C117.27 211.975 116.097 210.801 115.511 209.75L115.038 208.902 115.041 207.677 115.044 206.452 115.346 205.881C115.999 204.649 117.497 203.44 119.505 202.526 120.954 201.867 121.812 201.542 125.382 200.3 127.181 199.674 129.203 198.896 129.876 198.57 131.295 197.883 132.479 196.86 132.653 196.172L132.774 195.692 132.46 195.124C132.288 194.811 131.961 194.422 131.735 194.26L131.324 193.965 129.926 193.869C127.919 193.731 127.038 193.504 126.471 192.977 125.785 192.341 125.835 191.932 126.664 191.387L127.352 190.935 128.433 190.935 129.514 190.935 131.077 191.865C133.639 193.388 133.79 193.516 134.346 194.62L134.861 195.643 134.861 196.639C134.861 199.902 133.45 200.921 124.892 203.839 122.978 204.491 120.829 205.314 120.116 205.666L118.822 206.307 118.451 206.853C117.994 207.526 117.979 208.246 118.407 208.943 118.764 209.522 121.515 211.629 121.738 211.493 121.813 211.446 121.825 210.181 121.764 208.681L121.653 205.953 122.951 205.507C124.333 205.031 124.566 204.983 124.431 205.2 124.384 205.276 124.336 206.447 124.324 207.803 124.309 209.393 124.234 210.354 124.111 210.506 123.871 210.804 119.73 213.235 119.491 213.218 119.394 213.211 118.917 212.967 118.432 212.674ZM127.952 191.67C127.952 191.581 127.767 191.507 127.541 191.507 127.314 191.507 127.129 191.581 127.129 191.67 127.129 191.76 127.314 191.834 127.541 191.834 127.767 191.834 127.952 191.76 127.952 191.67ZM115.563 201.783C112.145 200.277 111.055 198.939 111.199 196.421L111.261 195.32 111.833 194.373C112.421 193.4 112.522 193.319 115.024 191.831L116.492 190.958 117.359 190.886 118.225 190.815 118.954 191.165C119.355 191.358 119.801 191.645 119.946 191.804L120.209 192.092 119.905 192.589C119.452 193.327 118.654 193.618 116.566 193.806L114.708 193.972 114.308 194.26C113.735 194.672 113.312 195.576 113.427 196.144 113.654 197.271 115.975 198.7 119.546 199.91 120.488 200.229 121.323 200.491 121.403 200.491 121.484 200.491 121.505 199.572 121.451 198.408 121.397 197.263 121.25 192.77 121.124 188.424L120.894 180.523 120.182 179.846C119.791 179.474 119.326 178.877 119.149 178.519L118.827 177.869 118.828 176.644 118.828 175.419 119.189 174.742C119.877 173.451 121.598 172.397 123.016 172.397 124.576 172.397 126.323 173.567 126.961 175.039L127.333 175.896 127.256 176.966C127.163 178.253 126.853 178.892 125.869 179.829L125.125 180.536 124.847 190.014C124.695 195.227 124.535 199.525 124.492 199.566 124.449 199.607 123.748 199.872 122.934 200.156 121.264 200.737 118.927 201.706 118.117 202.153 117.399 202.549 117.251 202.527 115.563 201.783ZM118.821 191.67C118.765 191.581 118.576 191.507 118.4 191.507 118.225 191.507 118.081 191.581 118.081 191.67 118.081 191.76 118.27 191.834 118.502 191.834 118.741 191.834 118.879 191.763 118.821 191.67ZM103.316 191.556C103.008 191.442 103.064 191.099 103.535 190.205 103.769 189.761 103.934 189.267 103.903 189.107L103.847 188.817 103.362 189.767C103.096 190.29 102.665 190.896 102.406 191.113L101.933 191.507 101.226 191.507C100.789 191.507 100.438 191.411 100.308 191.255L100.097 191.003 100.427 190.561C101.445 189.193 101.842 188.56 101.742 188.461 101.68 188.4 101.607 188.38 101.58 188.417 100.955 189.285 99.9075 190.36 99.3372 190.719L98.6039 191.18 97.6624 191.18C95.7757 191.18 95.7053 190.741 97.3933 189.499 98.6434 188.58 99.1053 188.13 98.9536 187.979 98.9038 187.93 98.3194 188.288 97.6552 188.776 96.9908 189.264 96.1356 189.82 95.7547 190.013L95.062 190.364 93.945 190.351C92.7271 190.338 91.5753 190.063 91.4743 189.762 91.4387 189.656 92.1346 189.202 93.0433 188.739 94.5736 187.958 95.378 187.369 95.181 187.174 95.1341 187.127 94.6225 187.374 94.0441 187.722 92.482 188.662 91.4533 189.076 90.4389 189.173 89.4265 189.269 87.8537 189.001 87.3795 188.651L87.07 188.423 87.2455 188.138C87.3451 187.977 88.2 187.595 89.2197 187.256 91.27 186.574 92.7766 185.881 93.1865 185.431L93.4676 185.123 93.1478 185.237C92.9719 185.3 92.754 185.405 92.6635 185.47 92.3067 185.728 88.7952 186.911 87.3572 187.257L85.8348 187.624 85.1055 187.515C84.7044 187.456 84.1092 187.227 83.7828 187.007 83.4563 186.787 83.1185 186.607 83.0321 186.607 82.9456 186.607 82.8748 186.469 82.8748 186.3 82.8748 185.93 83.3245 185.744 85.0958 185.383 87.3294 184.928 89.4825 184.296 90.7565 183.723 91.4269 183.421 91.9433 183.143 91.9042 183.104 91.8651 183.065 91.3907 183.181 90.8499 183.362 89.3287 183.87 85.2209 184.8 83.9853 184.916L82.8748 185.021 82.8748 183.772 82.8748 182.524 83.2973 182.524C84.8735 182.524 90.1934 181.436 91.653 180.815 92.6007 180.411 92.3108 180.377 90.9286 180.729 89.3432 181.132 86.107 181.655 84.2953 181.801L82.8748 181.915 82.8748 180.178 82.8748 178.44 83.7386 178.439C86.0647 178.435 91.4193 177.638 94.7839 176.795 96.6173 176.336 97.4951 176.053 102.288 174.37L104.18 173.706 105.413 173.707 106.647 173.707 107.48 174.092 108.312 174.477 109.207 175.514C109.699 176.085 110.743 177.197 111.526 177.987L112.95 179.422 114.201 180.012 115.451 180.602 117.054 180.705 118.657 180.809 118.705 181.912 118.754 183.014 117.613 183.014C114.507 183.014 110.49 181.544 108.349 179.623 107.997 179.308 107.758 179.175 107.817 179.327 108.014 179.838 109.924 181.231 111.418 181.955 113.242 182.838 115.201 183.351 117.256 183.484L118.821 183.586 118.953 185.042 119.084 186.498 118.377 187.225C116.879 188.766 115.947 189.202 115.37 188.63 115.224 188.484 115.087 188.393 115.066 188.426 115.045 188.459 114.902 188.76 114.749 189.094 114.324 190.024 113.18 190.102 112.899 189.221 112.755 188.771 112.487 188.81 112.487 189.281 112.487 189.493 112.334 189.861 112.146 190.097 111.592 190.797 110.678 190.593 110.678 189.77 110.678 189.182 110.394 189.174 110.284 189.759 110.228 190.053 110.068 190.457 109.927 190.656L109.672 191.018 109.106 191.018C108.499 191.018 108.493 191.007 108.536 189.915 108.552 189.533 108.527 189.221 108.482 189.221 108.438 189.221 108.281 189.58 108.134 190.018 107.825 190.944 107.484 191.301 106.775 191.442L106.266 191.543 106.09 191.216 105.915 190.89 106.172 190.14C106.569 188.984 106.35 188.874 105.799 189.953 105.527 190.485 105.126 191.045 104.907 191.197 104.481 191.494 103.653 191.681 103.316 191.556ZM141.806 191.51C141.056 191.333 140.677 190.947 140.128 189.799 139.601 188.699 139.497 188.873 139.892 190.193L140.152 191.061 139.91 191.301 139.669 191.541 139.174 191.433C138.54 191.295 138.141 190.854 137.787 189.9L137.504 189.139 137.514 189.874C137.53 191.025 137.534 191.017 136.927 191.017L136.361 191.017 136.105 190.655C135.965 190.456 135.805 190.053 135.749 189.758 135.639 189.174 135.355 189.182 135.355 189.769 135.355 190.592 134.441 190.796 133.886 190.097 133.699 189.86 133.545 189.493 133.545 189.28 133.545 189.068 133.471 188.894 133.381 188.894 133.29 188.894 133.216 188.953 133.216 189.026 133.216 189.291 132.538 189.874 132.23 189.874 131.84 189.874 131.078 189.085 131.078 188.682L131.078 188.385 130.605 188.662 130.132 188.94 129.694 188.83C129.453 188.77 128.736 188.227 128.1 187.623L126.944 186.525 127.058 185.035 127.173 183.545 128.838 183.459C130.918 183.352 132.708 182.887 134.615 181.958 136.037 181.266 138.152 179.741 138.152 179.409 138.152 179.321 137.775 179.545 137.314 179.907 134.896 181.804 131.44 183.009 128.404 183.012L127.294 183.013 127.294 181.892 127.294 180.77 128.923 180.692 130.552 180.615 131.817 180.018 133.082 179.422 134.237 178.319C134.873 177.712 135.735 176.774 136.154 176.235 137.59 174.387 138.463 173.854 140.232 173.739 141.673 173.645 142.491 173.832 145.159 174.865 149.572 176.574 154.996 177.833 159.607 178.22L160.855 178.325 160.855 180.016 160.855 181.707 160.649 181.707C160.207 181.707 156.428 181.041 155.22 180.751 154.519 180.583 153.945 180.505 153.945 180.579 153.945 180.784 156.388 181.504 158.354 181.879 159.322 182.064 160.281 182.249 160.485 182.29L160.855 182.366 160.855 183.507 160.855 184.647 160.396 184.647C160.009 184.647 155.228 183.449 154.192 183.092 153.572 182.878 154.85 183.6 155.715 183.951 156.19 184.145 157.541 184.545 158.717 184.841L160.855 185.38 160.855 186.483 160.855 187.587 160.402 187.586C159.631 187.584 156.268 186.636 154.405 185.894 152.624 185.186 152.168 185.112 153.165 185.693 154.228 186.313 155.21 186.733 156.824 187.259 157.729 187.553 158.562 187.867 158.675 187.955 159.309 188.454 158.392 189.008 156.667 189.168L155.629 189.264 154.499 188.922C153.878 188.734 152.826 188.246 152.161 187.838 151.497 187.43 150.873 187.097 150.775 187.097 150.304 187.097 151.567 188.033 153.011 188.754 153.943 189.22 154.598 189.644 154.56 189.757 154.458 190.062 153.313 190.337 152.088 190.351L150.971 190.364 150.329 190.038C149.571 189.655 148.804 189.147 147.866 188.41 147.491 188.115 147.141 187.917 147.088 187.97 146.979 188.079 147.868 188.974 148.574 189.465 149.618 190.192 149.832 190.4 149.832 190.689L149.832 190.991 149.312 191.104C148.588 191.262 147.69 191.233 147.163 191.034 146.703 190.86 145.391 189.656 144.76 188.828 144.561 188.567 144.354 188.398 144.299 188.453 144.2 188.551 144.33 188.779 145.346 190.284L145.878 191.072 145.697 191.289C145.594 191.412 145.19 191.507 144.773 191.507L144.031 191.507 143.515 190.964C143.231 190.665 142.815 190.077 142.591 189.657 142.367 189.237 142.134 188.894 142.075 188.894 141.888 188.894 142.134 189.595 142.63 190.475L143.106 191.322 142.779 191.496C142.598 191.592 142.427 191.663 142.399 191.654 142.37 191.645 142.103 191.58 141.806 191.51Z" id="path42698" stroke-width="0.163924" fill="#FFFFFF"/></g></svg>