<svg width="234.849" height="239.276" xmlns="http://www.w3.org/2000/svg" xmlns:xlink="http://www.w3.org/1999/xlink" id="svg42840" xml:space="preserve" overflow="hidden"><defs id="defs42844"></defs><g id="g42846" transform="matrix(3.77953 0 0 3.77953 -346.714 -631.808)"><path d="M109.56 230.369C108.565 230.235 108.109 230.098 107.153 229.646L106.395 229.288 105.676 228.62 104.958 227.952 104.602 227.288C104.125 226.397 103.966 225.781 103.966 224.825 103.966 223.478 104.329 222.582 105.205 221.772 107.199 219.929 110.344 220.693 110.914 223.16 111.233 224.542 110.371 225.833 108.812 226.307L108.365 226.443 107.675 226.413 106.985 226.384 106.648 226.232C106.462 226.149 106.126 225.903 105.899 225.687L105.488 225.294 105.549 225.685C105.632 226.215 105.94 226.893 106.327 227.398 107.639 229.112 110.556 229.798 112.983 228.962 113.894 228.649 114.912 227.818 115.391 226.996 115.703 226.461 115.958 225.504 115.957 224.871 115.956 223.857 115.904 223.691 114.78 221.111 114.416 220.276 113.844 218.995 113.646 218.57 113.586 218.441 113.373 217.954 113.173 217.487 112.973 217.021 112.767 216.624 112.716 216.606 112.664 216.587 112.26 216.694 111.818 216.842 109.53 217.61 107.291 218.068 105.037 218.229L103.728 218.322 102.491 218.23C97.9892 217.892 94.8251 216.045 93.0015 212.69 92.5465 211.853 92.1048 210.739 91.8919 209.892L91.7346 209.267 91.7351 207.82 91.7356 206.374 91.8914 205.553C92.1189 204.355 92.3407 203.521 92.7099 202.477 93.0101 201.628 93.5235 200.344 93.7151 199.963 93.7584 199.877 93.9467 199.479 94.1337 199.079 94.5786 198.127 95.4955 196.382 95.99 195.546 96.2062 195.18 96.5854 194.529 96.8327 194.099 97.08 193.669 97.3566 193.195 97.4474 193.044 98.2443 191.723 98.5487 191.187 99.2184 189.925L99.9876 188.477 99.9826 188.2C99.9796 188.047 99.825 187.626 99.6367 187.259 99.4493 186.893 99.0492 186.102 98.7475 185.499 98.4458 184.898 98.0385 184.088 97.8423 183.701 97.3989 182.826 96.4109 180.768 96.4109 180.719 96.4109 180.699 96.3393 180.535 96.2519 180.355 95.6146 179.04 94.9364 177.076 94.5459 175.414L94.3806 174.71 94.3334 173.147 94.2863 171.583 94.4239 170.84C94.6909 169.4 95.339 167.924 95.9175 167.439L96.2429 167.166 96.5844 167.166C97.0914 167.166 98.1064 167.65 99.107 168.37 101.977 170.433 104.226 173.818 104.846 177.009L105.005 177.825 105.004 179.043 105.004 180.261 104.839 181.121C104.413 183.347 103.734 185.502 102.637 188.108L102.231 189.074 102.687 190.14C102.937 190.727 103.386 191.752 103.683 192.419 103.981 193.085 104.369 193.956 104.547 194.354L104.869 195.077 105.01 195.077C105.088 195.077 105.392 195.005 105.685 194.918 106.667 194.627 108.027 194.437 109.428 194.395L110.777 194.354 111.703 194.486C113.296 194.714 114.01 194.915 115.219 195.474 116.34 195.994 117.286 196.625 118.197 197.461 119.769 198.904 120.572 200.199 121.348 202.543 121.627 203.387 121.807 205.776 121.646 206.491 121.621 206.599 121.562 206.915 121.514 207.195 121.466 207.474 121.391 207.809 121.348 207.938 121.304 208.067 121.185 208.418 121.083 208.719 120.85 209.403 120.142 210.722 119.592 211.497 118.451 213.104 116.41 214.823 114.631 215.677 114.387 215.794 114.188 215.898 114.188 215.908 114.188 216.04 115.389 218.788 116.004 220.061 117.179 222.496 117.439 223.441 117.365 225.012L117.319 225.997 117.155 226.467C116.868 227.286 116.589 227.755 116.006 228.4 115.148 229.349 113.383 230.135 111.574 230.374 110.551 230.509 110.597 230.509 109.56 230.37ZM106.706 217.403 106.848 217.346 106.895 216.902C106.921 216.659 106.977 216.178 107.019 215.834L107.096 215.209 106.998 215.149C106.944 215.116 106.749 215.099 106.565 215.11L106.23 215.13 106.085 215.639C105.803 216.631 105.633 217.07 105.502 217.147 105.325 217.25 104.756 217.146 104.695 217 104.669 216.936 104.788 216.448 104.96 215.914 105.132 215.38 105.246 214.903 105.213 214.854 105.111 214.701 105.03 214.865 104.709 215.873 104.537 216.411 104.357 216.896 104.307 216.953L104.217 217.055 103.874 217.003C103.685 216.975 103.498 216.923 103.458 216.889 103.381 216.822 103.525 216.223 103.863 215.21 103.997 214.809 104.043 214.558 103.99 214.51 103.854 214.383 103.773 214.535 103.385 215.639L103.014 216.694 102.762 216.717C102.399 216.751 102.056 216.611 102.056 216.428 102.056 216.344 102.225 215.792 102.433 215.201L102.81 214.126 102.718 214.022C102.666 213.965 102.555 213.919 102.471 213.919L102.316 213.919 101.715 214.837C101.385 215.343 100.928 216.037 100.7 216.381L100.286 217.007 100.414 217.095C100.522 217.169 101.059 217.257 102.688 217.468 103.097 217.521 106.55 217.465 106.705 217.402ZM108.301 217.118 109.049 216.955 109.044 216.746C109.038 216.451 108.839 215.454 108.764 215.342 108.725 215.283 108.484 215.248 108.127 215.248L107.553 215.248 107.502 215.619C107.474 215.823 107.426 216.281 107.395 216.635L107.339 217.28 107.446 217.28C107.505 217.28 107.889 217.207 108.301 217.118ZM100.338 216.086C100.621 215.646 101.094 214.922 101.389 214.477L101.926 213.667 101.734 213.523C101.628 213.444 101.496 213.397 101.441 213.42 101.385 213.442 101.131 213.693 100.876 213.976 99.8772 215.087 99.2555 215.717 99.1565 215.717 98.9608 215.717 98.3486 215.163 98.3506 214.988 98.3515 214.885 98.7363 214.407 99.3248 213.778 99.8652 213.2 100.285 212.683 100.271 212.614 100.256 212.547 100.169 212.444 100.076 212.387L99.9073 212.284 99.0227 213.232C97.964 214.367 97.78 214.544 97.6584 214.544 97.6073 214.544 97.4005 214.419 97.1988 214.265 96.7665 213.936 96.7361 213.743 97.0645 213.41 97.837 212.628 98.9384 211.421 98.9384 211.356 98.9384 211.314 98.8874 211.24 98.8249 211.192L98.7115 211.105 97.5822 211.644C95.1147 212.824 94.5141 213.133 94.491 213.235 94.4587 213.377 95.4173 214.41 96.1068 214.975 96.8642 215.596 97.4938 215.991 98.346 216.38 99.3245 216.826 99.4599 216.878 99.6545 216.882L99.8231 216.886 100.338 216.087ZM109.639 214.386C110.032 214.342 110.62 214.245 110.945 214.17L111.534 214.034 111.507 213.878C111.491 213.793 111.194 213.09 110.847 212.316 110.499 211.542 110.043 210.522 109.833 210.049 109.623 209.576 109.402 209.083 109.341 208.954 109.232 208.722 108.88 207.928 108.038 206.022 107.632 205.103 107.455 204.711 107.277 204.341 107.236 204.255 107.009 203.745 106.774 203.208 106.538 202.67 106.178 201.861 105.973 201.41 105.769 200.958 105.469 200.29 105.307 199.924L105.013 199.26 104.837 199.279C104.282 199.339 102.941 200.115 102.225 200.79L101.714 201.271 101.383 201.907C101.174 202.308 101.017 202.752 100.958 203.11L100.863 203.677 100.954 204.217C101.168 205.5 101.845 206.171 103.187 206.432L103.666 206.525 104.23 206.389C105.204 206.153 106.058 205.449 106.31 204.674L106.418 204.341 106.489 204.654C106.528 204.826 106.557 205.231 106.552 205.553L106.543 206.14 106.35 206.607C105.97 207.532 104.976 208.239 103.723 208.478 102.916 208.632 102.501 208.633 101.805 208.48 99.2431 207.92 97.7196 205.111 98.3045 202.026 98.7375 199.741 100.357 197.632 102.836 196.124 103.172 195.92 103.462 195.741 103.481 195.728 103.5 195.714 103.295 195.219 103.026 194.627 102.756 194.036 102.464 193.394 102.375 193.2 102.287 193.007 102.181 192.778 102.14 192.692 102.098 192.606 101.907 192.184 101.715 191.754 101.522 191.324 101.334 190.942 101.297 190.905 101.221 190.83 99.7281 195.051 98.7699 198.048 98.6668 198.37 98.4953 198.898 98.3888 199.22 97.4246 202.141 97.3322 202.616 97.3777 204.419L97.4112 205.749 97.5795 206.491C98.0078 208.382 98.5664 209.487 99.7583 210.804 101.002 212.178 102.834 213.313 104.836 213.949 106.267 214.403 108.027 214.563 109.639 214.386ZM113.773 212.964C115.639 211.808 116.825 210.057 117.23 207.86 117.423 206.814 117.429 206.339 117.26 205.299 117.05 203.997 116.625 202.88 115.929 201.8 115.434 201.032 114.316 199.916 113.568 199.442 112.025 198.464 110.057 197.987 108.436 198.196 107.396 198.331 106.599 198.521 106.547 198.646 106.521 198.709 106.748 199.312 107.052 199.987 107.356 200.662 107.855 201.777 108.162 202.465 108.468 203.153 108.754 203.786 108.796 203.872 108.839 203.958 109.123 204.592 109.429 205.28 109.734 205.968 110.018 206.601 110.059 206.687 110.101 206.773 110.267 207.142 110.429 207.508 110.793 208.33 111.932 210.872 112.558 212.257 112.815 212.827 113.074 213.293 113.134 213.293 113.194 213.293 113.481 213.145 113.773 212.964ZM94.4351 212.678C94.4791 212.641 95.2715 212.248 96.1959 211.806 97.9216 210.979 98.366 210.766 98.4241 210.734 98.4968 210.695 98.0021 210.088 97.8975 210.088 97.7895 210.088 97.4822 210.158 95.7054 210.593 95.2479 210.704 94.8073 210.776 94.7262 210.752 94.6373 210.726 94.5197 210.534 94.4296 210.268L94.2803 209.828 94.362 209.708C94.41 209.637 95.0285 209.439 95.8641 209.227 96.6453 209.029 97.3 208.824 97.319 208.771 97.338 208.719 97.311 208.627 97.2582 208.569L97.1629 208.462 95.7548 208.807C94.9803 208.996 94.2711 209.142 94.1789 209.131 93.9823 209.107 93.8287 208.841 93.7512 208.391L93.6958 208.07 93.8755 207.981C93.9743 207.931 94.3293 207.825 94.6643 207.744 94.9993 207.663 95.6143 207.514 96.031 207.413L96.7885 207.23 96.8182 207.087C96.8749 206.814 96.7041 206.807 95.7345 207.042 95.2029 207.171 94.5317 207.334 94.243 207.403L93.718 207.53 93.5946 207.434C93.5267 207.382 93.4247 207.147 93.368 206.912L93.2649 206.484 93.3845 206.383C93.4503 206.328 93.7505 206.22 94.0517 206.143 94.3529 206.066 94.77 205.958 94.9785 205.903 95.187 205.848 95.6325 205.74 95.9685 205.663L96.5793 205.523 96.5793 205.147 96.5793 204.771 96.3055 204.77C96.0506 204.77 94.9529 204.902 93.464 205.112L92.8341 205.201 92.7614 205.553C92.6534 206.076 92.6632 208.797 92.7753 209.396 92.9376 210.262 93.2807 211.26 93.6784 212.023L94.0555 212.746 94.2053 212.746C94.2876 212.746 94.3911 212.715 94.4351 212.678ZM94.5463 204.534C95.2242 204.447 95.9464 204.35 96.1511 204.319L96.5233 204.263 96.6029 204.041C96.7297 203.688 96.7886 203.71 94.8752 203.41 94.5172 203.354 94.1681 203.265 94.0994 203.212L93.9746 203.116 94.025 202.869C94.0527 202.733 94.1104 202.558 94.1531 202.481L94.2308 202.34 94.6257 202.39C94.9966 202.438 96.05 202.616 96.4759 202.703L96.6674 202.743 96.7408 202.565C96.7812 202.467 96.7898 202.362 96.7598 202.332 96.7298 202.302 96.2315 202.199 95.6523 202.103 95.0731 202.007 94.5497 201.888 94.4892 201.838L94.3793 201.747 94.4762 201.39C94.5343 201.176 94.629 201.02 94.7125 201 94.7892 200.982 95.3236 201.049 95.9001 201.149L96.9482 201.331 97.015 201.234C97.1725 201.003 97.0343 200.946 95.8208 200.742 95.4269 200.676 94.942 200.592 94.7432 200.556L94.3818 200.491 94.2603 200.709C93.9774 201.217 92.9562 204.29 92.9562 204.634 92.9562 204.723 93.1999 204.708 94.5461 204.534ZM97.4374 199.801 97.669 199.104 97.5665 199.019C97.5101 198.972 96.9763 198.85 96.3802 198.748L95.2964 198.563 95.1823 198.708C95.0284 198.903 94.5359 200.009 94.5832 200.053 94.6349 200.1 97.0229 200.535 97.1243 200.515 97.1691 200.506 97.3101 200.185 97.4375 199.801ZM101.008 185.793C101.036 185.675 101.076 185.527 101.098 185.464 101.36 184.702 101.719 182.004 101.718 180.809 101.717 179.17 101.331 177.209 100.701 175.633 100.037 173.97 99.3274 172.839 98.5068 172.134L98.0021 171.701 97.7672 171.701C97.2954 171.701 96.9527 172.335 96.769 173.547L96.6338 174.44 96.7717 175.481C96.8475 176.053 97.0027 176.854 97.1164 177.26 97.3069 177.941 97.9593 179.708 98.2242 180.261 98.6831 181.22 100.588 185.409 100.686 185.676 100.827 186.059 100.936 186.099 101.008 185.793ZM122.654 221.711C122.29 221.557 121.878 221.09 121.765 220.702 121.632 220.249 121.716 219.226 121.933 218.656 122.645 216.782 124.21 215.099 125.959 214.328L126.613 214.04 127.373 214.025 128.132 214.009 128.112 213.866C128.101 213.788 128.033 213.072 127.961 212.277 127.888 211.481 127.775 210.268 127.71 209.58 127.644 208.892 127.533 207.695 127.462 206.921 127.391 206.147 127.315 205.356 127.292 205.162 127.27 204.969 127.212 204.371 127.163 203.833 127.115 203.296 127.058 202.698 127.036 202.504 126.997 202.156 126.848 200.575 126.613 198.009 126.546 197.278 126.467 196.53 126.439 196.347L126.386 196.015 126.726 196.015 127.067 196.015 127.117 196.465C127.144 196.712 127.202 197.213 127.245 197.579 127.288 197.944 127.345 198.542 127.372 198.908 127.398 199.273 127.457 199.871 127.503 200.237 127.549 200.602 127.626 201.359 127.675 201.918 127.725 202.477 127.818 203.462 127.883 204.107 128.341 208.635 128.484 210.065 128.641 211.69 128.711 212.421 128.828 213.494 128.9 214.075 129.118 215.83 129.127 216.105 128.981 216.686 128.5 218.596 126.728 220.639 124.814 221.488L124.193 221.764 123.551 221.791 122.909 221.819ZM115.794 217.836C115.698 217.663 115.621 217.504 115.621 217.484 115.621 217.451 116.705 216.891 118.359 216.069 118.637 215.931 119.206 215.648 119.623 215.441 120.04 215.233 120.922 214.788 121.584 214.452 122.246 214.116 122.8 213.84 122.815 213.84 122.83 213.84 123.35 213.582 123.971 213.267 124.591 212.952 125.478 212.506 125.942 212.277 126.405 212.048 126.904 211.798 127.05 211.722 127.196 211.646 127.338 211.605 127.366 211.631 127.393 211.656 127.416 211.845 127.416 212.049L127.416 212.42 127.142 212.572C126.992 212.656 126.527 212.892 126.11 213.098 125.693 213.303 125.162 213.568 124.931 213.686 124.699 213.804 124.244 214.032 123.92 214.193 123.595 214.354 123.102 214.6 122.824 214.74 122.546 214.879 122.063 215.121 121.75 215.277 121.141 215.58 120.927 215.688 118.654 216.832 117.398 217.463 116.243 218.032 116.025 218.125 115.993 218.139 115.889 218.009 115.794 217.836ZM129.14 211.28C129.113 211.162 129.079 211.005 129.063 210.933 129.018 210.721 129.002 210.73 131.418 209.54 131.789 209.357 132.49 209.006 132.977 208.76 133.8 208.344 134.176 208.156 135.841 207.329 136.189 207.156 136.871 206.814 137.358 206.568 137.845 206.322 138.584 205.953 139.001 205.747 139.418 205.542 140.157 205.173 140.644 204.927 141.13 204.681 141.87 204.313 142.287 204.108 142.704 203.903 143.443 203.534 143.93 203.288 145.133 202.679 146.012 202.242 146.963 201.777 147.403 201.563 147.799 201.357 147.843 201.32 147.994 201.194 148.111 201.254 148.253 201.529 148.331 201.681 148.395 201.836 148.395 201.874 148.395 201.945 148.019 202.152 146.752 202.779 146.335 202.986 145.662 203.325 145.257 203.533 144.851 203.741 144.505 203.911 144.487 203.911 144.47 203.911 144.157 204.064 143.793 204.251 143.428 204.437 142.845 204.731 142.497 204.904 142.15 205.077 141.657 205.324 141.402 205.452 141.147 205.58 140.598 205.854 140.18 206.061 139.763 206.267 139.024 206.637 138.538 206.882 137.372 207.47 136.702 207.806 135.884 208.211 135.513 208.394 134.811 208.745 134.325 208.991 133.403 209.458 132.588 209.865 131.376 210.464 130.982 210.659 130.361 210.971 129.997 211.157 129.632 211.343 129.301 211.495 129.261 211.495 129.221 211.495 129.167 211.398 129.14 211.28ZM122.025 208.27C122.026 208.216 122.075 208.001 122.133 207.792L122.24 207.412 122.574 207.239C122.758 207.144 123.174 206.932 123.498 206.768 123.823 206.605 124.278 206.375 124.509 206.258 124.741 206.141 125.338 205.844 125.836 205.598L126.742 205.15 126.79 205.264C126.816 205.327 126.825 205.526 126.811 205.706L126.784 206.033 126.194 206.325C125.324 206.758 124.388 207.227 123.192 207.83 122.606 208.126 122.104 208.368 122.076 208.368 122.047 208.368 122.025 208.324 122.026 208.27ZM131.356 206.183C130.414 205.902 130.04 205.201 130.211 204.037L130.293 203.481 130.664 202.752C131.099 201.895 131.461 201.412 132.216 200.679 133.769 199.17 135.625 198.426 136.916 198.794L137.105 198.848 137.104 196.239C137.104 194.804 137.065 190.783 137.019 187.302L136.936 180.974 137.021 180.895 137.105 180.817 137.107 180.93C137.11 181.119 137.961 182.03 138.54 182.464 139.17 182.936 140.188 183.451 141.285 183.851 141.707 184.005 142.08 184.131 142.113 184.131 142.147 184.131 142.541 184.297 142.989 184.499L143.804 184.867 144.359 185.379 144.915 185.891 145.117 186.36 145.319 186.829 145.317 188.197C145.316 189.071 145.277 189.686 145.209 189.9 145.094 190.257 144.993 190.275 144.906 189.954 144.814 189.614 144.285 189.009 143.823 188.716 143.335 188.406 142.662 188.155 141.474 187.838 141.041 187.722 140.421 187.515 140.096 187.378 139.055 186.937 138.2 186.046 137.935 185.127 137.664 184.186 137.651 184.712 137.776 191.441 137.82 193.763 137.865 196.895 137.877 198.4L137.9 201.136 137.762 201.488C137.085 203.212 135.715 204.737 134.047 205.623 133.148 206.099 131.927 206.354 131.356 206.183ZM128.464 204.726C128.432 204.53 128.439 204.34 128.48 204.305 128.52 204.271 128.814 204.113 129.132 203.955L129.711 203.669 129.652 204.122C129.619 204.372 129.567 204.599 129.536 204.627 129.437 204.719 128.692 205.084 128.606 205.084 128.56 205.084 128.496 204.923 128.464 204.726ZM121.649 201.182C121.45 200.825 121.488 200.683 121.835 200.5 122.244 200.284 124.542 199.107 125.141 198.806 125.396 198.679 125.679 198.526 125.771 198.467 125.862 198.409 125.985 198.36 126.045 198.36L126.152 198.36 126.152 198.782 126.152 199.204 124.994 199.788C124.357 200.11 123.703 200.442 123.54 200.527 123.378 200.611 122.915 200.846 122.512 201.048L121.779 201.415ZM138.415 199.802 138.357 199.445 138.457 199.333C138.513 199.272 138.79 199.112 139.074 198.978 139.358 198.844 139.989 198.533 140.475 198.286 141.347 197.843 142.037 197.499 143.319 196.865 143.678 196.687 144.124 196.464 144.309 196.367 144.494 196.271 145.101 195.97 145.657 195.699 146.213 195.428 146.809 195.124 146.982 195.024 147.155 194.924 147.316 194.842 147.339 194.842 147.363 194.842 147.752 194.654 148.205 194.424 148.657 194.194 149.33 193.856 149.701 193.673 150.072 193.489 150.896 193.077 151.532 192.756 152.168 192.435 152.722 192.192 152.764 192.216 152.806 192.24 152.906 192.389 152.987 192.546L153.133 192.832 152.979 192.919C152.77 193.036 151.777 193.541 151.007 193.922 150.66 194.094 150.186 194.331 149.954 194.45 149.722 194.568 149.191 194.833 148.774 195.038 148.357 195.244 147.561 195.64 147.005 195.919 146.449 196.197 145.71 196.567 145.362 196.74 145.015 196.913 144.56 197.141 144.352 197.247 144.144 197.353 143.652 197.599 143.257 197.793 142.862 197.987 142.426 198.207 142.287 198.282 142.148 198.357 141.693 198.587 141.276 198.792 139.817 199.51 139.419 199.709 138.991 199.933 138.753 200.057 138.54 200.159 138.516 200.159 138.492 200.159 138.447 199.998 138.415 199.802ZM127.787 197.985C127.756 197.79 127.764 197.58 127.806 197.518 127.891 197.394 127.829 197.427 130.281 196.174 131.231 195.688 132.766 194.903 133.693 194.429 134.62 193.954 135.587 193.462 135.841 193.335 136.096 193.208 136.352 193.069 136.409 193.026L136.514 192.948 136.562 193.065C136.589 193.13 136.599 193.336 136.584 193.524L136.558 193.865 135.673 194.321C135.186 194.572 134.504 194.921 134.156 195.097 133.809 195.272 133.392 195.485 133.23 195.57 133.067 195.654 132.707 195.838 132.429 195.979 132.151 196.119 131.006 196.708 129.884 197.286L127.844 198.339ZM117.578 195.976 117.218 195.716 117.957 195.328C118.363 195.114 119.132 194.718 119.665 194.448 120.198 194.177 120.766 193.887 120.929 193.803 121.288 193.616 122.584 192.948 123.161 192.653 123.393 192.535 123.943 192.252 124.383 192.025 124.823 191.797 125.278 191.564 125.394 191.507L125.605 191.403 125.652 191.813 125.7 192.223 125.568 192.315C125.495 192.365 125.19 192.528 124.888 192.676 124.587 192.825 123.848 193.201 123.245 193.513 122.643 193.824 121.6 194.36 120.928 194.704 120.257 195.048 119.536 195.418 119.328 195.526 119.119 195.635 118.721 195.839 118.443 195.98L117.937 196.236ZM115.747 194.726C115.562 194.665 115.287 194.485 115.136 194.325L114.862 194.034 114.862 193.534 114.862 193.034 115.089 192.59C115.516 191.752 116.585 190.881 117.662 190.493L118.275 190.272 118.991 190.271C119.385 190.271 119.83 190.301 119.981 190.338L120.255 190.406 120.254 189.203C120.253 188.108 120.354 183.848 120.477 179.856L120.526 178.278 121.085 178.233C123.562 178.035 125.167 177.717 127.184 177.026 128.989 176.408 130.657 175.553 131.803 174.659 132.015 174.494 132.217 174.359 132.253 174.359 132.29 174.359 132.297 174.878 132.269 175.512 132.241 176.146 132.198 179.677 132.174 183.359 132.149 187.061 132.094 190.166 132.051 190.304 131.781 191.179 130.741 192.127 129.454 192.671L128.891 192.91 128.119 192.948 127.347 192.987 126.952 192.809C126.269 192.503 126.028 191.919 126.276 191.176 126.569 190.297 127.335 189.481 128.37 188.945 129.191 188.521 129.647 188.401 130.466 188.397L131.199 188.393 131.305 188.49C131.363 188.544 131.44 188.588 131.477 188.588 131.515 188.588 131.545 186.583 131.545 184.132L131.545 179.675 131.461 179.675C131.415 179.675 131.197 179.795 130.976 179.942 129.666 180.813 127.798 181.599 126.026 182.023 124.725 182.334 122.553 182.645 121.662 182.647 121.421 182.648 121.176 182.677 121.117 182.711L121.01 182.774 120.968 184.45C120.931 185.88 120.8 190.62 120.767 191.712 120.75 192.268 120.413 192.838 119.729 193.466 118.537 194.561 116.865 195.09 115.747 194.726ZM109.007 193.568C109.099 193.507 109.554 193.27 110.018 193.043 110.481 192.815 110.898 192.604 110.945 192.573 110.991 192.543 111.37 192.349 111.787 192.143 112.204 191.937 113.96 191.052 115.689 190.178 117.418 189.303 118.85 188.588 118.871 188.588 118.892 188.588 119.06 188.5 119.243 188.392 119.427 188.285 119.616 188.197 119.663 188.197 119.711 188.197 119.749 188.383 119.749 188.614L119.749 189.032 119.307 189.254C119.063 189.376 118.74 189.54 118.588 189.618 118.436 189.696 118.003 189.871 117.625 190.006 117.248 190.141 116.58 190.479 116.141 190.757 115.702 191.035 114.979 191.441 114.534 191.659 114.089 191.877 113.583 192.137 113.411 192.237 113.238 192.337 113.078 192.419 113.056 192.419 113.034 192.419 112.493 192.689 111.854 193.02L110.692 193.622 109.765 193.651 108.838 193.68ZM138.285 192.506C138.285 192.081 138.291 192.073 139.001 191.715 139.641 191.391 139.96 191.228 142.073 190.15L143.797 189.271 144.032 189.533C144.162 189.677 144.255 189.831 144.24 189.876 144.208 189.963 144.041 190.052 141.234 191.478 140.191 192.008 139.157 192.542 138.936 192.665 138.716 192.787 138.479 192.888 138.41 192.888L138.285 192.888ZM103.719 190.839C103.638 190.659 103.6 190.487 103.635 190.456 103.67 190.425 104.154 190.164 104.71 189.875 105.872 189.271 108.006 188.173 108.501 187.923 108.687 187.829 110.033 187.136 111.492 186.382 112.952 185.628 114.317 184.923 114.525 184.815 114.734 184.708 115.265 184.433 115.705 184.205 116.145 183.978 116.657 183.715 116.842 183.621 117.028 183.528 117.54 183.263 117.98 183.034 119.297 182.347 119.788 182.102 119.854 182.1 119.889 182.1 119.918 182.284 119.918 182.51L119.918 182.921 119.767 183.008C119.684 183.056 117.912 183.975 115.828 185.05 113.745 186.125 111.907 187.073 111.745 187.157 111.583 187.242 111.014 187.534 110.481 187.806 109.948 188.078 109.38 188.37 109.217 188.455 108.57 188.792 106.857 189.68 105.679 190.288 104.862 190.71 103.936 191.168 103.902 191.167 103.883 191.166 103.801 191.019 103.719 190.839ZM145.901 188.611C145.932 188.366 145.966 188.162 145.976 188.157 145.986 188.153 146.373 187.951 146.837 187.711 147.3 187.471 148.248 186.986 148.943 186.632 149.638 186.278 150.396 185.891 150.628 185.773 151.31 185.423 153.476 184.321 153.682 184.22L153.872 184.126 153.872 184.584 153.872 185.042 153.514 185.212C153.317 185.306 152.928 185.501 152.65 185.645 152.372 185.789 151.557 186.206 150.839 186.571 150.12 186.937 149.353 187.329 149.132 187.443 148.912 187.557 148.571 187.732 148.374 187.832 148.177 187.933 147.556 188.249 146.995 188.536 146.433 188.822 145.944 189.057 145.909 189.057 145.874 189.057 145.87 188.856 145.901 188.611ZM132.64 188.242 132.64 187.808 132.975 187.611C133.16 187.503 133.322 187.415 133.336 187.415 133.35 187.415 134.041 187.066 134.871 186.638 135.701 186.211 136.411 185.879 136.448 185.9 136.532 185.948 136.535 186.565 136.451 186.677 136.391 186.757 135.359 187.319 135.069 187.43 134.991 187.46 134.782 187.568 134.605 187.67 134.428 187.773 133.913 188.041 133.461 188.267L132.64 188.677 132.64 188.242ZM121.386 188.093C121.351 188.01 121.384 187.4 121.429 187.284 121.432 187.277 121.842 187.069 122.34 186.822 123.335 186.328 123.972 186.009 124.551 185.715 124.76 185.609 125.291 185.344 125.731 185.126 126.171 184.908 126.664 184.655 126.826 184.563 126.988 184.472 127.387 184.27 127.711 184.113 128.035 183.957 128.888 183.531 129.605 183.166 130.322 182.801 130.939 182.519 130.974 182.54 131.057 182.587 131.057 183.204 130.974 183.318 130.925 183.387 126.673 185.56 123.498 187.139 122.934 187.42 122.661 187.56 121.812 188.005L121.432 188.205 121.386 188.093ZM141.715 183.526C141.54 183.459 141.409 183.37 141.424 183.329 141.448 183.26 141.846 183.044 143.509 182.199 143.81 182.046 144.34 181.772 144.688 181.591 145.036 181.41 145.528 181.155 145.783 181.025 146.038 180.895 146.564 180.626 146.952 180.427 147.34 180.229 147.704 180.066 147.761 180.066 147.86 180.066 148.204 180.667 148.135 180.719 148.116 180.733 147.551 181.027 146.879 181.373 146.207 181.718 145.486 182.089 145.278 182.197 143.309 183.217 142.378 183.661 142.221 183.655 142.118 183.651 141.891 183.592 141.715 183.526ZM132.719 182.43C132.716 182.398 132.697 182.232 132.677 182.06 132.657 181.888 132.669 181.708 132.703 181.66 132.761 181.58 136.301 179.753 136.397 179.753 136.421 179.753 136.428 179.953 136.414 180.196L136.389 180.64 136.136 180.769C135.997 180.84 135.618 181.032 135.294 181.196 134.969 181.36 134.514 181.59 134.283 181.708 133.086 182.315 132.723 182.482 132.719 182.43ZM137.06 179.92C136.937 179.747 136.861 179.568 136.892 179.523 136.922 179.477 137.087 179.375 137.258 179.296 137.769 179.061 138.905 178.487 139.083 178.373 139.174 178.315 139.275 178.268 139.308 178.268 139.383 178.268 139.717 178.767 139.717 178.879 139.717 178.96 139.433 179.117 138.074 179.792 137.75 179.954 137.439 180.119 137.384 180.159L137.284 180.233ZM132.774 175.825C132.804 175.599 132.853 175.391 132.882 175.363 132.911 175.335 133.246 175.154 133.627 174.959L134.32 174.606 134.491 174.863C134.585 175.004 134.661 175.169 134.66 175.228 134.66 175.335 133.012 176.235 132.818 176.235L132.718 176.235Z" id="path42838" stroke-width="0.0811607" fill="#FFFFFF"/></g></svg>