<svg width="241.298" height="242.403" xmlns="http://www.w3.org/2000/svg" xmlns:xlink="http://www.w3.org/1999/xlink" id="svg42784" xml:space="preserve" overflow="hidden"><defs id="defs42788"></defs><g id="g42790" transform="matrix(3.77953 0 0 3.77953 -343.457 -645.407)"><path d="M104.359 234.766C102.962 234.299 101.87 233.406 101.287 232.253L100.965 231.616 98.6182 221.246 96.2712 210.875 95.6266 209.796C91.7078 203.236 89.9119 194.284 91.3844 188.65 92.3629 184.905 95.0342 181.4 98.4122 179.428 99.6526 178.704 100.912 178.201 102.523 177.785L103.96 177.415 105.956 177.411 107.951 177.407 109.082 177.649C109.704 177.783 110.923 178.158 111.791 178.483 112.659 178.809 113.754 179.148 114.224 179.238L115.079 179.4 114.992 180.335C114.944 180.85 114.858 181.322 114.801 181.384 114.639 181.56 112.855 181.137 111.314 180.557 110.542 180.267 109.44 179.918 108.864 179.783L107.818 179.537 105.889 179.551 103.96 179.565 102.93 179.845C100.502 180.507 98.6661 181.541 96.9663 183.204 95.1716 184.96 94.0612 186.878 93.3501 189.448L93.067 190.472 93.0642 193.005 93.0614 195.539 93.2954 197.054C93.9399 201.225 95.4082 205.348 97.4332 208.674L98.2045 209.94 100.579 220.378C101.885 226.119 103.053 231.027 103.175 231.284 103.449 231.865 104.209 232.506 104.825 232.678 106.217 233.066 107.694 232.39 108.233 231.119 108.332 230.885 109.164 226.179 110.083 220.659 111.139 214.308 111.846 210.413 112.006 210.049 112.396 209.165 113.482 208.1 114.441 207.661L115.269 207.282 116.4 207.282 117.53 207.282 118.358 207.661C119.34 208.11 120.402 209.167 120.794 210.084 120.967 210.487 121.646 214.229 122.723 220.7 123.638 226.197 124.467 230.885 124.566 231.119 125.106 232.39 126.582 233.066 127.974 232.678 128.59 232.506 129.35 231.865 129.625 231.284 129.746 231.027 130.915 226.119 132.221 220.378L134.595 209.94 135.287 208.807C136.55 206.74 137.732 204.12 138.357 202.006 138.519 201.456 138.692 200.961 138.741 200.907 138.825 200.813 140.546 201.228 140.697 201.378 140.736 201.418 140.492 202.277 140.155 203.288 139.508 205.228 138.122 208.242 137.158 209.807L136.583 210.74 134.211 221.172 131.84 231.603 131.515 232.245C131.057 233.153 130.18 233.982 129.172 234.464L128.307 234.876 127.11 234.873 125.912 234.87 125.157 234.519C124.163 234.055 123.318 233.257 122.809 232.299L122.395 231.522 120.732 221.465 119.069 211.407 118.765 210.811C118.589 210.465 118.219 210.045 117.885 209.811L117.308 209.407 116.4 209.407 115.491 209.407 114.914 209.808C114.567 210.05 114.22 210.447 114.042 210.808L113.747 211.407 112.075 221.465 110.404 231.522 109.99 232.299C109.483 233.253 108.634 234.058 107.668 234.502L106.939 234.836 105.915 234.889C105.277 234.923 104.691 234.876 104.359 234.765ZM144.925 203.193 139.848 198.111 138.953 198.652C134.655 201.251 129.217 201.477 124.669 199.247 117.933 195.945 114.647 187.9 117.163 180.872 119.149 175.325 123.938 171.561 129.823 170.921L131.269 170.764 132.677 170.923C136.586 171.364 139.485 172.81 142.18 175.663 146.312 180.038 147.351 186.577 144.795 192.12L144.331 193.127 149.524 198.338 154.716 203.549 154.716 204.006 154.716 204.464 152.815 206.369 150.914 208.275 150.458 208.275 150.001 208.275ZM151.325 204.806 152.117 204.004 147.61 199.486 143.104 194.968 142.328 195.854 141.552 196.74 145.972 201.174C148.402 203.612 150.423 205.608 150.462 205.608 150.502 205.608 150.89 205.247 151.325 204.806ZM133.469 198.475C136.117 198.012 138.338 196.843 140.292 194.884 143.878 191.291 144.999 186.224 143.269 181.433 142.061 178.086 139.069 175.087 135.73 173.876 132.01 172.527 127.969 172.924 124.633 174.966 123.161 175.867 121.318 177.714 120.419 179.189 117.389 184.162 118.075 190.482 122.102 194.707 125.05 197.8 129.29 199.205 133.469 198.475ZM129.371 196.343C121.968 194.968 118.282 186.386 122.388 180.082 124.114 177.433 126.879 175.71 130.053 175.308L131.301 175.151 132.552 175.309C137.446 175.929 141.221 179.711 141.839 184.613L141.998 185.872 141.839 187.132C141.068 193.252 135.375 197.458 129.371 196.343ZM133.097 194.208C133.609 194.101 134.537 193.758 135.159 193.446L136.29 192.879 137.29 191.876 138.291 190.873 138.857 189.739C140.124 187.202 140.127 184.574 138.865 182.01L138.31 180.881 137.295 179.864 136.28 178.846 135.154 178.29C132.603 177.029 129.997 177.029 127.446 178.29L126.32 178.846 125.305 179.864 124.29 180.881 123.735 182.01C123.429 182.631 123.092 183.559 122.985 184.072 122.577 186.023 122.824 187.882 123.735 189.735L124.29 190.864 125.3 191.871 126.311 192.879 127.442 193.447C129.269 194.365 131.137 194.616 133.096 194.208ZM129.17 191.137 128.445 190.402 132.134 186.704 135.823 183.007 136.587 183.773 137.352 184.539 133.695 188.206C131.684 190.223 130.006 191.873 129.966 191.873 129.927 191.873 129.568 191.542 129.17 191.137ZM126.509 186.337 125.784 185.601 128.675 182.704 131.566 179.807 132.33 180.573 133.094 181.339 130.236 184.206C128.664 185.782 127.346 187.072 127.306 187.072 127.266 187.072 126.907 186.741 126.509 186.337ZM96.2321 191.258C96.4758 188.562 97.8049 186.236 99.9002 184.837 100.67 184.323 102.249 183.68 102.341 183.843 102.428 183.998 102.733 185.748 102.679 185.786 102.652 185.805 102.221 186.019 101.721 186.26 100.623 186.791 99.5707 187.817 99.0669 188.848 98.6597 189.682 98.3106 191.026 98.3077 191.773L98.3057 192.273 97.223 192.273 96.1403 192.273ZM104.692 184.806 104.692 183.739 105.756 183.739 106.821 183.739 106.821 184.806 106.821 185.872 105.756 185.872 104.692 185.872Z" id="path42782" stroke-width="0.133195" fill="#FFFFFF"/></g></svg>