<svg width="198.094" height="286.209" xmlns="http://www.w3.org/2000/svg" xmlns:xlink="http://www.w3.org/1999/xlink" id="svg42476" xml:space="preserve" overflow="hidden"><defs id="defs42480"></defs><g id="g42482" transform="matrix(3.77953 0 0 3.77953 -368.411 -620.99)"><path d="M118.386 239.807C117.254 239.54 116.123 238.898 115.342 238.077 114.756 237.461 114.003 236.062 114.003 235.588 114.003 235.198 113.735 235.456 113.398 236.171 113.233 236.522 113.015 236.809 112.913 236.809 112.453 236.809 109.574 234.267 107.924 232.403 102.885 226.713 99.4216 219.05 98.6919 211.978L98.5149 210.262 98.6809 208.815C99.2184 204.132 101.477 200.916 105.443 199.186 106.1 198.899 106.672 198.568 106.714 198.45 106.756 198.332 106.558 197.736 106.276 197.125 105.588 195.639 105.172 193.782 105.065 191.716 104.871 187.991 105.63 184.942 107.416 182.273L107.854 181.619 107.49 180.959 107.127 180.299 106.145 179.982 105.162 179.665 105.162 173.768 105.162 167.872 101.359 167.872 97.5554 167.872 97.5003 167.588C97.47 167.432 97.4669 166.629 97.4937 165.804L97.5419 164.304 123.004 164.304 148.467 164.304 148.467 166.088 148.467 167.872 147.343 167.872 146.219 167.872 146.219 172.089 146.219 176.307 146.856 176.307 147.493 176.307 147.493 179.794 147.493 183.281 144.533 183.281 141.574 183.281 141.574 179.794 141.574 176.307 142.548 176.307 143.522 176.307 143.522 172.089 143.522 167.872 141.649 167.872 139.776 167.872 139.776 173.626 139.776 179.38 139.231 180.523 138.687 181.665 139.287 182.595C140.109 183.869 140.608 184.982 140.988 186.39L141.309 187.58 141.384 190.097 141.458 192.613 141.2 193.99C141.058 194.746 140.747 195.832 140.509 196.402 140.27 196.972 140.076 197.469 140.076 197.508 140.076 197.546 140.214 197.53 140.384 197.471 140.767 197.34 141.978 197.638 143.093 198.138 144.582 198.806 145.735 199.645 146.878 200.89L147.992 202.104 148.668 203.601C149.041 204.424 149.467 205.682 149.616 206.395L149.888 207.693 149.875 209.883C149.863 212.015 149.743 213.069 149.268 215.235 147.834 221.777 144.988 227.551 140.869 232.278 139.702 233.617 137.307 235.835 137.028 235.835 136.924 235.835 136.606 235.398 136.322 234.864 135.789 233.863 135.58 233.671 135.58 234.184 135.58 234.346 135.478 234.853 135.352 235.31L135.124 236.141 134.355 237.053C132.367 239.407 129.02 239.925 126.253 238.308 125.861 238.079 125.541 237.836 125.541 237.767 125.541 237.698 125.418 237.599 125.268 237.548L124.995 237.454 124.332 238.126C123.545 238.923 122.182 239.657 121.062 239.887 120.044 240.096 119.555 240.081 118.386 239.807ZM121.21 237.603C121.987 237.394 122.938 236.59 123.289 235.844 124.001 234.333 123.399 232.592 121.87 231.739 121.146 231.336 119.438 231.18 118.559 231.437 117.621 231.712 116.719 232.503 116.37 233.357L116.067 234.1 116.141 234.808C116.29 236.245 117.53 237.505 119.056 237.769 119.787 237.896 120.258 237.86 121.21 237.603ZM131.459 236.682C132.669 236 133.332 234.987 133.332 233.824 133.332 233.062 133.143 232.576 132.57 231.87 131.934 231.086 131.136 230.663 130.065 230.541L129.191 230.443 128.377 230.7C126.951 231.152 125.847 232.508 125.847 233.808 125.847 235.042 126.925 236.433 128.238 236.893 129.155 237.215 130.692 237.114 131.459 236.682ZM125.139 230.242C126.052 229.295 127.076 228.746 128.382 228.504L129.437 228.308 130.628 228.496C131.839 228.687 132.716 229.067 133.595 229.779 133.862 229.997 134.082 230.112 134.082 230.035 134.082 229.959 133.879 229.295 133.631 228.56 132.012 223.758 131.441 217.317 132.214 212.584 132.67 209.792 134.068 205.92 135.407 203.737 135.749 203.179 136.03 202.652 136.03 202.564 136.03 202.477 135.743 202.619 135.393 202.879 133.659 204.167 130.831 205.325 127.926 205.936L126.515 206.233 123.068 206.223 119.622 206.213 118.101 205.858C116.406 205.462 113.747 204.511 112.973 204.023 112.694 203.848 112.438 203.737 112.402 203.775 112.366 203.814 112.686 204.408 113.113 205.096 116.053 209.833 117.358 215.193 117.084 221.398 116.969 223.998 116.59 226.693 116.026 228.92 115.823 229.723 115.681 230.406 115.711 230.438 115.741 230.471 116.195 230.243 116.72 229.933L117.674 229.369 118.764 229.208C120.656 228.929 122.636 229.445 123.938 230.556 124.201 230.781 124.422 230.966 124.428 230.967 124.434 230.967 124.754 230.641 125.139 230.241ZM125.332 204.85C131.961 204.277 136.986 201.099 139.02 196.192 139.45 195.155 140.026 192.744 139.882 192.588 139.839 192.542 139.597 192.831 139.343 193.23 137.764 195.715 134.888 197.231 131.756 197.231 129.489 197.231 127.985 196.782 126.3 195.604 125.795 195.25 125.354 194.96 125.321 194.96 125.288 194.96 124.849 195.578 124.345 196.334 123.841 197.089 123.37 197.747 123.299 197.795 123.227 197.843 122.714 197.206 122.159 196.38 121.603 195.555 121.127 194.85 121.099 194.814 121.072 194.777 120.651 195.051 120.164 195.42 118.476 196.702 116.803 197.252 114.591 197.252 111.628 197.252 108.983 196.025 107.263 193.853L106.663 193.095 106.662 193.372C106.66 193.926 107.383 196.093 107.904 197.096 110.189 201.491 114.986 204.335 120.97 204.843 123.18 205.031 123.234 205.031 125.332 204.849ZM124.259 195.134C124.717 194.561 125.091 194.028 125.091 193.95 125.091 193.641 124.626 192.862 124.25 192.541L123.852 192.203 123.086 192.209 122.319 192.215 121.926 192.574C121.478 192.984 121.195 193.509 121.195 193.931 121.195 194.217 123.119 196.279 123.322 196.211 123.38 196.192 123.801 195.708 124.259 195.135ZM116.894 195.538C119.593 194.626 121.66 192.316 122.103 189.717L122.264 188.771 122.101 187.638C121.911 186.313 121.183 184.634 120.703 184.417 120.521 184.334 119.36 183.963 118.124 183.593 116.887 183.223 114.966 182.643 113.854 182.304L111.832 181.688 110.755 182.257 109.678 182.825 108.788 183.829C107.7 185.055 107.194 186.099 106.986 187.546 106.453 191.264 108.715 194.534 112.579 195.631L113.628 195.929 114.902 195.855C115.602 195.815 116.499 195.672 116.894 195.538ZM112.771 193.271C110.232 192.477 108.735 190.118 109.22 187.672 109.309 187.222 109.443 186.812 109.517 186.763 109.591 186.713 109.916 186.759 110.239 186.863 111.087 187.138 111.861 186.931 112.477 186.264L112.995 185.703 112.915 184.752 112.835 183.801 113.606 183.698C116.56 183.305 119.289 185.63 119.303 188.553L119.307 189.526 118.957 190.383C118.045 192.613 115.086 193.994 112.77 193.271ZM134.007 195.532C137.155 194.495 139.317 191.688 139.324 188.628 139.328 186.821 138.402 184.655 137.108 183.445 136.287 182.677 134.502 181.659 133.977 181.659 133.777 181.659 132.724 181.947 131.637 182.298 130.55 182.649 128.727 183.23 127.584 183.589 126.359 183.975 125.418 184.362 125.29 184.533 125.171 184.692 124.863 185.291 124.607 185.864L124.14 186.906 124.073 188.149 124.007 189.392 124.261 190.338C124.593 191.576 125.299 192.748 126.295 193.718 127.445 194.837 128.246 195.235 130.56 195.839 131.091 195.977 133.234 195.786 134.007 195.532ZM130.485 193.283C128.915 192.894 127.932 192.157 127.099 190.743L126.669 190.013 126.667 188.711 126.665 187.41 126.95 186.724C127.106 186.347 127.263 186.039 127.297 186.039 127.331 186.039 127.591 186.23 127.874 186.464 128.175 186.713 128.66 186.923 129.037 186.969L129.684 187.048 130.306 186.704C131.261 186.177 131.604 185.136 131.174 184.073L131.068 183.811 131.356 183.729C131.849 183.59 133.373 183.922 134.182 184.346 135.596 185.087 136.551 186.497 136.727 188.102L136.815 188.904 136.561 189.848 136.308 190.792 135.456 191.714 134.604 192.636 133.779 192.971C132.674 193.418 131.488 193.531 130.486 193.283ZM123.218 185.228C123.269 185.139 123.239 185.066 123.152 185.066 123.065 185.066 122.993 185.139 122.993 185.228 122.993 185.317 123.023 185.39 123.059 185.39 123.096 185.39 123.167 185.317 123.218 185.228ZM137.228 180.93 137.58 180.524 137.352 180.524C137.226 180.524 136.9 180.608 136.628 180.711L136.133 180.898 136.41 181.116C136.779 181.409 136.821 181.399 137.228 180.93Z" id="path42448" stroke-width="0.155899" fill="#FFFFFF"/></g></svg>