<svg width="274.411" height="241.688" xmlns="http://www.w3.org/2000/svg" xmlns:xlink="http://www.w3.org/1999/xlink" id="svg42882" xml:space="preserve" overflow="hidden"><defs id="defs42886"></defs><g id="g42888" transform="matrix(3.77953 0 0 3.77953 -323.435 -643.862)"><path d="M140.117 234.244C139.033 234.108 137.884 233.884 135.863 233.416 130.995 232.29 128.17 231.257 126.505 229.996 125.339 229.113 124.266 228.1 123.623 227.275L122.977 226.446 122.402 226.251C121.562 225.966 120.066 225.593 119.039 225.41L118.142 225.252 116.959 225.292 115.776 225.332 115.23 225.553C114.501 225.848 113.747 226.584 112.783 227.938 112.358 228.537 111.801 229.278 111.547 229.584 110.639 230.678 109.144 231.618 107.678 232.016L106.891 232.229 105.851 232.225C104.689 232.22 103.891 232.059 102.797 231.606 102.052 231.298 100.983 230.676 100.983 230.55 100.983 230.511 101.568 230.425 102.283 230.361 103.74 230.23 104.851 229.975 105.596 229.601L106.098 229.349 106.068 229.188 106.038 229.027 105.435 228.95C104.048 228.773 102.745 228.086 101.668 226.964 101.291 226.571 100.983 226.18 100.983 226.095L100.983 225.94 101.149 225.994C101.24 226.023 101.803 226.166 102.401 226.311L103.488 226.576 104.953 226.582 106.418 226.588 106.947 226.32C107.682 225.946 108.211 225.387 109.696 223.409 111.18 221.432 111.603 221.015 112.652 220.488 114.381 219.619 116.797 219.57 119.45 220.351 119.911 220.486 120.3 220.584 120.314 220.568 120.328 220.551 119.923 219.309 119.414 217.806 118.905 216.304 118.305 214.46 118.081 213.708 117.857 212.957 117.663 212.325 117.649 212.304 117.635 212.283 117.293 212.487 116.889 212.758 115.738 213.529 114.552 214.186 113.27 214.762 109.388 216.505 106.797 217.003 104.296 216.485 102.063 216.023 100.514 215.049 98.2116 212.658L96.9052 211.301 96.5102 211.574C94.0406 213.283 92.0316 215.671 90.4153 218.817L89.8959 219.829 89.8011 219.654C89.6495 219.374 89.6045 217.275 89.7278 216.229 89.7899 215.701 89.9488 214.795 90.0809 214.214 90.2131 213.634 90.295 213.132 90.263 213.099 90.0895 212.92 88.5643 213.983 87.8888 214.753 87.4706 215.23 86.7766 216.245 86.6817 216.519 86.5785 216.816 86.5014 216.424 86.5119 215.656 86.5552 212.482 88.564 209.598 92.7593 206.689 93.3572 206.275 93.8555 205.926 93.8667 205.914 93.9051 205.875 93.1269 203.665 93.0337 203.55 92.9826 203.486 92.832 203.406 92.6991 203.371 92.5662 203.337 91.9671 203.063 91.3677 202.764 88.55 201.355 86.4517 199.28 85.7673 197.227L85.5755 196.652 85.5755 194.904 85.5755 193.156 85.817 192.407C86.7063 189.649 88.5428 187.554 91.3503 186.094 92.2807 185.61 94.1857 184.876 94.5116 184.876 94.703 184.876 94.7568 184.724 95.3058 182.623 96.506 178.03 97.6509 175.147 98.7979 173.83 100.607 171.753 104.601 170.525 110.062 170.369 113.123 170.282 115.361 170.591 117.987 171.464 122.597 172.996 125.966 175.518 128.344 179.217 129.367 180.81 129.687 181.41 129.808 181.969L129.907 182.429 129.62 184.186C129.463 185.153 129.164 186.654 128.957 187.522 128.75 188.39 128.596 189.117 128.615 189.137 128.635 189.157 129.178 189.041 129.823 188.881 131.653 188.424 132.733 188.282 134.823 188.224 140.159 188.075 144.262 189.057 146.171 190.941 147.123 191.881 148.392 194.281 149.359 196.975 149.981 198.708 151.342 203.02 151.795 204.695L152.155 206.025 152.852 205.6C153.811 205.015 154.56 204.403 155.164 203.715 156.3 202.419 156.58 200.973 155.908 199.878L155.637 199.438 155.108 199.171 154.58 198.904 153.799 198.842C153.37 198.808 152.721 198.807 152.357 198.841 151.994 198.875 151.681 198.889 151.664 198.873 151.621 198.835 150.136 193.657 150.136 193.547 150.136 193.416 151.801 193.454 152.617 193.604 154.394 193.931 155.808 194.658 156.573 195.638 157.107 196.323 157.661 197.562 157.946 198.711L158.18 199.658 158.146 202.439 158.112 205.22 157.853 205.985C157.182 207.965 156.047 209.857 154.557 211.478L153.583 212.538 153.755 213.66 153.927 214.782 153.942 216.684 153.956 218.587 153.75 219.566C153.092 222.69 150.876 227.66 148.987 230.247 147.604 232.142 145.778 233.53 143.989 234.049L143.283 234.253 142.054 234.293C141.378 234.315 140.506 234.293 140.116 234.244ZM130.583 226.075C130.926 225.713 131.689 224.802 132.279 224.05 134.066 221.775 135.281 220.685 137.045 219.78 139.676 218.43 142.892 218.226 145.672 219.234 146.777 219.635 147.693 220.079 148.426 220.571 148.759 220.794 149.132 220.977 149.255 220.977L149.479 220.977 149.565 220.743 149.652 220.509 149.527 220.02C149.114 218.404 147.882 216.691 146.173 215.354 145.161 214.563 143.375 213.645 142.196 213.312L141.298 213.058 139.928 213.006 138.557 212.954 137.712 213.163C136.718 213.408 135.324 214.066 134.506 214.674 133.775 215.219 132.806 216.195 132.229 216.97 130.878 218.782 129.464 221.932 129.146 223.838 129.085 224.205 129.053 224.916 129.074 225.418L129.113 226.332 129.289 226.533C129.385 226.643 129.576 226.733 129.712 226.733L129.96 226.733ZM127.052 212.436C128.978 212.04 130.392 210.759 131.051 208.813 131.694 206.916 131.657 204.503 130.963 203.024L130.711 202.487 130.453 202.396 130.194 202.304 129.955 202.536C129.824 202.664 129.547 203.092 129.34 203.488 128.795 204.53 128.046 205.514 127.046 206.5 125.923 207.608 125.037 208.292 123.622 209.144 122.426 209.863 121.873 210.318 121.873 210.582 121.873 210.811 122.692 211.68 123.193 211.984 124.132 212.552 125.634 212.728 127.052 212.436ZM110.105 208.145C113.428 207.629 116.325 206.034 118.901 203.303 120.022 202.115 120.588 201.329 121.037 200.339 121.338 199.676 121.368 199.162 121.115 198.999L120.971 198.906 119.738 199.442C117.578 200.381 115.219 201.081 113.063 201.425 111.776 201.63 109.132 201.657 108.025 201.477 104.174 200.848 101.101 198.904 98.4431 195.414 97.3882 194.028 97.136 193.755 96.9114 193.755L96.72 193.755 96.5712 194.121 96.4225 194.487 96.4718 195.804C96.6068 199.405 98.1181 202.78 100.745 205.347 102.423 206.987 103.985 207.785 106.229 208.15 107.281 208.322 108.983 208.319 110.105 208.145ZM144.816 207.274C145.706 206.981 146.829 206.253 147.356 205.629 147.783 205.124 148.214 204.194 148.293 203.609L148.352 203.17 148.212 202.975 148.072 202.78 145.867 202.717C144.461 202.677 143.357 202.596 142.823 202.492 141.273 202.193 139.748 201.605 138.516 200.833 138.2 200.635 137.841 200.487 137.674 200.487L137.382 200.487 137.284 200.676C136.917 201.385 137.623 203.53 138.71 205.011 139.577 206.19 140.901 207.157 142.067 207.461 142.827 207.66 143.857 207.589 144.816 207.274ZM92.6389 196.347C92.7038 195.607 92.8653 194.293 92.9976 193.427 93.1298 192.561 93.2638 191.666 93.2953 191.437L93.3525 191.022 93.0324 191.081C92.2542 191.223 90.9313 191.622 90.5173 191.84 89.4019 192.428 88.7034 193.245 88.4948 194.207L88.3838 194.719 88.5032 195.159 88.6226 195.6 89.0528 196.05C89.2895 196.298 89.7417 196.636 90.0579 196.802 90.7253 197.152 92.291 197.757 92.4274 197.718 92.4787 197.703 92.5739 197.086 92.6389 196.346ZM123.649 193.169 123.775 192.926 123.723 192.047C123.659 190.965 123.493 190.31 123.042 189.364L122.693 188.632 122.07 187.991C121.08 186.971 120.022 186.538 118.514 186.536 117.496 186.534 116.782 186.71 115.824 187.196L115.115 187.556 114.394 188.289C113.694 189.002 113.177 189.829 113.177 190.236 113.177 190.343 113.261 190.477 113.364 190.534L113.551 190.637 114.144 190.539C114.47 190.484 115.205 190.33 115.776 190.196 117.523 189.785 118.731 189.885 120.007 190.546 121.156 191.14 122.105 191.968 122.945 193.109 123.246 193.518 123.458 193.536 123.649 193.169ZM106.399 188.899C106.615 188.652 106.701 187.58 106.562 186.873 106.388 185.998 105.88 185.08 105.188 184.394L104.588 183.8 103.855 183.44 103.121 183.081 102.309 183.04 101.496 183 100.885 183.161C99.2255 183.597 97.5706 184.867 96.9267 186.197 96.5877 186.898 96.8105 187.151 97.5713 186.928 100.694 186.013 102.821 186.409 105.132 188.333 105.62 188.739 106.07 189.072 106.133 189.072 106.196 189.072 106.316 188.994 106.399 188.899Z" id="path42866" stroke-width="0.0960349" fill="#FFFFFF"/></g></svg>