<svg width="185.22" height="180.648" xmlns="http://www.w3.org/2000/svg" xmlns:xlink="http://www.w3.org/1999/xlink" id="svg42924" xml:space="preserve" overflow="hidden"><defs id="defs42928"></defs><g id="g42930" transform="matrix(3.77953 0 0 3.77953 -357.504 -669.015)"><path d="M114.272 224.695C113.292 224.545 111.732 224.196 110.716 223.9 106.191 222.582 102.525 219.729 101.421 216.666L101.161 215.945 99.6461 215.944 98.1314 215.943 99.4458 213.278C102.291 207.512 103.506 205.525 103.506 206.64 103.506 207.298 104.827 210.204 106.769 213.815 107.396 214.98 107.908 215.964 107.908 216.002 107.908 216.04 107.371 216.047 106.714 216.017L105.52 215.964 105.616 216.152C105.786 216.482 106.877 217.525 107.523 217.974 109.295 219.206 112.185 220.294 114.44 220.577L114.99 220.647 114.99 222.727C114.99 223.871 114.958 224.801 114.918 224.795 114.879 224.788 114.588 224.743 114.272 224.695ZM116.103 219.105C116.125 215.969 116.168 211.959 116.199 210.194L116.256 206.985 117.418 206.957 118.579 206.929 118.607 206.007 118.634 205.086 121.215 205.086 123.795 205.086 123.795 206.032 123.795 206.979 132.616 206.979 141.437 206.979 141.373 213.12C141.338 216.498 141.31 220.509 141.31 222.034L141.31 224.807 128.687 224.807 116.064 224.807ZM127.267 222.786C129.654 221.983 131.386 219.942 131.889 217.339L132.052 216.495 131.995 215.589C131.881 213.785 131.241 212.339 129.968 211.009L129.203 210.209 128.417 209.786C127.984 209.553 127.299 209.274 126.894 209.167L126.157 208.971 125.192 208.973C124.054 208.975 123.27 209.147 122.328 209.604 120.499 210.491 119.128 212.197 118.617 214.22L118.421 214.997 118.417 215.993C118.412 217.238 118.606 218.123 119.129 219.23L119.53 220.076 120.395 220.98 121.259 221.883 122.025 222.289C122.682 222.637 123.176 222.817 124.131 223.056 124.236 223.082 124.817 223.089 125.423 223.07L126.523 223.037 127.268 222.786ZM124.082 220.771C122.304 220.261 121.036 218.957 120.592 217.183 120.198 215.607 120.66 213.862 121.788 212.664 123.647 210.69 126.556 210.669 128.427 212.617 129.052 213.268 129.441 213.999 129.669 214.953 129.863 215.767 129.866 216.33 129.68 217.092 129.141 219.291 127.475 220.74 125.327 220.877L124.609 220.922ZM139.009 210.516C139.16 210.435 139.373 210.25 139.483 210.104L139.683 209.84 139.683 209.404 139.683 208.968 139.355 208.596 139.028 208.224 137.593 208.192 136.158 208.16 135.858 208.321C135.498 208.515 135.185 209.016 135.185 209.399 135.184 209.801 135.434 210.244 135.787 210.468L136.094 210.663 137.414 210.663 138.735 210.664 139.009 210.516ZM113.257 214.413C109.448 212.782 106.568 209.058 105.851 204.837 105.694 203.913 105.643 201.79 105.757 200.938 106.022 198.953 106.841 196.821 107.99 195.126 108.649 194.154 110.046 192.754 111.05 192.058 113.136 190.613 114.99 189.985 117.497 189.876 121.346 189.708 124.933 191.379 127.412 194.494 128.574 195.956 129.427 197.735 129.882 199.646L130.122 200.654 130.178 201.999C130.214 202.854 130.191 203.661 130.115 204.215L129.996 205.086 129.478 205.086 128.96 205.086 129.016 204.812C129.046 204.662 129.091 204.436 129.116 204.311L129.16 204.083 128.783 204.284C128.576 204.394 128.078 204.619 127.677 204.785L126.949 205.086 126.2 205.086 125.452 205.086 125.39 203.816C125.356 203.118 125.327 202.251 125.327 201.89L125.327 201.234 124.298 201.014C123.732 200.893 122.806 200.737 122.24 200.666L121.211 200.538 121.211 201.966 121.211 203.393 120.745 203.393 120.278 203.393 120.194 201.924 120.111 200.455 118.484 200.424C117.589 200.407 116.545 200.422 116.163 200.458L115.469 200.522 115.469 202.804 115.469 205.086 115.004 205.086 114.54 205.086 114.472 203.636C114.435 202.838 114.434 201.83 114.471 201.395L114.537 200.604 114.405 200.605C114.185 200.607 111.828 200.997 111.46 201.092 111.27 201.142 110.996 201.21 110.852 201.244L110.588 201.305 110.588 202.335C110.588 202.901 110.616 203.633 110.649 203.963L110.709 204.562 111.821 204.776C112.433 204.894 113.149 205.024 113.412 205.065L113.89 205.14 113.92 205.668 113.949 206.196 113.489 206.128C113.236 206.091 112.538 205.976 111.937 205.872 111.337 205.767 110.828 205.7 110.807 205.722 110.684 205.85 111.426 209.298 111.612 209.468 111.703 209.551 112.61 209.806 113.388 209.966L113.938 210.08 113.938 210.571 113.938 211.062 113.723 211.059C113.605 211.057 113.228 210.991 112.886 210.913 112.543 210.835 112.209 210.769 112.143 210.767 111.982 210.762 112.7 212.253 113.181 212.923 113.384 213.206 113.638 213.467 113.745 213.502L113.938 213.566 113.938 214.107C113.938 214.405 113.906 214.647 113.867 214.646 113.827 214.645 113.553 214.54 113.258 214.413ZM111.195 211.355C111.006 210.893 110.803 210.462 110.743 210.398 110.621 210.265 108.946 209.55 108.892 209.607 108.828 209.673 110.427 211.38 110.966 211.822 111.253 212.057 111.5 212.238 111.514 212.223 111.528 212.208 111.385 211.818 111.195 211.355ZM110.248 208.468C110.17 208.169 110.022 207.368 109.919 206.688 109.817 206.008 109.699 205.42 109.658 205.381 109.617 205.342 109.281 205.209 108.913 205.086 108.544 204.964 107.929 204.729 107.544 204.565 107.16 204.401 106.828 204.284 106.807 204.306 106.731 204.386 107.067 205.832 107.353 206.653L107.645 207.493 108.04 207.797C108.403 208.076 110.311 209.092 110.366 209.036 110.379 209.022 110.326 208.767 110.248 208.468ZM109.631 202.895C109.631 202.183 109.612 201.6 109.589 201.6 109.305 201.6 106.664 202.814 106.664 202.944 106.664 203.087 109.15 204.17 109.511 204.185L109.631 204.19ZM127.014 203.932C127.699 203.664 128.95 203.04 129.095 202.895 129.229 202.76 126.836 201.6 126.425 201.6L126.284 201.6 126.284 202.895C126.284 203.607 126.3 204.19 126.32 204.19 126.34 204.19 126.652 204.074 127.014 203.932ZM107.366 201.346C107.659 201.206 108.3 200.946 108.789 200.767L109.679 200.443 109.796 199.402C109.86 198.83 109.995 197.947 110.095 197.441 110.194 196.935 110.237 196.521 110.19 196.521 110.039 196.521 108.74 197.23 108.129 197.646L107.536 198.05 107.34 198.605C106.976 199.636 106.598 201.6 106.764 201.6 106.801 201.6 107.072 201.486 107.366 201.346ZM129.01 200.433C128.924 199.952 128.747 199.222 128.616 198.812L128.379 198.065 127.761 197.634C127.175 197.227 125.792 196.501 125.728 196.568 125.712 196.585 125.784 197.063 125.888 197.63 125.993 198.198 126.108 199.031 126.145 199.482 126.182 199.933 126.261 200.342 126.32 200.39 126.379 200.439 126.772 200.598 127.193 200.746 127.614 200.893 128.217 201.137 128.533 201.289L129.107 201.566 129.137 201.437C129.154 201.366 129.097 200.915 129.01 200.433ZM111.787 199.961C112.21 199.874 112.981 199.748 113.5 199.681L114.443 199.559 114.517 199.409C114.558 199.327 114.662 198.655 114.748 197.915 114.834 197.176 114.953 196.291 115.013 195.95 115.073 195.609 115.103 195.311 115.08 195.287 115.057 195.264 114.651 195.309 114.177 195.389 113.403 195.518 112.982 195.615 111.814 195.931L111.462 196.027 111.318 196.548C111.162 197.111 110.826 198.964 110.739 199.739L110.686 200.219 110.852 200.169C110.944 200.142 111.365 200.048 111.787 199.961ZM125.172 199.633C125.072 198.767 124.847 197.475 124.673 196.77L124.502 196.073 123.742 195.845C123.101 195.653 120.919 195.226 120.581 195.226L120.476 195.226 120.648 196.147C120.742 196.654 120.866 197.494 120.923 198.015 120.98 198.535 121.049 199.078 121.076 199.221L121.125 199.48 122.436 199.647C123.157 199.739 124.006 199.875 124.322 199.95 124.637 200.025 124.97 200.091 125.062 200.096L125.227 200.106ZM120.063 199.273C120.063 198.978 119.751 196.792 119.6 196.023L119.433 195.176 117.813 195.176 116.194 195.176 116.074 195.774C115.982 196.231 115.565 199.177 115.565 199.368 115.565 199.388 116.577 199.402 117.814 199.399L120.063 199.395 120.063 199.274ZM110.205 195.351 110.636 195.159 111.005 194.221C111.207 193.706 111.398 193.219 111.429 193.14 111.589 192.722 109.863 194.342 109.166 195.264 108.508 196.135 108.508 196.145 109.172 195.829 109.503 195.672 109.968 195.456 110.205 195.351ZM127.09 195.749C126.518 194.957 125.828 194.184 125.237 193.672 124.898 193.379 124.606 193.154 124.589 193.172 124.552 193.21 125.275 195.106 125.36 195.194 125.407 195.243 127.22 196.093 127.324 196.115 127.343 196.119 127.238 195.954 127.09 195.749ZM124.081 194.753C124.078 194.581 123.127 192.655 122.865 192.288L122.579 191.89 122.015 191.67C120.959 191.258 119.106 190.828 119.106 190.995 119.106 191.031 119.234 191.364 119.391 191.736 119.548 192.108 119.793 192.788 119.935 193.247 120.077 193.705 120.203 194.095 120.214 194.111 120.225 194.128 120.708 194.207 121.288 194.286 121.868 194.365 122.68 194.515 123.093 194.618 123.966 194.838 124.083 194.854 124.081 194.753ZM113.085 194.536C113.58 194.43 114.27 194.314 114.617 194.277 114.965 194.24 115.288 194.181 115.336 194.145 115.383 194.11 115.546 193.68 115.697 193.19 115.848 192.7 116.092 192.005 116.239 191.646 116.386 191.287 116.497 190.984 116.486 190.973 116.426 190.91 114.654 191.364 114.062 191.592L113.374 191.859 112.99 192.472C112.656 193.007 111.928 194.514 111.928 194.672 111.928 194.763 112.133 194.739 113.085 194.536ZM119.084 193.986C119.205 193.866 117.949 190.844 117.778 190.844 117.63 190.844 116.522 193.594 116.522 193.962L116.522 194.081 117.79 194.046C118.487 194.027 119.07 194 119.084 193.985ZM96.2135 205.388 96.0355 205.236 95.752 201.551C95.3133 195.847 95.0105 191.929 94.7908 189.112L94.5897 186.534 94.7233 186.395 94.857 186.256 101.981 185.665C105.899 185.34 110.518 184.957 112.247 184.813 113.975 184.669 115.489 184.578 115.613 184.61L115.836 184.669 115.888 184.943C115.917 185.093 115.986 185.911 116.042 186.76 116.099 187.609 116.163 188.421 116.184 188.563L116.224 188.823 115.444 188.983C115.015 189.071 114.654 189.133 114.643 189.121 114.632 189.11 114.575 188.565 114.516 187.91 114.458 187.256 114.399 186.71 114.386 186.696 114.347 186.655 96.7916 188.137 96.7456 188.184 96.681 188.252 97.5893 200.045 97.6661 200.135 97.7027 200.179 98.403 200.159 99.2223 200.093L100.712 199.971 100.824 199.366C101.362 196.457 102.297 193.761 103.084 192.853L103.458 192.423 103.849 192.369 104.24 192.316 104.527 192.47C104.91 192.676 105.816 193.705 106.348 194.539L106.778 195.211 106.202 196.439C105.279 198.405 104.873 200.022 104.782 202.098 104.755 202.728 104.774 203.58 104.825 203.991 104.877 204.402 104.891 204.765 104.858 204.798 104.825 204.832 102.906 205.012 100.595 205.199L96.3915 205.54ZM132.365 205.23 132.221 204.871 131.932 204.758 131.643 204.644 131.643 202.639 131.643 200.634 132.146 200.68C134.417 200.891 136.127 202.741 136.354 205.236L136.381 205.534 134.445 205.561 132.509 205.588ZM131.595 196.826C131.146 196.714 130.928 196.561 130.492 196.05 129.631 195.042 129.543 194.339 130.052 192.562 130.228 191.946 130.342 191.441 130.304 191.441 130.266 191.441 129.923 191.801 129.541 192.241 128.821 193.071 128.413 193.375 128.156 193.273 127.792 193.127 128.067 192.597 129 191.645 129.399 191.239 129.709 190.889 129.689 190.868 129.669 190.848 129.161 190.99 128.559 191.186 127.322 191.588 126.862 191.622 126.268 191.354 125.668 191.084 124.666 190.284 124.558 189.988 124.507 189.849 124.465 189.499 124.465 189.21L124.465 188.684 124.757 188.076C124.934 187.708 125.252 187.276 125.562 186.98L126.075 186.493 126.64 186.328C126.951 186.237 127.515 186.163 127.893 186.163 128.271 186.163 128.581 186.126 128.581 186.08 128.581 186.035 128.386 185.642 128.148 185.209 127.623 184.249 127.336 183.481 127.336 183.027 127.336 182.582 127.67 181.487 128.555 179.022L129.278 177.01 129.654 177.229C130.219 177.558 131.213 178.539 131.697 179.243 132.253 180.055 132.832 181.349 133.032 182.229L133.19 182.926 133.127 184.27 133.064 185.615 133.177 186.288C133.239 186.658 133.333 186.988 133.385 187.022 133.563 187.136 133.863 186.688 134.136 185.901 134.46 184.967 134.494 185.024 134.22 186.041 134.11 186.446 134.037 186.795 134.057 186.816 134.077 186.836 134.369 186.767 134.706 186.661 135.437 186.43 135.563 186.46 134.923 186.713 134.355 186.937 133.847 187.271 133.846 187.422 133.843 187.657 134.238 187.701 136.428 187.71L138.678 187.72 139.349 187.974C140.191 188.291 140.721 188.571 141.453 189.083 142.154 189.573 143.101 190.563 143.386 191.101L143.596 191.499 142.28 192.065C140.553 192.809 138.974 193.43 138.438 193.575 137.747 193.762 137.125 193.619 135.95 193.003L134.897 192.451 134.896 193.216C134.894 194.691 134.508 195.55 133.542 196.233 132.745 196.796 132.172 196.971 131.595 196.827ZM99.2287 191.634C98.8703 191.522 98.5288 191.11 98.5288 190.791 98.5288 190.486 99.129 189.947 99.4682 189.947L99.731 189.947 99.8362 189.657C100.139 188.822 101.8 188.817 102.214 189.65 102.304 189.832 102.437 189.947 102.556 189.947 102.83 189.947 103.291 190.214 103.407 190.44 103.461 190.545 103.505 190.744 103.505 190.882L103.505 191.132 103.154 191.411 102.803 191.69 101.168 191.71C100.269 191.721 99.3964 191.687 99.2286 191.634ZM106.771 191.607C106.384 191.457 106.09 191.105 106.09 190.793 106.09 190.486 106.688 189.947 107.029 189.947L107.292 189.947 107.397 189.657C107.7 188.822 109.361 188.817 109.775 189.65L109.923 189.947 110.145 189.947C110.268 189.947 110.514 190.05 110.693 190.175L111.018 190.402 111.048 190.763 111.077 191.124 110.72 191.407 110.364 191.69 108.729 191.712 107.095 191.733 106.771 191.608ZM137.098 186.229 136.476 186.12 137.098 186.062C137.801 185.995 138.08 186.037 138.028 186.2 137.979 186.352 137.826 186.357 137.098 186.229ZM136.117 186.196C136.183 186.169 136.291 186.169 136.357 186.196 136.423 186.224 136.369 186.247 136.237 186.247 136.106 186.247 136.052 186.224 136.117 186.196ZM134.53 184.569C134.53 184.432 134.551 184.376 134.578 184.445 134.604 184.513 134.604 184.625 134.578 184.694 134.551 184.762 134.53 184.706 134.53 184.569ZM134.523 183.498C134.39 182.788 134.421 182.54 134.616 182.743 134.671 182.8 134.702 183.151 134.686 183.533L134.658 184.221 134.523 183.498Z" id="path42908" stroke-width="0.0976326" fill="#FFFFFF"/></g></svg>